<?xml version="1.0" encoding="UTF-8"?>
<svg width="38px" height="38px" viewBox="0 0 38 38" version="1.1" xmlns="http://www.w3.org/2000/svg" xmlns:xlink="http://www.w3.org/1999/xlink">
    <!-- Generator: Sketch 60 (88103) - https://sketch.com -->
    <title>time-circle</title>
    <desc>Created with Sketch.</desc>
    <g id="AI能力平台-研究中心" stroke="none" stroke-width="1" fill="none" fill-rule="evenodd">
        <g id="个人中心-服务账单" transform="translate(-393.000000, -280.000000)" fill-rule="nonzero">
            <g id="编组-5" transform="translate(153.000000, 95.000000)">
                <g id="编组-3" transform="translate(146.000000, 72.000000)">
                    <g id="time-circle" transform="translate(92.000000, 111.000000)">
                        <rect id="矩形" fill="#000000" opacity="0" x="0" y="0" width="42" height="42"></rect>
                        <path d="M21,2.625 C10.8527344,2.625 2.625,10.8527344 2.625,21 C2.625,31.1472656 10.8527344,39.375 21,39.375 C31.1472656,39.375 39.375,31.1472656 39.375,21 C39.375,10.8527344 31.1472656,2.625 21,2.625 Z M21,36.2578125 C12.5753906,36.2578125 5.7421875,29.4246094 5.7421875,21 C5.7421875,12.5753906 12.5753906,5.7421875 21,5.7421875 C29.4246094,5.7421875 36.2578125,12.5753906 36.2578125,21 C36.2578125,29.4246094 29.4246094,36.2578125 21,36.2578125 Z" id="形状" fill="#74A0FA"></path>
                        <path d="M28.1654297,26.1925781 L22.3166016,21.9638672 L22.3166016,11.8125 C22.3166016,11.6320313 22.1689453,11.484375 21.9884766,11.484375 L20.015625,11.484375 C19.8351563,11.484375 19.6875,11.6320313 19.6875,11.8125 L19.6875,23.1082031 C19.6875,23.2148438 19.7367188,23.3132812 19.8228516,23.3748047 L26.6068359,28.3212891 C26.7544922,28.4279297 26.9595703,28.3951172 27.0662109,28.2515625 L28.2392578,26.6519531 C28.3458984,26.5001953 28.3130859,26.2951172 28.1654297,26.1925781 L28.1654297,26.1925781 Z" id="路径" fill="#74A0FA"></path>
                    </g>
                </g>
            </g>
        </g>
    </g>
</svg>