<?xml version="1.0" encoding="UTF-8"?>
<svg width="164px" height="22px" viewBox="0 0 164 22" version="1.1" xmlns="http://www.w3.org/2000/svg" xmlns:xlink="http://www.w3.org/1999/xlink">
    <title>DAIP_logo</title>
    <g id="关于我们" stroke="none" stroke-width="1" fill="none" fill-rule="evenodd">
        <g transform="translate(-120.000000, -26.000000)" id="编组-2">
            <g transform="translate(-110.000000, 0.000000)">
                <g id="DAIP_logo" transform="translate(230.000000, 26.000000)">
                    <path d="M2.52887619,18.4462503 L3.90495117,18.4462503 C6.75727072,18.4462503 8.87552892,17.8421387 10.1993919,16.6497724 C11.5170669,15.463981 12.1853799,13.5909256 12.1853799,11.0828182 C12.1853799,8.68957702 11.4977291,6.84552826 10.1425389,5.6013368 C8.78077389,4.35289103 6.75727072,3.71977278 4.12810891,3.71977278 L2.52887619,3.71977278 L2.52887619,18.4462503 Z M3.83030741,20.8510941 L-0.000116026558,20.8510941 L-0.000116026558,1.31492898 L3.95445583,1.31492898 C7.39348301,1.31492898 10.0748568,2.17313876 11.9223863,3.86480598 C13.7749437,5.56227452 14.7139853,7.99883224 14.7139853,11.1075705 C14.7139853,14.3006214 13.7803583,16.7503288 11.9386301,18.389784 C10.1042502,20.0226645 7.37607903,20.8510941 3.83030741,20.8510941 L3.83030741,20.8510941 Z" id="Fill-4" fill="#000000"></path>
                    <polygon id="Fill-6" fill="#333333" points="71.1428444 12.1267091 78.1643849 12.1267091 78.1643849 10.4323346 71.1428444 10.4323346"></polygon>
                    <path d="M142.543925,11.4733249 L135.480615,11.4733249 L135.480615,3.55915335 L142.771724,3.55915335 L141.875999,1.81875497 L125.609076,1.81875497 L125.609076,3.55915335 L132.643766,3.55915335 L132.643766,11.4733249 L124.759761,11.4733249 L124.759761,13.3173736 L132.643766,13.3173736 L132.643766,20.1335472 L135.480615,20.1335472 L135.480615,13.3173736 L143.492636,13.3173736 L142.543925,11.4733249 Z M136.859011,9.42197533 L138.884448,10.6982675 C139.146668,10.4221243 139.436734,10.0902883 139.754647,9.70353311 C140.072173,9.31716467 140.410584,8.8611803 140.769879,8.3363535 C141.142711,7.8115267 141.464105,7.3385251 141.7329,6.91696194 C142.002855,6.49578553 142.233748,6.11251114 142.427125,5.76713875 L140.236157,4.59488376 C139.739177,5.54784855 139.210869,6.41456694 138.651621,7.19465217 C138.091986,7.97551091 137.494063,8.71769412 136.859011,9.42197533 L136.859011,9.42197533 Z M128.524823,9.58982708 C128.780468,9.9970803 128.998211,10.3737799 129.177279,10.7187655 L131.389519,9.48424292 C131.195754,9.15279372 130.961381,8.77686767 130.685237,8.35491775 C130.408708,7.9341281 130.077258,7.46770134 129.69089,6.95679772 C129.317671,6.44589411 128.97578,5.99687133 128.664828,5.61011614 C128.354264,5.22336095 128.067292,4.89191174 127.805072,4.61538178 L125.738639,5.84990436 C125.986935,6.12643432 126.266559,6.45788352 126.577511,6.84463872 C126.888462,7.23139391 127.223005,7.68699153 127.582301,8.21181833 C127.955133,8.72310869 128.269565,9.18257387 128.524823,9.58982708 L128.524823,9.58982708 Z" id="Fill-9" fill-opacity="0.85" fill="#333333"></path>
                    <path d="M149.809392,17.9168211 L159.233843,17.9168211 L159.233843,12.9651944 L149.809392,12.9651944 L149.809392,17.9168211 Z M146.972543,19.6723029 L147.549968,19.6723029 L147.549968,19.6986023 L159.233843,19.6986023 L159.233843,19.7032433 L162.070692,19.7032433 L162.070692,11.1416436 L146.972543,11.1416436 L146.972543,19.6723029 Z M160.643566,5.5476165 C160.049896,4.91256447 159.504185,4.3564105 159.007204,3.8799281 C158.509837,3.40344571 158.060814,2.99928653 157.660523,2.66783733 L156.651092,3.64284717 L156.00521,4.1734753 C156.00521,4.1734753 157.353052,5.44783366 158.740343,6.87147953 C158.358616,6.90241994 157.962192,6.93065307 157.54643,6.95656567 C156.876183,6.99794848 156.154885,7.03933128 155.381374,7.08110084 C153.778661,7.17585587 152.230093,7.23386915 150.732577,7.25630095 C152.0576,6.00746843 154.557586,3.49858748 155.326842,1.66923542 L154.697591,1.36253855 L153.060843,0.492339362 C152.439714,1.44569091 151.534707,2.56418694 150.346595,3.84898769 C149.172793,5.13340169 148.191982,6.06586846 147.404935,6.64600125 C147.197634,6.81153247 146.97293,6.95347163 146.731208,7.07065845 C146.489486,7.18823203 146.141019,7.25359366 145.685422,7.26751685 L145.975101,9.04929803 C148.461164,9.02183841 150.940651,8.95957082 153.413177,8.86288202 C155.672988,8.77470184 157.957164,8.64977991 160.263385,8.49198379 C160.961478,9.27206902 161.513765,9.9635873 161.679296,10.3588511 L162.327111,9.69401893 L163.378698,8.67607926 C162.784642,7.87549601 161.87306,6.83241725 160.643566,5.5476165 L160.643566,5.5476165 Z" id="Fill-10" fill-opacity="0.85" fill="#333333"></path>
                    <path d="M90.6144214,9.71219643 L94.8227046,9.71219643 L94.8227046,3.70395449 L90.6144214,3.70395449 L90.6144214,9.71219643 Z M101.730152,9.71219643 L97.6599407,9.71219643 L97.6599407,3.70395449 L100.834041,3.70395449 L100.834041,2.14997212 L83.79322,2.14997212 L83.79322,3.70395449 L87.777572,3.70395449 L87.777572,9.71219643 L82.8971082,9.71219643 L82.8971082,11.265792 L87.7172382,11.265792 L87.6982872,11.4108252 C87.5876752,12.9307732 87.3598764,14.1324215 87.014504,15.0161572 C86.5175236,16.2870347 85.8167232,16.9893822 83.9517897,18.5638625 L86.4328242,20.4113921 C88.3805234,18.6435341 89.1776258,17.2608843 89.785605,15.7827059 C90.213743,14.7465888 90.490273,13.289682 90.6144214,11.4108252 L90.6105538,11.265792 L94.8227046,11.265792 L94.8227046,20.1955827 L97.6599407,20.1955827 L97.6599407,11.265792 L101.730152,11.265792 L101.730152,9.71219643 Z" id="Fill-14" fill-opacity="0.85" fill="#333333"></path>
                    <path d="M118.262051,12.4177424 C117.447158,10.8707216 116.844206,8.82401312 116.512757,6.69685956 C116.623369,6.46209916 116.735915,6.06915588 116.832604,5.80693586 L119.439334,5.80693586 C119.221204,8.73041837 119.201479,10.6498844 118.262051,12.4177424 M114.788603,16.5912177 C114.123384,17.0711809 113.427998,17.5124686 112.639017,17.9707735 L112.639017,9.73482161 L114.532571,10.5307638 L115.00944,9.75377261 C115.202431,10.6518182 116.167385,12.8799148 116.951338,14.3925144 C116.352641,15.2824381 115.509514,16.0710319 114.788603,16.5912177 M121.021163,16.3398268 C120.282073,15.6281972 119.776584,14.9010975 119.527127,14.434284 L119.86167,13.876583 C120.993703,11.7908122 121.396315,9.14231265 121.651187,5.80693586 L122.650949,5.80693586 L122.650949,4.16980112 L117.412737,4.16980112 C117.578268,3.6728207 117.733743,3.16153033 117.878777,2.63670353 C118.02381,2.11226349 118.165362,1.58743669 118.303434,1.06222314 L116.10357,0.730773939 C115.965499,1.38013591 115.779083,2.08789791 115.544322,2.85405995 C115.309175,3.6209955 115.026457,4.43936949 114.694621,5.30956868 C114.501243,5.79339943 114.304772,6.25943943 114.104433,6.70807546 C113.903707,7.15709824 113.707235,7.58175544 113.513857,7.98204707 C113.513857,7.98204707 113.30733,8.35681285 113.284512,8.39935592 C113.16075,8.63334281 113.036988,8.86036811 112.913227,9.08043182 C112.817311,9.25099086 112.726811,9.410334 112.639017,9.56426257 L112.639017,8.58577193 L108.33946,8.58577193 C108.33946,8.53046593 108.35609,8.31040223 108.35609,8.24117305 L108.35609,7.00819749 C108.35609,6.61254693 108.36808,5.99760617 108.392445,5.55786551 L113.529328,5.55786551 L113.529328,4.00388314 L110.632145,4.00388314 C110.505676,3.51347756 110.368764,2.85135267 110.220637,2.35707953 C110.054719,1.80479311 109.895763,1.32831071 109.744155,0.927632332 L107.126595,1.17631592 C107.167978,1.28692791 107.219803,1.4424035 107.281684,1.64235593 C107.344339,1.84269512 107.412794,2.07049393 107.489372,2.32613911 C107.564789,2.5817843 107.64098,2.84748511 107.716784,3.12362832 C107.779051,3.34949336 107.838612,3.7289002 107.895852,4.00388314 L104.244496,4.00388314 L104.244496,5.55786551 L105.715712,5.55786551 L105.655379,7.97160468 C105.627532,8.96633904 105.596592,9.8609038 105.562171,10.6549122 C105.527363,11.4493074 105.468963,12.1706058 105.386197,12.8199678 C105.303431,13.4693298 105.199781,14.062999 105.075246,14.6013622 C104.951097,15.140499 104.795622,15.6583642 104.609206,16.1557313 C104.42279,16.6527118 104.198085,17.1469849 103.935865,17.6370037 C103.673258,18.1270226 103.369269,18.6417937 103.024283,19.1805437 L105.475924,20.0507429 C105.973678,19.2633093 106.390987,18.5412374 106.729785,17.8856873 C107.067809,17.2297505 107.340858,16.5424865 107.548159,15.8242821 C107.755073,15.1060777 107.913642,14.304721 108.024254,13.4205986 C108.134866,12.536863 108.217632,11.4663246 108.273325,10.2093702 L108.276032,10.1397543 L109.802168,10.1397543 L109.802168,18.3354836 L107.636726,18.3354836 L108.436535,19.889466 L112.639017,19.889466 L112.639017,18.0345881 L113.695246,20.0878714 C116.093901,18.9121356 116.935094,17.9676794 118.299179,16.5382322 C119.508563,18.2310597 121.385099,19.6017201 122.111812,20.0801363 L123.545514,18.2221643 C122.614594,17.6370037 121.759865,17.0510696 121.021163,16.3398268" id="Fill-15" fill-opacity="0.85" fill="#333333"></path>
                    <polygon id="Fill-1" fill="#DC0816" points="59.0648664 20.8511328 61.5938587 20.8511328 61.5938587 1.31496766 59.0648664 1.31496766"></polygon>
                    <path d="M44.7864061,12.8432118 L50.5304943,12.8432118 L47.6584502,6.15582772 L44.7864061,12.8432118 Z M56.7657615,20.8509781 L53.973389,20.8509781 L51.4819121,15.0620263 L43.7978599,15.0620263 L41.3311352,20.8509781 L38.5391495,20.8509781 L38.6636847,20.5717408 L47.6584502,0.494891946 L56.7657615,20.8509781 Z" id="Fill-2" fill="#DC0816"></path>
                    <polygon id="Fill-3" fill="#000000" points="33.4574183 0.297685473 26.158961 16.163157 18.80017 0.303873556 15.5897151 20.8510167 18.1755603 20.8510167 19.9399375 8.29500937 26.1102299 21.6581748 32.2917382 8.29462262 34.0565021 20.8510167 36.6168215 20.8510167"></polygon>
                </g>
            </g>
        </g>
    </g>
</svg>