<?xml version="1.0" encoding="utf-8"?>
<!-- Generator: Adobe Illustrator 25.0.0, SVG Export Plug-In . SVG Version: 6.00 Build 0)  -->
<svg version="1.1" id="图层_1" xmlns="http://www.w3.org/2000/svg" xmlns:xlink="http://www.w3.org/1999/xlink" x="0px" y="0px"
	 viewBox="0 0 80 80" style="enable-background:new 0 0 80 80;" xml:space="preserve">
<style type="text/css">
	.st0{fill:#FFC0C0;}
	.st1{fill:#D11A21;}
	.st2{fill:#FFFFFF;}
</style>
<circle class="st0" cx="40" cy="40" r="40"/>
<g>
	<g>
		<g>
			<g>
				<g>
					<path class="st1" d="M25.4,54c-0.4,0-0.7-0.2-1-0.5c-0.3-0.5-0.1-1.2,0.4-1.5l2-1.2c0.5-0.3,1.2-0.1,1.5,0.4
						c0.3,0.5,0.1,1.2-0.4,1.5l-2,1.2C25.8,54,25.6,54,25.4,54z"/>
				</g>
			</g>
			<g>
				<g>
					<path class="st1" d="M54.6,54c-0.2,0-0.4,0-0.5-0.1l-2-1.2c-0.5-0.3-0.7-1-0.4-1.5c0.3-0.5,1-0.7,1.5-0.4l2,1.2
						c0.5,0.3,0.7,1,0.4,1.5C55.4,53.8,55,54,54.6,54z"/>
				</g>
			</g>
		</g>
		<g>
			<g>
				<g>
					<path class="st1" d="M27.4,31.4c-0.2,0-0.4,0-0.5-0.1l-2-1.2c-0.5-0.3-0.7-1-0.4-1.5c0.3-0.5,1-0.7,1.5-0.4l2,1.2
						c0.5,0.3,0.7,1,0.4,1.5C28.2,31.2,27.8,31.4,27.4,31.4z"/>
				</g>
			</g>
			<g>
				<g>
					<path class="st1" d="M52.6,31.4c-0.4,0-0.7-0.2-1-0.5c-0.3-0.5-0.1-1.2,0.4-1.5l2-1.2c0.5-0.3,1.2-0.1,1.5,0.4
						c0.3,0.5,0.1,1.2-0.4,1.5l-2,1.2C52.9,31.3,52.7,31.4,52.6,31.4z"/>
				</g>
			</g>
		</g>
		<g>
			<g>
				<g>
					<path class="st1" d="M23.6,42.1h-2.4c-0.6,0-1.1-0.5-1.1-1.1s0.5-1.1,1.1-1.1h2.4c0.6,0,1.1,0.5,1.1,1.1S24.2,42.1,23.6,42.1z"
						/>
				</g>
			</g>
			<g>
				<g>
					<path class="st1" d="M58.8,42.1h-2.4c-0.6,0-1.1-0.5-1.1-1.1s0.5-1.1,1.1-1.1h2.4c0.6,0,1.1,0.5,1.1,1.1S59.4,42.1,58.8,42.1z"
						/>
				</g>
			</g>
		</g>
		<g>
			<g>
				<g>
					<path class="st1" d="M40,25.7c-0.6,0-1.1-0.5-1.1-1.1v-2.4c0-0.6,0.5-1.1,1.1-1.1c0.6,0,1.1,0.5,1.1,1.1v2.4
						C41.1,25.2,40.6,25.7,40,25.7z"/>
				</g>
			</g>
		</g>
		<g>
			<circle class="st2" cx="40" cy="41" r="13.2"/>
		</g>
		<g>
			<path class="st0" d="M39.5,44.3c-0.9,0-1.8-0.4-2.4-1c-0.6-0.7-0.9-1.5-0.9-2.4c0-0.9,0.4-1.7,1-2.4c2.1-2,7.6-4.9,9.3-5.5
				c0.3-0.1,0.7,0,1,0.2c0.3,0.3,0.3,0.6,0.2,1c-0.5,1.6-3.4,6.8-5.8,9.2C41.2,44,40.4,44.3,39.5,44.3z M46.4,34.3
				c-1.9,0.8-6.4,3.2-8.3,5c-0.4,0.4-0.7,0.9-0.7,1.5c0,0.6,0.2,1.1,0.6,1.6c0.4,0.4,0.9,0.7,1.5,0.7c0.6,0,1.1-0.2,1.6-0.6l0,0
				C43.1,40.5,45.6,36.2,46.4,34.3z"/>
		</g>
		<g>
			<g>
				<path class="st1" d="M22.2,41c0-9.8,8-17.8,17.8-17.8c9.8,0,17.8,8,17.8,17.8c0,4.7-1.8,9-4.8,12.2l1.9,1.2
					C58.1,50.8,60,46.1,60,41c0-11-9-20-20-20s-20,9-20,20c0,5.1,1.9,9.8,5.1,13.3l0.1,0.1l1.9-1.2l0,0C24,50,22.2,45.7,22.2,41z"/>
			</g>
		</g>
	</g>
	<g>
		<path class="st1" d="M51.4,56.8H29.1c-0.6,0-1.1,0.5-1.1,1.1c0,0.6,0.5,1.1,1.1,1.1h22.3c0.6,0,1.1-0.5,1.1-1.1
			C52.5,57.3,52,56.8,51.4,56.8z"/>
	</g>
</g>
</svg>
