<?xml version="1.0" encoding="utf-8"?>
<!-- Generator: Adobe Illustrator 25.0.0, SVG Export Plug-In . SVG Version: 6.00 Build 0)  -->
<svg version="1.1" id="图层_1" xmlns="http://www.w3.org/2000/svg" xmlns:xlink="http://www.w3.org/1999/xlink" x="0px" y="0px"
	 viewBox="0 0 80 80" style="enable-background:new 0 0 80 80;" xml:space="preserve">
<style type="text/css">
	.st0{fill:#FFC0C0;}
	.st1{fill:#D11A21;}
	.st2{fill:#FFFFFF;}
</style>
<circle class="st0" cx="40" cy="40" r="40"/>
<g>
	<g>
		<path class="st1" d="M40,24.2c8.7,0,15.8,7.1,15.8,15.8S48.7,55.8,40,55.8c-8.7,0-15.8-7.1-15.8-15.8S31.3,24.2,40,24.2 M40,21.9
			C30,21.9,21.9,30,21.9,40S30,58.1,40,58.1c10,0,18.1-8.1,18.1-18.1S50,21.9,40,21.9L40,21.9z"/>
	</g>
	<g>
		<g>
			<path class="st2" d="M40,51.6c-6.4,0-11.6-5.2-11.6-11.6c0-6.4,5.2-11.6,11.6-11.6c6.4,0,11.6,5.2,11.6,11.6
				C51.6,46.4,46.4,51.6,40,51.6z"/>
		</g>
		<g>
			<path class="st1" d="M40,29.5c5.8,0,10.5,4.7,10.5,10.5S45.8,50.5,40,50.5c-5.8,0-10.5-4.7-10.5-10.5S34.2,29.5,40,29.5 M40,27.2
				c-7.1,0-12.8,5.7-12.8,12.8c0,7.1,5.7,12.8,12.8,12.8c7.1,0,12.8-5.7,12.8-12.8C52.8,32.9,47.1,27.2,40,27.2L40,27.2z"/>
		</g>
	</g>
	<g>
		<path class="st0" d="M40,38.4c0.9,0,1.6,0.7,1.6,1.6s-0.7,1.6-1.6,1.6c-0.9,0-1.6-0.7-1.6-1.6S39.1,38.4,40,38.4 M40,37.1
			c-1.6,0-2.9,1.3-2.9,2.9c0,1.6,1.3,2.9,2.9,2.9c1.6,0,2.9-1.3,2.9-2.9C42.9,38.4,41.6,37.1,40,37.1L40,37.1z"/>
	</g>
	<g>
		<g>
			<g>
				<path class="st1" d="M31.7,41.2H20c-0.6,0-1.2-0.5-1.2-1.2s0.5-1.2,1.2-1.2h11.7c0.6,0,1.2,0.5,1.2,1.2S32.4,41.2,31.7,41.2z"/>
			</g>
		</g>
		<g>
			<g>
				<path class="st1" d="M60,41.2H48.3c-0.6,0-1.2-0.5-1.2-1.2s0.5-1.2,1.2-1.2H60c0.6,0,1.2,0.5,1.2,1.2S60.6,41.2,60,41.2z"/>
			</g>
		</g>
	</g>
	<g>
		<g>
			<g>
				<path class="st1" d="M40,32.9c-0.6,0-1.2-0.5-1.2-1.2V20c0-0.6,0.5-1.2,1.2-1.2s1.2,0.5,1.2,1.2v11.7
					C41.2,32.4,40.6,32.9,40,32.9z"/>
			</g>
		</g>
		<g>
			<g>
				<path class="st1" d="M40,61.2c-0.6,0-1.2-0.5-1.2-1.2V48.3c0-0.6,0.5-1.2,1.2-1.2s1.2,0.5,1.2,1.2V60
					C41.2,60.6,40.6,61.2,40,61.2z"/>
			</g>
		</g>
	</g>
</g>
</svg>
