<?xml version="1.0" encoding="utf-8"?>
<!-- Generator: Adobe Illustrator 25.0.0, SVG Export Plug-In . SVG Version: 6.00 Build 0)  -->
<svg version="1.1" id="图层_1" xmlns="http://www.w3.org/2000/svg" xmlns:xlink="http://www.w3.org/1999/xlink" x="0px" y="0px"
	 viewBox="0 0 80 80" style="enable-background:new 0 0 80 80;" xml:space="preserve">
<style type="text/css">
	.st0{fill:#FFC0C0;}
	.st1{fill:#D11A21;}
	.st2{fill:#FFFFFF;}
</style>
<circle class="st0" cx="40" cy="40" r="40"/>
<g>
	<g>
		<g>
			<path class="st1" d="M40,28.5l5.8,10.6l1,1.8l1.8-0.8l5.4-2.5l-4.6,14.9H40h-9.3l-4.6-14.9l5.4,2.5l1.8,0.8l1-1.8L40,28.5
				 M40,25.6c-0.5,0-1,0.2-1.3,0.7L32.4,38l-6.8-3.2c-0.2-0.1-0.5-0.2-0.7-0.2c-0.9,0-1.6,0.8-1.4,1.7l5.3,17
				c0.2,0.7,0.8,1.1,1.5,1.1H40h9.7c0.7,0,1.3-0.4,1.5-1.1l5.3-17c0.3-0.9-0.5-1.7-1.4-1.7c-0.2,0-0.5,0.1-0.7,0.2L47.6,38
				l-6.4-11.7C41,25.8,40.5,25.6,40,25.6L40,25.6z"/>
		</g>
		<g>
			<path class="st1" d="M23.5,32.2c0.7,0,1.3,0.6,1.3,1.3s-0.6,1.3-1.3,1.3c-0.7,0-1.3-0.6-1.3-1.3S22.7,32.2,23.5,32.2 M23.5,30
				c-1.9,0-3.5,1.6-3.5,3.5c0,1.9,1.6,3.5,3.5,3.5c1.9,0,3.5-1.6,3.5-3.5C26.9,31.6,25.4,30,23.5,30L23.5,30z"/>
		</g>
		<g>
			<path class="st1" d="M40,22.7c0.7,0,1.3,0.6,1.3,1.3c0,0.7-0.6,1.3-1.3,1.3c-0.7,0-1.3-0.6-1.3-1.3C38.7,23.3,39.3,22.7,40,22.7
				 M40,20.5c-1.9,0-3.5,1.6-3.5,3.5c0,1.9,1.6,3.5,3.5,3.5c1.9,0,3.5-1.6,3.5-3.5C43.5,22.1,41.9,20.5,40,20.5L40,20.5z"/>
		</g>
		<g>
			<path class="st1" d="M56.5,32.2c0.7,0,1.3,0.6,1.3,1.3c0,0.7-0.6,1.3-1.3,1.3s-1.3-0.6-1.3-1.3C55.2,32.8,55.8,32.2,56.5,32.2
				 M56.5,30.1c-1.9,0-3.5,1.6-3.5,3.5c0,1.9,1.6,3.5,3.5,3.5c1.9,0,3.5-1.6,3.5-3.5C60,31.6,58.4,30.1,56.5,30.1L56.5,30.1z"/>
		</g>
		<path class="st1" d="M49.3,57.3H30.7c-0.6,0-1.1,0.5-1.1,1.1c0,0.6,0.5,1.1,1.1,1.1h18.5c0.6,0,1.1-0.5,1.1-1.1
			C50.4,57.8,49.9,57.3,49.3,57.3z"/>
	</g>
	<path class="st2" d="M41,40.1c-0.1-0.2-0.2-0.3-0.4-0.4c-0.3-0.2-0.8-0.1-1.1,0.1l-1.6,1.1c-0.3,0.2-0.4,0.5-0.4,0.9
		c0,0.2,0.1,0.4,0.2,0.6c0.3,0.4,0.9,0.6,1.4,0.3v6.1c0,0.3,0.1,0.5,0.3,0.7c0.2,0.2,0.5,0.3,0.7,0.3c0.3,0,0.5-0.1,0.7-0.3
		c0.2-0.2,0.3-0.5,0.3-0.8v-8.2C41.1,40.4,41.1,40.2,41,40.1z"/>
</g>
</svg>
