<?xml version="1.0" encoding="utf-8"?>
<!-- Generator: Adobe Illustrator 25.0.0, SVG Export Plug-In . SVG Version: 6.00 Build 0)  -->
<svg version="1.1" id="图层_1" xmlns="http://www.w3.org/2000/svg" xmlns:xlink="http://www.w3.org/1999/xlink" x="0px" y="0px"
	 viewBox="0 0 80 80" style="enable-background:new 0 0 80 80;" xml:space="preserve">
<style type="text/css">
	.st0{fill:#FFC0C0;}
	.st1{fill:#D11A21;}
	.st2{fill:#FFFFFF;}
</style>
<circle class="st0" cx="40" cy="40" r="40"/>
<g>
	<g>
		<g>
			<path class="st1" d="M42.3,60H21.1c-0.6,0-1.1-0.5-1.1-1.1V30.3c0-0.3,0.1-0.6,0.3-0.8l9.2-9.2c0.2-0.2,0.5-0.3,0.8-0.3h24.9
				c0.6,0,1.1,0.5,1.1,1.1v15.5c0,0.6-0.5,1.1-1.1,1.1S54,37.2,54,36.6V22.2H30.7l-8.5,8.5v27h20.1c0.6,0,1.1,0.5,1.1,1.1
				S42.9,60,42.3,60z"/>
		</g>
		<g>
			<path class="st1" d="M30.3,31.4C30.3,31.4,30.3,31.4,30.3,31.4l-9.2,0c-0.5,0-0.9-0.3-1-0.7c-0.2-0.4-0.1-0.9,0.2-1.2l9.2-9.2
				c0.3-0.3,0.8-0.4,1.2-0.2c0.4,0.2,0.7,0.6,0.7,1v9.2c0,0.3-0.1,0.6-0.3,0.8C30.9,31.3,30.6,31.4,30.3,31.4z M23.8,29.2l5.4,0
				v-5.4L23.8,29.2z"/>
		</g>
	</g>
	<g>
		<g>
			<circle class="st2" cx="53" cy="44.4" r="3.9"/>
			<path class="st1" d="M53,49.3c-2.7,0-5-2.2-5-5s2.2-5,5-5s5,2.2,5,5S55.7,49.3,53,49.3z M53,41.6c-1.5,0-2.8,1.2-2.8,2.8
				s1.2,2.8,2.8,2.8c1.5,0,2.8-1.2,2.8-2.8S54.5,41.6,53,41.6z"/>
		</g>
		<g>
			<g>
				<polygon class="st2" points="50.1,54.4 51.8,48.7 52,48.1 52.6,48.2 53.3,48.2 54.1,48.1 54.2,48.7 55.9,54.4 				"/>
				<path class="st1" d="M55.9,55.5h-5.8c-0.3,0-0.7-0.2-0.9-0.4c-0.2-0.3-0.3-0.6-0.2-1l1.9-6.3c0.2-0.5,0.7-0.9,1.3-0.7l0.5,0.1
					h0.5l0.7-0.1c0.3-0.1,0.6,0,0.9,0.2c0.2,0.2,0.4,0.4,0.5,0.7l0.1,0.6l1.7,5.6c0.1,0.3,0,0.7-0.2,1
					C56.6,55.4,56.3,55.5,55.9,55.5z M51.6,53.3h2.9l-1.2-4h-0.5L51.6,53.3z"/>
			</g>
		</g>
		<g>
			<rect x="47.1" y="54.4" class="st2" width="11.8" height="4.5"/>
			<path class="st1" d="M58.9,60H47.1c-0.6,0-1.1-0.5-1.1-1.1v-4.5c0-0.6,0.5-1.1,1.1-1.1h11.8c0.6,0,1.1,0.5,1.1,1.1v4.5
				C60,59.5,59.5,60,58.9,60z M48.2,57.8h9.6v-2.3h-9.6V57.8z"/>
		</g>
	</g>
	<g>
		<g>
			<path class="st2" d="M49.2,30.3H36.5c-0.4,0-0.8-0.4-0.8-0.8c0-0.4,0.4-0.8,0.8-0.8h12.7c0.4,0,0.8,0.4,0.8,0.8
				C50,30,49.6,30.3,49.2,30.3z"/>
		</g>
		<g>
			<path class="st2" d="M42.4,43.4H27.3c-0.4,0-0.8-0.4-0.8-0.8c0-0.4,0.4-0.8,0.8-0.8h15.1c0.4,0,0.8,0.4,0.8,0.8
				C43.2,43,42.8,43.4,42.4,43.4z"/>
		</g>
		<g>
			<path class="st2" d="M42.4,49.9H27.3c-0.4,0-0.8-0.4-0.8-0.8c0-0.4,0.4-0.8,0.8-0.8h15.1c0.4,0,0.8,0.4,0.8,0.8
				C43.2,49.6,42.8,49.9,42.4,49.9z"/>
		</g>
		<g>
			<path class="st2" d="M49,36.9H27.3c-0.4,0-0.8-0.4-0.8-0.8c0-0.4,0.4-0.8,0.8-0.8H49c0.4,0,0.8,0.4,0.8,0.8
				C49.8,36.5,49.4,36.9,49,36.9z"/>
		</g>
	</g>
</g>
</svg>
