<?xml version="1.0" encoding="utf-8"?>
<!-- Generator: Adobe Illustrator 25.0.0, SVG Export Plug-In . SVG Version: 6.00 Build 0)  -->
<svg version="1.1" id="图层_1" xmlns="http://www.w3.org/2000/svg" xmlns:xlink="http://www.w3.org/1999/xlink" x="0px" y="0px"
	 viewBox="0 0 48 48" style="enable-background:new 0 0 48 48;" xml:space="preserve">
<style type="text/css">
	.st0{fill:#FFC0C0;}
	.st1{fill:#DC0816;stroke:#DC0816;stroke-width:1.0116;stroke-miterlimit:10;}
	.st2{fill:#DC0816;}
</style>
<g>
	<g>
		<g>
			<path class="st0" d="M34.4,19.2c0.2,0,0.3,0.2,0.5,0.2c0,0,0,0,0,0c0,0,0.1,0,0.1,0l0,0c0,0,0,0,0.1,0c0.1-0.1,0.1,0,0.2,0.1
				c0,0,0,0,0,0.1c0.1,0.1,0.2,0.2,0.3,0.2c0,0,0,0,0,0c0.4,0,0.8,0.1,1.1,0.4c0.1,0.1,0.2,0.1,0.3,0c0.2,0,0.4,0.1,0.6,0.1
				c0.2,0,0.3,0,0.4-0.1c0,0,0.1,0,0.1-0.1c0.2-0.1,0.5-0.2,0.6-0.4c0.1-0.1,0.3-0.1,0.3-0.3c0-0.1-0.1-0.1-0.1-0.2
				c0.1-0.1,0-0.1,0-0.2l0,0c0-0.1,0-0.1,0-0.2c0.3-0.2,0.4-0.3,0.1-0.5c0.1-0.1-0.1-0.2,0-0.3c0-0.1,0.1-0.2,0-0.3
				c-0.1-0.1,0.1-0.3-0.1-0.5c-0.1-0.1,0-0.3-0.2-0.3c0-0.1-0.1-0.2-0.1-0.3c0-0.1,0-0.3-0.1-0.4c0-0.1-0.1-0.2-0.1-0.2
				c0-0.1,0-0.3-0.2-0.3c0-0.2-0.1-0.3-0.2-0.4c0-0.1-0.1-0.1-0.2-0.1c-0.1-0.1-0.2-0.1-0.3-0.2c-0.1,0-0.1-0.1-0.2-0.1
				c0-0.1,0-0.2,0-0.2c0-0.1,0-0.2-0.1-0.3c-0.1-0.1-0.1-0.3-0.1-0.5c0-0.1,0-0.2,0-0.3c0-0.1,0-0.2-0.1-0.3
				c-0.3-0.1-0.5-0.1-0.6,0.2c-0.1,0-0.2,0.1-0.2,0.2c-0.1,0-0.1-0.2-0.3-0.1c0-0.1-0.1-0.1-0.1-0.2c0-0.2-0.1-0.2-0.3-0.2
				c0,0-0.1,0-0.1,0c0,0,0,0-0.1,0c-0.3-0.1-0.3,0.2-0.5,0.3c0,0,0,0-0.1,0c-0.1,0.1-0.3,0.1-0.4,0.2c-0.1,0.1-0.2,0.2-0.3,0.2
				c-0.4,0-0.4,0-0.2,0.3c0,0,0,0,0,0.1c0,0,0,0,0,0.1c0,0,0,0-0.1,0c-0.1,0-0.2,0-0.2,0.1c-0.1,0-0.1,0-0.2,0.1c-0.1,0-0.1,0-0.2,0
				c-0.3,0-0.5,0-0.7,0.1c-0.4,0-0.8,0-1.2,0.1c0,0-0.1,0-0.1,0c-0.2,0-0.4,0-0.5,0.1c-0.2,0-0.3,0.1-0.5,0.1c-0.1,0-0.2,0-0.4,0.1
				c-0.2,0-0.3,0-0.4,0.1c-0.2,0-0.4,0-0.6,0.1c-0.1-0.1-0.1,0.1-0.2,0c-0.2-0.1-0.4,0-0.6,0.1c-0.2,0-0.4,0-0.6,0.1
				c-0.1,0-0.2,0-0.3,0.1c0,0,0,0-0.1,0c-0.1,0-0.1,0-0.2,0c-0.1,0-0.2,0-0.3,0.1c-0.1,0-0.3-0.1-0.4,0.1c-0.1,0.1-0.2,0-0.4,0.1
				c-0.2,0-0.3,0.1-0.5,0.1c-0.1,0-0.2,0-0.3,0.1c0,0,0,0,0,0c-0.1,0-0.3-0.1-0.3,0.1c-0.1,0-0.1,0-0.2,0c-0.1,0.1-0.2,0-0.2,0.1
				l0,0l0,0c-0.1,0.1-0.2,0-0.3,0.1c-0.1,0-0.2,0-0.3,0.1c0,0,0,0-0.1,0l-0.2,0.1c-0.2-0.1-0.3,0-0.5,0c-0.1,0-0.2,0.1-0.3,0.1
				c-0.1,0-0.2,0-0.2,0l0,0l0,0c-0.2-0.1-0.4-0.1-0.5,0c-0.2,0-0.2-0.1-0.4-0.2c0,0,0-0.1,0-0.1c0,0,0,0,0.1,0
				c0.1,0,0.2-0.1,0.2-0.1c0.3,0,0.2-0.2,0.2-0.4c0,0,0.1-0.1,0-0.1c-0.1,0.1-0.2-0.2-0.3,0c-0.2,0.1-0.4,0.1-0.5,0.2
				c-0.1,0-0.1,0-0.2,0c-0.7,0-0.6,0.1-0.5-0.6c0.1-0.1,0.2-0.1,0.2-0.3l0.2-0.2c0.1,0,0.1-0.1,0.2-0.2c0.4-0.3,0.7-0.7,1.1-1
				c0.1,0,0.2,0,0.3-0.1l0.3-0.2c0.1,0,0.2,0,0.2,0c0,0,0.1,0,0.1-0.1c0.2-0.1,0.3-0.2,0.5-0.3c0.2,0.1,0.4-0.1,0.6-0.1l0.1,0
				l0.6-0.1c0.1,0,0.2,0,0.2,0c0,0,0,0,0,0l0,0c0.1,0,0.2,0,0.1,0.2c-0.1,0.1,0,0.2,0.1,0.2c0.2,0.2,0.4,0,0.6-0.1
				c0.1-0.1,0.3,0,0.4,0.1l0.1,0.1c0,0.1,0.1,0.1,0.1,0.2c0.1,0.1,0.2,0.2,0.4,0.1c0.1,0,0.2,0,0.2,0.1c0,0.2,0.2,0.2,0.3,0.4
				c0.2,0.2,0.3,0.3,0.6,0.3c0.5,0.1,1-0.2,1.4-0.4c0.2-0.1,0.3-0.2,0.4-0.3c0.1-0.1,0.1-0.2,0.2-0.4c0,0,0,0,0,0
				c0.1-0.2,0.1-0.4,0.1-0.6c0,0,0,0,0,0l0,0c0,0,0,0,0,0c0-0.2-0.1-0.5-0.1-0.7c0-0.1,0-0.2,0-0.3c0-0.1,0-0.2-0.1-0.3
				c0-0.1,0-0.2-0.1-0.2l-0.1-0.1c-0.1-0.2-0.2-0.4-0.4-0.6c0-0.1-0.1-0.2-0.1-0.2c0-0.1,0-0.2-0.1-0.2c-0.1-0.2-0.2-0.4-0.4-0.6
				c0-0.2-0.2-0.2-0.2-0.3c-0.1-0.2-0.3-0.2-0.4-0.3c-0.1-0.2-0.2-0.3-0.2-0.5c-0.1-0.2-0.2-0.4-0.3-0.5c0,0,0-0.1,0-0.1
				c0,0,0,0,0,0c0,0,0,0,0,0c-0.1-0.1-0.2-0.2-0.4-0.1c0,0,0,0-0.1,0c-0.2-0.1-0.4-0.1-0.6-0.1c0-0.1-0.1-0.1-0.2-0.1l0-0.1
				c0,0-0.1-0.1-0.1-0.1C25.7,7.1,25.6,7,25.5,7c-0.3-0.2-0.7-0.4-1-0.6c-0.1,0-0.1-0.1-0.2-0.1c-0.1,0-0.2-0.2-0.4,0
				c-0.1,0-0.2,0-0.2,0c0,0.1,0.1,0.1,0.2,0.1l0,0c0,0.1,0.1,0.3,0.1,0.4c0,0.1,0.1,0.1,0.1,0.1c0.1,0.1,0.1,0.2,0.2,0.3
				c-0.1,0.2,0.2,0.2,0.2,0.3c-0.1,0.3,0.1,0.4,0.2,0.6c0.1,0.3,0.3,0.6,0.5,0.9c0,0.1,0,0.2,0.1,0.3c0,0.1,0.1,0.2,0.1,0.3
				c0,0,0,0.1,0,0.1c0.1,0.2,0.1,0.4-0.1,0.6c-0.1,0.1-0.3,0.2-0.4,0.4c-0.2,0.2-0.5,0.4-0.7,0.6c-0.1,0.1-0.2,0.2-0.3,0.3
				c-0.2,0.1-0.4,0.3-0.6,0.5c0,0-0.1,0.1-0.1,0.1c-0.1,0.1-0.2,0.2-0.3,0.3c-0.1,0-0.1,0-0.1,0.1c-0.1,0.1-0.2,0.2-0.2,0.3
				c0,0,0,0-0.1,0c-0.1,0.1-0.2,0.2-0.3,0.3c-0.1,0-0.2,0.1-0.2,0.2c-0.1,0.1-0.2,0.1-0.2,0.2c-0.1,0-0.1,0.1-0.2,0.2
				c-0.3,0.2-0.5,0.5-0.8,0.8c-0.1,0.1-0.1,0.1-0.2,0.2c-0.1,0.1-0.2,0.3-0.3,0.4c0,0,0,0,0,0c-0.1,0.1-0.2,0.1-0.3,0.2
				c-0.1,0-0.1,0.1-0.1,0.2c-0.2,0.1-0.4,0.1-0.5,0.3c-0.1,0.1-0.2,0.1-0.2,0.2c-0.1,0.1-0.1-0.1-0.2,0c0,0.1,0,0.2-0.1,0.4
				c-0.1,0.2-0.3,0.4-0.3,0.6c-0.1,0.1-0.1,0.2-0.2,0.2c-0.1,0.1-0.2,0.2-0.2,0.3c-0.2,0.1-0.5-0.1-0.7,0c-0.2,0.1,0,0.3-0.1,0.4
				c-0.1,0.1-0.3,0.1-0.3,0.3c-0.3,0-0.1,0.2-0.1,0.3c-0.2,0.1-0.1,0.3-0.2,0.4c-0.1,0.1-0.4-0.1-0.4,0.2l0,0l0,0
				c-0.1,0.1-0.1,0.2-0.1,0.3c-0.2,0.1,0,0.2-0.1,0.3C16.1,20,16,20.2,16,20.3c-0.3,0.3-0.4,0.7-0.6,1c-0.1,0.1-0.1,0.2-0.2,0.4
				c-0.1,0.2,0,0.3,0.1,0.4c0.2,0.1,0.2,0.1,0.1,0.3c0,0.1-0.1,0.1,0,0.2c0,0.1,0,0.1,0,0.2c0,0.2-0.1,0.3,0,0.5l0,0.1
				c0.1,0.1-0.2,0.3,0,0.4c0.1,0.2,0.2,0.1,0.3,0.1c0,0,0,0,0.1,0c0,0.1,0.1,0.2,0.1,0.2c0,0,0.1,0.1,0.1,0c0.2-0.3,0.2,0,0.2,0.1
				c0,0.1,0,0.1,0.1,0.2c0,0,0.1,0.1,0.1,0.1c0,0,0.1,0.1,0.1,0.1l0.1,0c0.1-0.1,0.2,0,0.3,0c0.1,0,0.2,0,0.2-0.1
				c0.1-0.1,0.2,0,0.3,0c0.1,0.2,0.2,0.1,0.3,0c0.1-0.1,0.2-0.2,0.3-0.2c0.3,0.2,0.2-0.4,0.5-0.2c0,0,0-0.1,0-0.1c0,0,0,0,0,0l0,0
				l0,0c0,0,0,0,0,0c0-0.1,0-0.2,0.1-0.2c0.2,0,0.2-0.2,0.2-0.4c0,0,0,0,0,0c0-0.1,0-0.2,0.1-0.3c0.2-0.3,0.2-0.6,0.1-0.9
				c0-0.1,0-0.2,0-0.3c0-0.1,0-0.2,0-0.3c0-0.1,0-0.2,0-0.3c0-0.1,0.1-0.3,0-0.4c0,0,0-0.1,0-0.1c0-0.1,0-0.1,0-0.2c0,0,0,0,0-0.1
				c0-0.1,0-0.3,0-0.4l0-0.1l0,0c0,0,0,0,0,0c0,0,0,0,0,0c0.1-0.1,0.1-0.1,0.2-0.2c0.3-0.3,0.7-0.5,0.6-1c0,0,0,0,0,0
				c0.1,0,0.1-0.1,0.2-0.2l0,0l0,0c0.3-0.2,0.6-0.3,0.5-0.7c0,0,0.1,0,0.1-0.1c0.2-0.1,0.2,0.1,0.3,0.1c0,0.1-0.2,0.2-0.1,0.3
				l0.1,0.2c0,0,0,0.1,0,0.1c-0.1,0-0.1,0.1-0.1,0.1c0,0.1,0.1,0.1,0.1,0.2c0,0.2,0.2,0.4,0.2,0.6c0,0.1,0,0.2,0.1,0.2l0,0l0,0
				c0,0,0,0,0,0c0.2,0.1,0.4,0.1,0.5-0.1c0,0,0,0,0,0l0,0l0,0c0.1-0.1,0.2-0.1,0.2-0.2c0,0,0,0,0-0.1c0.1-0.1,0.3-0.2,0.4-0.3
				c0.2-0.1,0.3-0.1,0.5-0.3c0,0,0,0,0,0l0,0l0,0c0.1,0.1,0.1,0,0.2-0.1c0-0.1,0.1-0.2,0.2-0.2c0.3-0.1,0.5-0.3,0.7-0.4
				c0,0,0.1,0,0.1,0c0.1,0,0.1,0,0.1-0.1l0.1-0.1c0.3,0.1,0.4-0.1,0.7-0.2c0.7-0.2,1.5-0.3,2.2-0.5c0.1,0,0.2-0.1,0.3-0.1
				c0.3,0,0.5,0.1,0.8-0.1c0.2-0.1,0.5,0,0.7-0.1c0.1,0,0.2,0,0.2,0c0.2,0,0.4,0,0.6-0.1c0,0,0.1,0,0.1,0c0.1,0,0.3,0.1,0.4,0
				c0.1,0,0.1,0,0.2,0c0.4-0.1,0.7-0.1,1.1,0c0.2,0,0.3,0,0.5-0.1c0.1-0.1,0.2-0.1,0.4,0c0,0-0.1,0.5,0.3,0.6
				c0.4,0.1,0.7,0.5,0.7,0.7C33.8,18.1,34.2,19.1,34.4,19.2z M25.5,7.5C25.5,7.5,25.5,7.5,25.5,7.5C25.5,7.5,25.5,7.5,25.5,7.5
				L25.5,7.5z M27.4,10.8C27.4,10.8,27.4,10.8,27.4,10.8C27.4,10.8,27.4,10.8,27.4,10.8C27.4,10.8,27.4,10.8,27.4,10.8z M28.5,11.9
				L28.5,11.9C28.5,11.9,28.5,11.9,28.5,11.9C28.5,11.9,28.5,11.9,28.5,11.9z M26.7,10 M26.9,8.4L26.9,8.4L26.9,8.4z M26.3,8
				C26.4,8,26.4,8,26.3,8C26.4,8,26.4,8,26.3,8L26.3,8z M23.1,13.1C23.1,13.1,23.1,13.1,23.1,13.1C23.1,13.1,23.1,13.1,23.1,13.1z
				 M26.3,13.1L26.3,13.1L26.3,13.1C26.3,13.1,26.3,13.1,26.3,13.1z M27,13.6C27,13.6,27,13.6,27,13.6C27,13.6,27,13.6,27,13.6
				L27,13.6z M27.4,14.2C27.4,14.2,27.4,14.2,27.4,14.2C27.4,14.2,27.4,14.2,27.4,14.2C27.4,14.2,27.4,14.2,27.4,14.2z M29.6,11.7
				C29.6,11.7,29.6,11.7,29.6,11.7L29.6,11.7C29.6,11.7,29.6,11.7,29.6,11.7C29.6,11.7,29.6,11.7,29.6,11.7z M36.9,15.1
				c0,0,0,0.1,0,0.1C36.9,15.2,36.9,15.1,36.9,15.1L36.9,15.1z M36.1,18.8c0,0-0.1-0.1-0.1-0.1c0,0,0.1,0,0.1,0
				C36.1,18.7,36.1,18.8,36.1,18.8L36.1,18.8z M35.6,14.3C35.6,14.3,35.6,14.3,35.6,14.3C35.6,14.3,35.6,14.3,35.6,14.3
				C35.6,14.3,35.6,14.3,35.6,14.3z M38,18.5C38,18.5,38,18.5,38,18.5C38,18.5,38,18.5,38,18.5C38,18.5,38,18.5,38,18.5
				C38,18.5,38,18.5,38,18.5C38,18.5,38,18.5,38,18.5z M37.1,18.6L37.1,18.6C37.1,18.6,37.1,18.6,37.1,18.6
				C37.1,18.6,37.1,18.6,37.1,18.6z M37.4,17.4C37.4,17.4,37.4,17.4,37.4,17.4C37.4,17.4,37.4,17.4,37.4,17.4
				C37.4,17.4,37.4,17.4,37.4,17.4z M35.4,16C35.4,16,35.4,16.1,35.4,16C35.4,16.1,35.4,16,35.4,16z M33.6,16.6
				C33.6,16.6,33.6,16.6,33.6,16.6C33.6,16.6,33.6,16.6,33.6,16.6z M33.6,17.8L33.6,17.8L33.6,17.8C33.6,17.8,33.6,17.8,33.6,17.8z
				 M34.7,18L34.7,18L34.7,18C34.7,18,34.7,18,34.7,18z M36.3,18.4C36.3,18.4,36.3,18.4,36.3,18.4L36.3,18.4
				C36.3,18.4,36.3,18.4,36.3,18.4z M37.8,16C37.8,16,37.8,16,37.8,16C37.8,16,37.8,16,37.8,16C37.8,16,37.8,16,37.8,16z M34,15.6
				L34,15.6C34,15.6,34,15.6,34,15.6C34,15.6,34,15.6,34,15.6z M35.9,19.4L35.9,19.4C35.9,19.4,35.9,19.4,35.9,19.4
				C35.9,19.4,35.9,19.4,35.9,19.4z M36.5,19.5C36.6,19.6,36.6,19.6,36.5,19.5C36.6,19.6,36.6,19.6,36.5,19.5z M32.9,15.3
				C32.9,15.3,32.9,15.3,32.9,15.3C32.9,15.3,32.9,15.3,32.9,15.3C32.9,15.3,32.9,15.3,32.9,15.3z M32.9,15.3 M29.1,16
				C29.1,16,29.1,16,29.1,16C29.1,16,29.1,16,29.1,16C29.1,16,29.1,16,29.1,16z M29.9,16.5C29.9,16.5,29.9,16.5,29.9,16.5
				C29.9,16.5,29.9,16.5,29.9,16.5z M20,18.5L20,18.5L20,18.5C20,18.5,20,18.5,20,18.5z M27.1,16.4L27.1,16.4
				C27.1,16.4,27.1,16.4,27.1,16.4C27.1,16.4,27.1,16.4,27.1,16.4z M21.8,17.8C21.8,17.8,21.9,17.8,21.8,17.8
				C21.8,17.9,21.8,17.9,21.8,17.8C21.8,17.9,21.8,17.9,21.8,17.8z M21.9,18.7L21.9,18.7C21.9,18.7,21.9,18.7,21.9,18.7L21.9,18.7z
				 M22.1,17.3C22.1,17.2,22.1,17.2,22.1,17.3C22.1,17.2,22.1,17.2,22.1,17.3C22.1,17.2,22.1,17.3,22.1,17.3z M20.5,17.1
				C20.5,17.1,20.5,17.1,20.5,17.1L20.5,17.1L20.5,17.1z M18.1,19.5L18.1,19.5L18.1,19.5C18.1,19.5,18.1,19.5,18.1,19.5z M17.7,22.4
				C17.7,22.4,17.7,22.4,17.7,22.4C17.7,22.4,17.7,22.4,17.7,22.4C17.7,22.4,17.7,22.4,17.7,22.4C17.7,22.5,17.7,22.5,17.7,22.4
				C17.7,22.4,17.7,22.4,17.7,22.4C17.7,22.4,17.7,22.4,17.7,22.4z M18.5,18.5L18.5,18.5C18.5,18.5,18.5,18.5,18.5,18.5L18.5,18.5z
				 M17,19.3L17,19.3C17,19.3,17,19.3,17,19.3C17,19.3,17,19.3,17,19.3z M15.9,21.2L15.9,21.2L15.9,21.2
				C15.9,21.2,15.9,21.2,15.9,21.2z M15.9,23.4C15.9,23.3,15.9,23.3,15.9,23.4C15.9,23.3,15.9,23.4,15.9,23.4
				C15.9,23.4,15.9,23.4,15.9,23.4z M16.2,23.5C16.2,23.5,16.2,23.5,16.2,23.5C16.2,23.5,16.2,23.5,16.2,23.5
				C16.2,23.5,16.2,23.5,16.2,23.5z M16.1,23.7L16.1,23.7C16.1,23.7,16.1,23.7,16.1,23.7C16.1,23.7,16.1,23.7,16.1,23.7z M19.5,19.2
				L19.5,19.2L19.5,19.2z M23.5,17.7C23.5,17.7,23.5,17.7,23.5,17.7C23.5,17.7,23.5,17.7,23.5,17.7z M26.4,16.9
				C26.4,16.9,26.4,16.9,26.4,16.9C26.4,16.9,26.4,16.9,26.4,16.9C26.4,16.9,26.4,16.9,26.4,16.9z M20.4,15.5L20.4,15.5L20.4,15.5
				C20.4,15.5,20.4,15.5,20.4,15.5z M19.5,19.2C19.5,19.2,19.5,19.2,19.5,19.2C19.5,19.2,19.5,19.2,19.5,19.2
				C19.5,19.2,19.5,19.2,19.5,19.2L19.5,19.2z M20.1,18.5C20.1,18.5,20.1,18.5,20.1,18.5C20.1,18.5,20.1,18.5,20.1,18.5z"/>
		</g>
		<g>
			<path class="st0" d="M31.5,39.8c0-0.1,0.1-0.1,0.1-0.1l0-0.1C31.5,39.6,31.5,39.7,31.5,39.8z"/>
			<path class="st0" d="M30,41.2C30,41.2,30,41.3,30,41.2C30,41.3,30.1,41.3,30,41.2C30.1,41.2,30,41.2,30,41.2
				C30,41.2,30,41.2,30,41.2z"/>
			<path class="st0" d="M27.7,22.8C27.7,22.8,27.7,22.8,27.7,22.8C27.7,22.8,27.7,22.8,27.7,22.8z"/>
			<path class="st0" d="M26.6,20.9C26.6,20.9,26.6,20.9,26.6,20.9c0.1,0,0.1,0,0.1,0c-0.1,0-0.2,0-0.3,0.1c0,0,0,0,0,0
				C26.5,20.9,26.5,20.9,26.6,20.9z"/>
			<path class="st0" d="M26.8,20.8C26.8,20.8,26.8,20.8,26.8,20.8C26.8,20.8,26.8,20.8,26.8,20.8c0.1,0,0.1,0,0.1,0
				C26.9,20.8,26.8,20.8,26.8,20.8z"/>
			<path class="st0" d="M26.7,20.8C26.7,20.8,26.7,20.8,26.7,20.8C26.7,20.8,26.7,20.8,26.7,20.8C26.7,20.8,26.7,20.8,26.7,20.8z"/>
			<path class="st0" d="M26.3,20.9c0,0,0.1,0,0.1,0C26.4,20.9,26.3,20.9,26.3,20.9z"/>
			<path class="st0" d="M25.7,21.1C25.7,21.1,25.6,21.1,25.7,21.1C25.7,21.1,25.7,21.1,25.7,21.1L25.7,21.1z"/>
			<path class="st0" d="M25.5,21.1C25.4,21.1,25.4,21.1,25.5,21.1C25.4,21.1,25.4,21.1,25.5,21.1C25.4,21.1,25.5,21.1,25.5,21.1z"/>
			<path class="st0" d="M26.3,20.9C26.3,20.9,26.3,20.9,26.3,20.9c-0.1,0-0.1,0-0.2,0c0,0,0,0,0,0C26.2,21,26.2,21,26.3,20.9
				C26.3,20.9,26.3,20.9,26.3,20.9z"/>
			<path class="st0" d="M25.5,21.1C25.5,21.1,25.5,21.1,25.5,21.1c0.1,0,0.1,0,0.2,0C25.6,21.1,25.5,21.1,25.5,21.1z"/>
			<path class="st0" d="M25.9,21c-0.1,0-0.1,0-0.2,0l0.1,0C25.8,21,25.8,21,25.9,21z"/>
			<path class="st0" d="M26,21c-0.1,0-0.1,0-0.2,0C25.9,21,26,21,26,21C26,21,26,21,26,21z"/>
			<polygon class="st0" points="26.3,25 26.3,25 26.3,25 			"/>
			<path class="st0" d="M34.6,21.6c0-0.1-0.1-0.2-0.1-0.2c0-0.1,0-0.2-0.1-0.2c0-0.1-0.1-0.2-0.1-0.3c0,0,0,0,0,0
				c0-0.1,0-0.2-0.1-0.3c0-0.1-0.1-0.1-0.2-0.1c-0.2-0.1-0.3-0.1-0.5-0.1c-0.1-0.1-0.1-0.1-0.2-0.1c0,0,0-0.1-0.1-0.1l0.8,0
				c0,0,0,0,0,0c-0.1,0-0.2-0.1-0.3,0c-0.1,0-0.1,0-0.2-0.1c0,0,0,0,0,0c0,0,0,0-0.1,0c0,0-0.1,0-0.1,0c-0.1,0-0.2-0.1-0.4-0.1
				c-0.1,0-0.1-0.1-0.1-0.1c0,0,0-0.1,0-0.1c0,0,0-0.1-0.1-0.1c-0.1,0-0.1,0-0.2,0.1c0,0,0,0,0,0l0,0c0.1,0,0-0.1,0-0.2
				c0,0,0.2,0,0.1-0.1c0-0.1-0.1,0-0.2-0.1c-0.1-0.2-0.1-0.1-0.2,0c-0.1,0-0.2-0.1-0.3-0.1c0-0.1-0.1,0-0.1-0.1
				c0-0.1-0.1-0.1-0.1-0.1c0,0-0.1,0,0-0.1l0,0c0,0,0,0,0.1-0.1c0,0,0.1,0,0.1-0.1c0-0.1-0.1,0-0.1,0c0,0-0.1,0-0.2,0c0,0,0,0,0,0
				c-0.1,0-0.1,0-0.1,0c0,0,0.1-0.1,0-0.1c-0.1,0.1-0.1,0.2,0,0.2c0,0,0,0,0,0.1c-0.2,0-0.3,0.2-0.4,0.3c-0.1,0.1-0.1,0.2-0.1,0.2
				c-0.1,0.3-0.2,0.4-0.4,0.6c-0.1,0.1-0.3-0.1-0.4,0.1c-0.1,0-0.2,0.1-0.3,0c-0.1,0-0.2,0-0.2,0.1c-0.1,0-0.2,0-0.2,0.1
				c-0.1,0-0.1,0-0.2,0c-0.1,0-0.2,0-0.2,0c0,0-0.1,0-0.1,0c0,0-0.1,0-0.1,0c0,0,0,0,0,0c-0.1-0.1-0.1,0-0.2,0
				c-0.1,0-0.2,0.1-0.3,0.1c-0.1,0-0.1,0-0.2,0c-0.1,0-0.1,0-0.2,0c-0.1,0-0.2,0-0.2,0c0,0,0,0-0.1,0c0,0-0.1,0-0.1,0l-0.1,0.1
				c-0.1,0-0.1,0-0.2,0c-0.1,0-0.1,0-0.2,0c0,0-0.1,0-0.1,0c0,0,0,0,0,0c0,0,0,0,0,0c0,0,0,0,0,0c0,0,0,0,0,0c0,0-0.1,0-0.1,0
				c0,0-0.1,0-0.1,0c0,0,0,0,0,0c0,0,0,0,0,0c0,0-0.1,0-0.1,0c0,0,0,0,0,0l-0.1,0c0,0,0,0,0,0c0,0,0,0,0,0c0,0,0,0,0,0
				C26.1,21,26,21,26,21c0,0-0.1,0-0.1,0c-0.1,0-0.2,0-0.3,0.1c0,0,0,0,0,0c0,0,0,0,0,0c0,0-0.1,0-0.1,0c0,0,0,0,0,0c0,0,0,0,0,0
				c0,0-0.1,0-0.1,0c0,0,0,0,0.1,0c0,0-0.1,0-0.1,0c-0.1,0-0.3,0.1-0.4,0.1c0,0,0,0-0.1,0c-0.1,0-0.1,0-0.1,0.1c0,0-0.1,0-0.1,0
				c-0.1,0-0.1,0-0.2,0c-0.1,0-0.2,0-0.2,0c0,0,0,0,0,0c0,0-0.1,0-0.1,0c-0.1,0-0.1,0-0.2,0l0,0c0,0,0,0,0,0c0,0,0,0,0,0
				c-0.1,0-0.2,0-0.2,0.1c0,0-0.1,0-0.1,0c0,0,0,0,0,0c-0.1,0-0.1,0-0.2,0c0,0-0.1,0-0.1,0c0,0,0,0,0,0c0,0-0.1,0-0.1,0
				c-0.1,0-0.1,0-0.2,0c0,0-0.1,0-0.1,0c0,0-0.1,0-0.2,0c0,0,0,0-0.1,0c-0.1,0-0.2,0-0.2,0c-0.1,0-0.2,0-0.4,0c0,0-0.1,0-0.1,0
				c0,0,0,0,0,0c-0.1,0.1-0.2,0.1-0.3,0l0,0c-0.1-0.1-0.1,0-0.2,0L21,21.8c-0.1-0.1-0.2-0.1-0.3-0.1c0,0,0,0,0,0
				c-0.1,0-0.2-0.1-0.3,0c-0.1-0.1-0.1,0-0.2,0c-0.1,0-0.1,0,0,0.1c0,0,0.1,0.1,0.1,0.1c0,0,0.1,0,0.1,0.1c0,0.1,0,0.1,0.1,0.1
				c0,0.1,0,0.1,0.1,0.1c0,0,0.1,0.1,0.1,0.1c0.1,0.1,0,0.3,0.2,0.3c0.1,0,0.1,0.2,0.3,0.1c0,0,0,0,0,0.1c0,0.1,0,0.1,0.1,0.1
				c0,0,0,0,0,0c0,0.1,0.1,0.1,0.2,0.1c0.1,0,0.1,0.1,0.2,0.1c0.1,0,0.1,0.1,0.2,0.2c0,0.1,0.1,0.1,0.1,0.1l0,0
				c0.1,0.1,0.1,0.2,0.2,0.2c0,0.1,0,0.1,0.1,0.1c0,0.1,0.1,0.1,0.2,0.1c0.1,0,0.1,0.1,0.2,0.1c0,0,0,0.1,0.1,0.1c0,0.1,0.1,0,0.1,0
				l0,0l0,0l0.1,0c0,0,0.1,0,0.1,0.1c0,0,0.1,0.1,0.1,0c0,0,0,0,0,0c0.1,0,0.1,0,0.2,0l0,0l0,0c0.1,0,0.1,0,0.2,0
				c0.2,0.1,0.3,0.1,0.5,0c0.1,0,0.1,0,0.1-0.1c0.1,0,0.1-0.1,0.2-0.2c0,0,0-0.1,0-0.1c0-0.1,0.1-0.1,0.1-0.1c0.1,0,0.2,0,0.2-0.1
				c0,0,0,0,0.1,0c0.1,0,0.2,0,0.2-0.1c0,0,0,0,0.1,0c0,0,0,0,0.1,0c0.1,0,0.1-0.1,0.1-0.1c0.1,0,0.1,0,0.2-0.1c0-0.1,0-0.1,0.1-0.1
				c0,0,0-0.1,0-0.1c0,0,0,0,0.1,0c0,0,0,0,0.1,0l0-0.1c0,0,0.1,0,0.1-0.1c0,0,0.1-0.1,0.1-0.1c0.1,0,0.1,0,0.1-0.1
				c0,0,0.1,0,0.1-0.1c0,0,0,0,0.1-0.1c0,0,0,0,0,0c0.1-0.2,0.2-0.2,0.3-0.2c0.2,0,0.4-0.1,0.5-0.1c0,0,0.1,0,0.1-0.1
				c0.1,0,0.2-0.1,0.2-0.1c0,0,0,0.1,0,0.1c0.1,0,0.1,0,0.1-0.1c0,0,0.1,0,0.1,0c0.1,0.1,0.1-0.1,0.1-0.1c0,0,0,0,0.1,0
				c0,0,0.1,0,0.1,0c0,0,0.1,0,0.1,0l0.1,0c0.1,0,0.1-0.1,0.2-0.1l0,0l0,0c0,0,0,0,0,0c0,0,0,0,0,0.1c0,0,0,0,0,0.1
				c0,0-0.1,0-0.1,0.1l0,0c0,0.1-0.1,0.1-0.1,0.2c0,0-0.1,0.1-0.1,0.1c-0.1,0-0.1,0.1-0.1,0.2c-0.1,0-0.1,0.1-0.1,0.1c0,0,0,0,0.1,0
				c0,0.1-1.3,1.4-1.3,1.5c0,0,0.1-0.2-0.1,0l0,0c0,0.1,0.1,0.2,0.1,0.3c0,0-0.1,0-0.1,0l0.1,0l0,0c0,0,0,0,0,0.1
				c0,0.2,0.1,0.3,0.2,0.5c0.1,0.1,0.1,0.2,0.2,0.4c0.1,0.2,0.1,0.4,0.2,0.6c0,0.1,0,0.2,0.1,0.3c0,0.1,0,0.2,0.1,0.2
				c0,0,0,0.1,0,0.1c0,0.2,0.1,0.3,0.1,0.4c0,0,0,0.1,0,0.1c0,0.1,0,0.3,0.1,0.4c0,0.1,0,0.3,0.1,0.4c0,0.1,0,0.2,0.1,0.3
				c0.1,0.1,0,0.2,0,0.3c0,0.1,0,0.2,0,0.3c0,0.1-0.1,0.1,0,0.2c0,0,0,0,0,0c0,0,0,0,0,0c-0.1,0.1,0,0.2,0,0.3c0,0,0,0,0,0
				c0,0.3,0,0.5,0,0.8c0,0.2-0.1,0.4,0,0.6c0,0,0,0,0,0l0,0l0,0c-0.1,0.1,0,0.3-0.1,0.5c0,0.2-0.1,0.4-0.1,0.6c0,0.3,0,0.6-0.1,0.9
				c0,0-0.1,0.1-0.1,0.2c0,0,0,0.1-0.1,0.1c-0.1,0-0.1,0.1-0.2,0.1c0,0.1,0,0.2-0.1,0.2c-0.2-0.1-0.3-0.2-0.5-0.3c0,0,0,0,0,0
				c-0.1-0.1-0.2-0.1-0.2-0.2c0,0,0-0.1-0.1-0.1c-0.1,0.1-0.2,0-0.2,0c0,0-0.1,0-0.1-0.1c0-0.1-0.1-0.1-0.2-0.1
				c-0.1,0-0.2-0.1-0.2-0.1c0-0.1,0-0.1-0.1-0.1c0-0.1-0.2-0.1-0.3-0.2c0,0,0,0,0-0.1c0-0.1,0-0.2-0.1-0.2c0-0.1-0.1-0.1-0.1-0.2
				c0,0,0,0,0,0c0-0.1-0.2-0.1-0.3-0.1c0,0,0,0,0,0c0,0-0.1-0.1-0.1-0.1c-0.1,0-0.1-0.1-0.2-0.1c-0.1-0.1-0.1-0.2-0.3-0.2
				c0,0.1,0.1,0.2,0.1,0.3c0,0.1,0.1,0.1,0.2,0.1c0,0,0.1,0.1,0.1,0.1c0,0,0.1,0.1,0.1,0.1c0,0.1,0.1,0.2,0.2,0.2l0.1,0.2
				c0,0,0,0,0,0c0.1,0.2,0.3,0.4,0.4,0.5c0,0.1,0.1,0.2,0.2,0.2l0,0l0.1,0.1c0,0,0.1,0.1,0.1,0.1c0,0.1,0,0.1,0.1,0.2c0,0,0,0,0,0
				c0.1,0.2,0.2,0.4,0.3,0.6c0,0.1-0.1,0-0.1,0c-0.1-0.2-0.3-0.3-0.4-0.5c-0.1-0.1-0.2-0.1-0.3-0.2c0-0.1-0.1-0.1-0.2-0.2
				c-0.1-0.2-0.2-0.4-0.4-0.5c-0.1-0.2-0.3-0.3-0.5-0.4c0,0-0.1-0.1-0.1-0.1c0-0.1-0.1-0.1-0.1-0.1c-0.1-0.1-0.1-0.2-0.2-0.2
				c0,0,0-0.1-0.1-0.1c0-0.1-0.1-0.1-0.2-0.1l0,0c0-0.1,0-0.1-0.1-0.1l0,0c0-0.1-0.1-0.1-0.1-0.1c0,0,0-0.1-0.1-0.1c0,0,0-0.1,0-0.1
				c0-0.1-0.1-0.1-0.1-0.1c-0.1-0.2-0.1,0.1-0.2,0c0,0,0,0,0,0c0,0,0,0,0,0c0-0.1-0.1-0.1-0.2-0.2c0,0.1,0.1,0.2,0.2,0.2
				c0,0.1,0.1,0.2,0.2,0.3c0,0.1,0.1,0.2,0.2,0.3c0,0,0,0,0.1,0.1c0,0.1,0,0.1,0.1,0.2c0,0.1,0,0.1,0.1,0.1c0,0.1,0.1,0.2,0.1,0.2
				l0,0c0,0,0,0.1,0.1,0.1c0,0,0,0,0,0c0,0.1,0.1,0.2,0.2,0.2c0,0,0.1,0.1,0.1,0.1c0,0,0,0.1,0.1,0.1c0.1,0.1,0.2,0.3,0.3,0.4
				c0,0.1,0.1,0.2,0.2,0.3c0.2,0.3,0.3,0.6,0.5,0.9c0.1,0.3,0.3,0.5,0.4,0.8c0,0,0,0.1,0,0.1c0,0.1,0,0.1,0.1,0.2
				c0,0.1,0.1,0.1,0.1,0.2c0,0.1,0,0.2-0.1,0.1c-0.2-0.1-0.2,0.1-0.3,0.2c0.1,0.1,0.1-0.1,0.2,0c0,0,0,0,0,0.1c0,0.1,0,0.3,0.1,0.3
				c0,0.2,0.1,0.4,0,0.6c0,0.1-0.1,0.2,0.1,0.3c0.1,0,0.1,0.1,0,0.2c-0.1,0.1,0,0.2,0,0.3c0.1,0.1,0,0.3-0.1,0.4c0,0-0.1,0-0.2,0.1
				c-0.1,0-0.2,0.1-0.2,0.2c0,0.1,0,0.2,0.2,0.2c0.1,0,0.1,0.1,0.1,0.1c-0.2,0.1-0.1,0.3-0.1,0.5c-0.1,0.1-0.1,0.2,0,0.3
				c0,0.1,0.1-0.1,0.2,0c0,0,0,0.1,0.1,0.1c0.1,0.1,0.1,0.2,0,0.3c0,0.1-0.1,0.1,0,0.2c0,0.2,0.1,0.4,0.1,0.6c0,0.1,0,0.1,0.1,0.1
				c0.1,0,0.1,0,0.1,0c0.1-0.1,0.2-0.2,0.3-0.2c0,0,0,0.1,0.1,0.1c0,0,0,0,0,0c0,0.1,0,0.1-0.1,0.2c-0.1,0.1-0.1,0.2,0.1,0.2
				c0.1,0.2,0.2,0.1,0.3,0c0.1,0,0.1-0.1,0.2-0.1c0,0,0.1-0.1,0.1,0c0,0,0,0,0,0c0,0.1,0.1,0.2,0.3,0.2c0.2,0,0.3-0.1,0.4,0
				c0,0.1,0,0.1,0,0.2l0,0.1l0.1,0c0,0,0.1-0.1,0.1-0.1c0.3,0,0.4-0.1,0.4-0.4c0,0,0,0,0,0l0,0c0,0,0,0,0,0c0-0.1,0.1-0.1,0.1-0.2
				c0,0,0-0.1,0.1-0.1c0.1,0,0,0.1,0.1,0.1c0.1,0.1,0.2,0.2,0.2,0c0-0.1,0.1-0.2,0.1-0.4c0-0.1,0-0.1,0.1-0.1l0,0
				c0,0,0.1,0.1,0.1,0.1c0,0.1-0.1,0.2,0,0.2c0.1,0,0.2-0.1,0.2-0.2c0,0,0-0.1,0-0.1c0-0.1,0-0.2,0.1-0.2c0.1,0,0.1,0,0.1-0.1
				c0,0,0,0,0,0c0,0,0,0,0,0l0,0c0.1-0.1,0.3-0.1,0.4-0.3c0,0,0.1-0.1,0-0.1c0,0-0.1,0-0.2,0c0,0,0-0.1,0-0.1
				c0.1-0.1,0.2-0.2,0.3-0.3c0.2,0,0.3-0.2,0.3-0.3c0-0.2,0.1-0.3,0.3-0.4c0.1,0,0-0.1,0.1-0.1c0.2,0,0.2-0.2,0.2-0.3
				c0.1-0.3,0-0.5,0-0.8l0,0c0,0,0.1-0.1,0.1-0.1c0-0.3,0.1-0.5,0.2-0.7c0-0.1,0.1-0.1,0.1-0.2c0-0.1,0-0.1,0-0.2
				c0-0.1,0.1-0.3,0.1-0.5c-0.1-0.1,0-0.2,0.1-0.2c0.1-0.2,0-0.3,0-0.4c0,0,0-0.1,0-0.1c-0.1-0.3,0.1-0.5,0-0.8
				c0.1-0.1,0.1-0.1,0-0.2c0,0,0-0.1,0-0.1c0.1-0.2,0.1-0.4,0.1-0.7c0-0.4,0.1-0.8,0-1.3c0.1-0.2,0-0.5,0-0.7c0-0.1,0-0.2-0.1-0.2
				c0-0.3,0-0.5,0-0.8c0-0.2,0-0.3-0.1-0.5c0,0,0-0.1,0-0.1c0-0.1,0-0.2,0-0.3c0,0,0-0.1,0-0.1c0-0.1-0.1-0.3-0.1-0.4
				c-0.1-0.3-0.2-0.6-0.3-1c0-0.1,0-0.1-0.1-0.1c0-0.1,0-0.1,0-0.1c0-0.1,0-0.1-0.1-0.1c0-0.2-0.2-0.3-0.2-0.5
				c0-0.1-0.1-0.2-0.2-0.3c0-0.1-0.1-0.1-0.1-0.2c0,0,0-0.1,0-0.1c0-0.1-0.1-0.2-0.2-0.2c0,0,0,0,0,0c0,0,0,0-0.1,0
				c-0.1-0.1-0.1-0.2-0.2-0.2c0,0,0,0,0,0c0,0,0.1,0,0.1-0.1c0,0,0,0,0,0c0.1,0,0.2-0.1,0.2-0.1c0,0,0,0,0,0l0.1,0c0,0,0,0,0,0
				c0,0.1,0,0.1,0,0.2c0-0.1,0.1-0.1,0.1-0.1c0.1,0,0.1-0.1,0.1-0.1c0,0,0-0.1,0.1-0.1c0.1,0,0.2,0,0.2-0.1c0-0.1,0.1-0.1,0.1-0.2
				c0,0,0,0,0,0c0.1,0,0.1,0,0.2-0.1c0,0,0.1-0.1,0.1-0.1c0,0,0.1,0,0.1-0.1c0.1-0.1,1.6-1.5,1.7-1.5c0,0,0,0,0,0
				c0.1,0,0.1,0,0.1,0.1l0,0c-0.1,0,0,0.1,0,0.1c0.1,0.1,0.1,0,0.2-0.1l0.5-0.2l0.1,0c0.1,0,0.2-0.1,0.3-0.2c0.1,0,0-0.1,0-0.2
				c0-0.1,0.2-0.3,0.3-0.3c0,0,0-0.1,0-0.1c0.1,0,0.1-0.1,0.1-0.2c0-0.1,0.1-0.1,0.2-0.1C34.6,21.7,34.6,21.7,34.6,21.6z M25.2,32.1
				L25.2,32.1C25.2,32,25.2,32,25.2,32.1L25.2,32.1z M25.9,33.4C25.9,33.4,25.9,33.4,25.9,33.4C25.9,33.4,26,33.4,25.9,33.4
				C26,33.4,26,33.4,25.9,33.4z M26.2,33.1C26.2,33.1,26.2,33.1,26.2,33.1C26.2,33.1,26.2,33.1,26.2,33.1
				C26.2,33.1,26.2,33.1,26.2,33.1z M24.9,33.3L24.9,33.3L24.9,33.3C24.9,33.3,24.9,33.3,24.9,33.3z M25.4,34.9
				C25.4,34.9,25.4,34.9,25.4,34.9L25.4,34.9C25.5,34.9,25.5,34.9,25.4,34.9z M25.9,38.4L25.9,38.4L25.9,38.4L25.9,38.4z M26,35
				C26,35,26,35,26,35L26,35L26,35z M26.2,34.2L26.2,34.2C26.2,34.2,26.2,34.2,26.2,34.2L26.2,34.2z M27.3,36.3L27.3,36.3
				C27.3,36.3,27.3,36.3,27.3,36.3C27.3,36.3,27.3,36.3,27.3,36.3z M27.4,35.2C27.4,35.2,27.4,35.2,27.4,35.2
				C27.4,35.2,27.4,35.2,27.4,35.2L27.4,35.2z M27.5,33.5C27.5,33.4,27.5,33.4,27.5,33.5L27.5,33.5C27.5,33.4,27.5,33.5,27.5,33.5z
				 M27.6,36.7C27.6,36.7,27.6,36.7,27.6,36.7C27.6,36.7,27.6,36.7,27.6,36.7L27.6,36.7z M30.8,29.1L30.8,29.1L30.8,29.1L30.8,29.1z
				 M30.4,37.2L30.4,37.2C30.4,37.2,30.4,37.2,30.4,37.2C30.4,37.2,30.4,37.2,30.4,37.2z M30.3,37.2L30.3,37.2
				C30.3,37.2,30.3,37.2,30.3,37.2C30.3,37.2,30.3,37.2,30.3,37.2z M30.5,29.6C30.6,29.6,30.6,29.6,30.5,29.6
				C30.6,29.6,30.6,29.6,30.5,29.6C30.5,29.6,30.5,29.6,30.5,29.6z M30.3,33.7C30.3,33.7,30.3,33.7,30.3,33.7
				C30.3,33.7,30.3,33.7,30.3,33.7L30.3,33.7z M30,37.1C30,37.1,30,37.1,30,37.1C30,37.1,30,37.1,30,37.1C30,37.1,30,37.1,30,37.1z
				 M30.4,27.2L30.4,27.2C30.4,27.2,30.4,27.2,30.4,27.2L30.4,27.2z M29.5,38.8C29.5,38.8,29.5,38.8,29.5,38.8L29.5,38.8L29.5,38.8z
				 M29.8,31L29.8,31C29.8,31,29.8,31,29.8,31L29.8,31z M28.2,30.1C28.2,30.2,28.2,30.2,28.2,30.1L28.2,30.1L28.2,30.1z M27.6,25.9
				L27.6,25.9C27.6,25.9,27.6,25.9,27.6,25.9C27.6,25.9,27.6,25.9,27.6,25.9z M27.9,26.3C27.9,26.3,27.9,26.3,27.9,26.3L27.9,26.3
				L27.9,26.3C27.9,26.3,27.9,26.3,27.9,26.3C28,26.3,28,26.3,27.9,26.3C28,26.3,27.9,26.3,27.9,26.3z M28.3,25.6
				C28.3,25.6,28.3,25.6,28.3,25.6C28.3,25.6,28.3,25.6,28.3,25.6C28.3,25.6,28.3,25.6,28.3,25.6z M27.9,39L27.9,39
				C27.9,39,27.9,39,27.9,39C27.9,39,27.9,39,27.9,39z M28.5,25.6C28.5,25.6,28.5,25.6,28.5,25.6L28.5,25.6
				C28.5,25.6,28.5,25.6,28.5,25.6z M28,40.6L28,40.6L28,40.6C28,40.6,28,40.6,28,40.6z M28.5,30.6C28.5,30.6,28.5,30.6,28.5,30.6
				C28.5,30.5,28.5,30.5,28.5,30.6C28.5,30.5,28.5,30.5,28.5,30.6z M28.4,39L28.4,39L28.4,39C28.4,39,28.4,39,28.4,39z M29,25.7
				C29,25.7,29,25.7,29,25.7C29,25.7,29,25.7,29,25.7C29,25.7,29,25.7,29,25.7z M28.5,38.4L28.5,38.4C28.5,38.4,28.5,38.4,28.5,38.4
				C28.5,38.4,28.5,38.4,28.5,38.4z M28.6,37.3C28.6,37.3,28.6,37.3,28.6,37.3C28.6,37.3,28.6,37.3,28.6,37.3
				C28.6,37.3,28.6,37.3,28.6,37.3z M28.9,30.8C28.9,30.8,28.9,30.8,28.9,30.8C28.9,30.8,28.9,30.8,28.9,30.8
				C28.9,30.8,28.9,30.8,28.9,30.8z M28.9,32.5L28.9,32.5L28.9,32.5L28.9,32.5L28.9,32.5C28.9,32.5,28.9,32.5,28.9,32.5L28.9,32.5z
				 M28.9,35.6C28.9,35.6,28.9,35.6,28.9,35.6C28.9,35.6,28.9,35.6,28.9,35.6C28.9,35.6,28.9,35.6,28.9,35.6z M29.9,25.1
				C29.9,25.1,29.9,25.1,29.9,25.1c-0.1,0.1-0.2,0.1-0.2,0.2c0,0-0.1,0.1-0.1,0.1c0,0-0.1,0-0.1,0.1l0,0c0,0,0,0,0,0c0,0,0,0,0,0
				c0,0,0,0,0,0c0-0.1-0.1-0.1-0.1-0.2c0,0,0,0,0,0c0.1,0.1,0.1,0,0.1-0.1c0,0,0.1,0,0.1-0.1c0,0,0,0,0,0c0.1,0,0.1-0.1,0.2-0.1l0,0
				l0,0C30,25,29.9,25,29.9,25.1z"/>
		</g>
		<path class="st0" d="M39.3,27.5C39.3,27.4,39.2,27.5,39.3,27.5c-0.1-0.2-0.2-0.1-0.2-0.1c0,0,0,0,0,0l0,0l0,0c0,0,0.1-0.1,0.1-0.2
			l0,0c0,0,0-0.1,0-0.1c0,0,0.1-0.1,0.1-0.1c0,0,0.1-0.1,0.1-0.1c0-0.1-0.1,0-0.1,0c0,0-0.1,0-0.1,0c0,0-0.1,0-0.1,0.1
			c0,0,0,0,0,0.1c0,0-0.1,0.1-0.1,0c-0.1-0.1,0-0.1,0-0.1c0.1-0.1,0.1-0.2,0.2-0.2c0.1,0,0.1-0.1,0-0.1c-0.1,0,0-0.1,0-0.1
			c0-0.1-0.1,0-0.1,0c0,0-0.1,0-0.1,0c0-0.1,0-0.2,0-0.3c0,0,0,0,0,0c0,0,0,0,0.1,0c0,0,0.1,0,0.1,0c0,0,0.1,0,0.1,0c0,0,0,0,0-0.1
			c0,0,0,0-0.1,0c-0.1,0-0.1,0-0.2,0.1c-0.1,0-0.2,0.1-0.3,0c0,0-0.1,0-0.1,0c0,0,0,0,0.1,0c0,0,0,0,0-0.1l0,0l0,0
			c0.1-0.1,0-0.1,0-0.1c0,0-0.1,0-0.1,0c-0.1-0.1-0.1-0.2-0.3-0.2c0,0,0,0.1,0,0.1c0,0,0,0,0,0c0,0-0.1,0-0.1,0c0,0,0,0-0.1,0.1
			c0-0.1-0.1,0-0.1-0.1c-0.1,0-0.1-0.1-0.2-0.1c-0.1-0.1-0.1-0.1-0.2-0.2c0-0.1,0-0.2-0.1-0.2c0-0.1-0.1-0.1-0.2-0.1
			c-0.1,0-0.1,0-0.2,0c-0.1,0-0.1-0.1-0.2-0.1c-0.1-0.1-0.2,0-0.3-0.1l0,0c0,0-0.1,0-0.2,0l0,0c0,0-0.1,0-0.1,0c0,0,0,0,0,0
			c0,0,0,0,0,0c-0.1,0-0.1,0-0.2,0c0,0,0,0,0,0c0,0,0,0,0,0c0,0-0.1,0-0.1,0.1c0,0,0,0,0,0c0,0-0.1,0-0.1,0c0,0,0,0,0,0c0,0,0,0,0,0
			c0,0,0-0.1,0-0.1c0,0,0,0,0,0c0,0,0,0-0.1,0c0,0-0.1,0-0.1,0c0,0.1-0.1,0.1-0.1,0.1c-0.1,0-0.1,0-0.1,0.1c0,0,0,0-0.1,0
			c-0.1,0-0.1,0-0.1,0l0,0c0,0-0.1,0-0.1,0c0,0-0.1,0.1-0.1,0.1c-0.1,0,0,0.1-0.1,0.1c0,0-0.1,0-0.1,0.1c0,0-0.1,0-0.1,0
			c0,0,0-0.1,0-0.1c0,0-0.1,0.1-0.1,0.1c0,0.1-0.2,0.1-0.2,0.2c0,0-0.1,0.1-0.1,0.1c0,0,0,0,0,0c0,0,0,0,0,0c0,0,0,0,0,0
			c0,0,0,0-0.1,0c0,0-0.1,0-0.1,0c0,0,0,0,0,0c0,0,0,0-0.1,0c0,0.1-0.2,0-0.2,0.2c-0.1,0,0,0.1-0.1,0.1c0,0,0,0,0,0
			c-0.1,0-0.1,0-0.1,0c0,0-0.1,0-0.1,0.1c0,0,0,0,0,0c-0.1-0.1-0.1,0-0.2,0c0,0,0,0,0,0c0,0-0.1,0-0.1,0.1c0,0,0,0,0,0
			c0,0.1-0.1,0-0.1,0.1c0,0,0,0,0,0c0,0-0.1,0-0.1,0.1c0,0,0,0,0,0c0,0,0,0,0,0c0,0,0,0,0.1-0.1c0,0,0.1,0,0.1,0
			c0.2,0.1,0.2,0.1,0.2-0.1c0,0,0,0,0,0c0,0,0,0,0,0c0,0,0,0,0,0c0,0,0,0,0,0c0,0-0.1,0.1-0.1,0.1c0,0-0.1,0-0.1,0.1c0,0,0,0,0,0
			c0,0,0,0,0,0c0,0-0.1,0-0.1,0.1c0,0,0,0,0,0c0,0-0.1,0-0.1,0l-0.1,0c0,0-0.1,0-0.1,0.1c0.1,0.1,0.1,0,0.2,0c0,0,0,0-0.1,0
			c0,0,0,0,0,0c0,0-0.1,0-0.1,0c0,0,0,0,0,0c0,0,0,0,0,0c0,0,0,0-0.1,0c-0.1,0.1-0.3,0.1-0.5,0.2c0,0,0,0,0,0c0,0-0.1,0-0.1,0l0,0
			c0,0,0,0,0,0c0,0,0,0,0,0c0,0,0,0,0,0c-0.1,0-0.2,0-0.3,0c-0.1-0.1,0-0.1,0-0.1c0.1-0.1,0.1-0.1,0-0.2c0,0.2-0.1,0.1-0.2,0.1
			c0,0,0-0.1-0.1-0.1c0,0-0.1,0-0.1,0c0,0,0.1,0,0.1,0l-0.2,0.1l-0.1,0l0,0c0,0,0,0-0.1,0c0,0-0.1,0-0.1,0.1c0,0,0,0-0.1,0
			c0,0-0.1,0-0.1,0.1c0,0,0,0,0,0.1c-0.1,0-0.1,0-0.2,0.1l0,0c0,0,0,0,0,0c0,0,0,0,0,0c0,0-0.1,0.1-0.1,0.1c0,0-0.1,0-0.1,0.1
			c0,0,0,0,0,0c0,0,0,0,0,0c0,0,0,0-0.1,0c0,0,0,0,0-0.1c0,0,0,0,0,0c0-0.1,0.1-0.1,0.2-0.1c0,0,0-0.1-0.1-0.1c-0.1,0-0.2,0-0.3,0
			c0,0-0.1,0-0.1,0.1c0,0.1,0,0,0.1,0c0.1,0,0.1,0,0.2,0c0,0,0,0.1,0,0.1l0,0c0,0-0.1-0.1-0.2,0c0,0,0,0,0,0c-0.1,0-0.1,0-0.2,0
			c0,0,0,0.1-0.1,0.1c0,0,0,0.1,0,0.1c0,0,0,0,0.1,0c0,0,0,0,0,0c0,0,0,0,0,0c0,0,0,0,0,0c0,0,0,0,0,0c-0.2,0-0.3,0-0.5,0
			c0.1,0,0.1,0,0.1-0.1c0,0,0.1,0,0.1,0c0.1,0,0.1,0,0.1-0.1c0-0.1-0.1,0-0.1,0c0,0,0,0,0-0.1c0,0,0,0,0,0c0,0,0.1,0,0.1,0
			c0,0,0,0,0,0c0,0,0.1,0,0.1,0l0,0c0,0,0,0,0-0.1c0,0,0,0-0.1,0c0,0-0.1,0-0.1,0c-0.1,0-0.1,0-0.2,0c-0.1,0-0.1,0-0.2,0
			c0,0-0.1,0-0.2,0c0,0,0,0,0,0c0,0.1-0.1,0-0.2,0c0,0,0,0,0,0c0,0-0.1,0-0.1,0.1c0,0,0,0,0,0c0,0,0,0,0,0c-0.1,0-0.1,0-0.2,0
			c0,0,0,0,0,0l0,0c0,0,0,0,0,0l0,0c0,0,0,0-0.1,0c0,0,0,0,0,0c0,0,0,0,0,0c-0.1-0.1-0.1,0-0.2,0c0,0-0.1,0-0.1,0l0,0
			c-0.1,0-0.1-0.1-0.2,0c0,0,0,0,0,0c-0.2,0-0.3,0.1-0.4,0.1c0,0,0,0,0,0c0-0.1-0.1,0-0.1,0c0,0,0,0,0,0.1c0,0,0,0,0,0
			c-0.1,0-0.1,0-0.2,0.1c0,0,0,0,0,0c0,0,0,0,0-0.1c0,0,0,0,0,0c0,0-0.1-0.1-0.1,0c0,0,0,0,0,0c-0.1,0-0.2,0-0.3,0c0,0,0,0-0.1,0
			c0,0-0.1,0-0.1,0c0,0,0,0,0,0c-0.1,0.1-0.3,0-0.5,0c-0.1,0-0.3,0-0.4,0c-0.2,0-0.3,0-0.5,0c0,0,0,0,0.1,0c0,0,0.1,0,0.1,0
			c0,0,0,0,0.1,0c0,0,0.1,0,0.1,0c0,0,0.1,0,0.1,0c-0.1,0-0.2,0-0.2,0l-0.1,0c0,0,0,0,0,0c0,0,0,0,0,0h0c-0.1,0-0.3,0-0.4,0
			c0,0,0,0,0,0c-0.1,0-0.2,0-0.3,0c0,0,0.1,0,0-0.1c0,0,0,0,0,0c0,0-0.1,0.1-0.1,0.1c0,0-0.1,0-0.1,0c0,0,0,0,0-0.1c0,0,0,0-0.1,0
			c0,0,0,0,0,0c0,0,0,0,0,0l0,0c-0.1,0-0.1,0-0.2,0c0,0,0,0,0,0c0,0,0,0,0,0c0,0,0.1,0,0.1,0c0,0,0,0,0,0c-0.1,0-0.2,0-0.2,0
			c-0.1,0-0.1,0-0.2,0c0,0-0.1,0-0.1,0c0,0-0.1,0-0.1,0c0,0,0,0,0,0c0,0-0.1,0-0.1,0c-0.1,0-0.1,0-0.2,0c0,0-0.1,0-0.1,0
			c0,0-0.1,0-0.1,0c0,0-0.1,0-0.1,0c0,0.1-0.1,0-0.1,0.1c-0.1,0-0.1,0-0.2,0c-0.1,0-0.2,0-0.3,0c0,0,0,0,0,0c0,0-0.1,0-0.1,0
			c0,0,0.1,0,0.1,0c0,0-0.1,0-0.1,0c0,0,0,0,0,0c-0.1,0-0.1,0-0.2,0l0,0c0,0,0,0,0,0c0,0-0.1,0-0.1,0h0c0,0,0,0,0,0.1l-0.1,0
			c0,0,0,0,0,0c0,0,0,0-0.1,0c0,0,0,0-0.1,0c0,0-0.1,0-0.1,0c0,0,0,0,0,0c0,0,0,0,0,0l-0.1,0c0,0-0.1,0-0.1,0l-0.1,0c0,0,0,0,0,0
			c-0.1,0-0.2-0.1-0.3,0c-0.1,0-0.2,0-0.4,0c0,0-0.1,0-0.1,0c-0.1,0-0.1,0-0.2,0l0,0c0,0-0.1,0-0.1,0c-0.1,0-0.2,0-0.3,0
			c0,0,0,0,0,0c-0.1,0-0.2,0-0.2,0c0,0-0.1,0-0.1-0.1c0,0,0,0-0.1-0.1c0,0,0,0,0,0c0,0,0,0.1,0.1,0.1c0,0,0,0,0.1,0c0,0-0.1,0-0.1,0
			c0,0,0,0,0,0c-0.1,0-0.3,0-0.4,0l0,0c0,0,0,0.1,0,0.1c-0.1,0-0.2,0-0.2,0c0,0,0,0.1,0,0.1c0,0-0.1,0-0.1,0c-0.1,0.1,0,0.2-0.1,0.3
			c0.1,0.1,0,0.2,0,0.3c-0.1,0.1,0,0.3,0,0.4c0,0,0,0,0,0c0,0.1,0,0.1,0,0.2c0,0,0,0.1,0,0.1c0,0,0,0.1,0,0.1l0.1,0.2
			c0,0,0,0.1,0.1,0.1c0.1,0.1,0.1,0.3,0.2,0.4c0,0,0.1,0.1,0.1,0.1c0,0,0.1,0,0.1,0.1c0,0,0,0.1,0.1,0.1c0.1,0,0.2,0,0.2,0.1
			c0,0.2,0.1,0.3,0.3,0.3c0,0,0.1,0,0.1,0.1c0,0,0.1,0,0.1,0.1c0,0,0.1,0.1,0.1,0.1c0,0.1,0.1,0.1,0.1,0.1c0,0,0,0,0.1,0h0
			c0,0,0,0,0,0c0,0,0,0,0,0.1c0,0,0,0,0.1,0c0,0,0.1,0,0.1,0c0,0,0,0,0-0.1c0,0,0,0,0,0c0,0,0.1,0,0.1,0c0.1,0,0.1,0,0.2-0.1
			c0,0,0.1,0,0.1,0l0,0c0,0,0.1,0,0.1,0c0.1,0,0.2,0,0.3,0c0,0,0.1,0,0.1-0.1c0,0,0,0,0,0c0,0,0,0,0,0c0,0,0,0,0.1,0c0,0,0,0,0,0
			c0,0,0,0,0,0c0,0,0.1,0,0.1,0c0,0,0,0,0,0l0.2,0c0,0,0,0,0,0c0,0,0.1,0,0.1,0l0,0l0,0c0,0,0,0,0,0c0.1,0,0.2,0,0.3,0
			c0.1,0,0.1-0.1,0.2-0.1c0.1,0,0.2,0,0.2-0.1c0,0,0,0,0,0c0,0,0.1,0,0.1,0c0,0,0.1,0,0.1,0c0-0.1,0,0-0.1,0c0,0-0.1,0-0.1,0
			c0,0,0,0,0,0l0,0c0,0,0,0,0,0c0,0,0,0,0,0c0,0,0,0,0,0c0,0,0.1,0,0.1,0c0,0,0,0,0,0c0,0,0,0,0,0c0,0,0,0,0,0c0.1,0,0.1,0,0.1-0.1
			c0,0,0,0,0,0c0,0,0.1,0,0.1,0c0-0.1-0.1,0-0.1,0c0,0,0,0,0,0l0,0c0.1,0,0.3-0.1,0.4-0.1c0,0,0,0,0,0.1l0,0l0,0c0,0,0.1,0,0.1-0.1
			c0,0,0,0-0.1,0c0,0,0.1,0,0.1-0.1c0,0,0,0,0.1,0c0,0,0.1,0,0.1,0c0.1,0,0.1,0,0.2,0c0,0,0.1,0,0.1,0c0,0,0,0,0,0c0,0-0.1,0-0.1,0
			c0,0,0,0,0.1,0c0,0,0,0,0.1,0c0.1,0,0.1,0,0.2,0c0,0,0.1,0,0.2,0c0,0,0,0,0,0c0.1,0,0.2-0.1,0.3-0.1c0.1,0,0.2,0,0.3,0
			c0,0,0,0,0.1,0c0,0,0,0,0,0c0,0,0,0,0,0c0,0,0.1,0,0.1,0l0,0c0,0,0.1,0,0.1,0l0,0c0,0,0,0,0.1,0c0,0,0,0,0,0c0,0,0,0,0,0
			c0,0,0,0,0,0c0,0,0.1,0,0.1,0c0,0,0,0-0.1,0c0,0,0,0,0,0c0,0,0.1,0,0,0c0,0-0.1,0-0.1,0l0,0l0.1,0c0,0,0.1,0,0.1,0c0,0,0,0,0,0
			c0,0-0.1,0-0.1,0c-0.1,0-0.1,0-0.2,0c1.2-0.3,2.3-0.6,2.7-0.6c0,0,0,0,0,0c0.1,0,0.2,0,0.3,0.1c0,0,0.1,0,0.1,0c0,0,0,0,0,0
			c0.1,0,0.1,0,0.2-0.1c0,0,0.1,0,0.1,0c0.1,0,0.2,0.1,0.2,0l0.2-0.1c0.4-0.1,0.8-0.2,1.2-0.2c0,0,0.1,0,0.1,0c0,0,0.1,0,0.1,0
			c0,0,0.1,0,0.1,0c0,0,0,0,0,0c0,0,0.1,0.1,0.1,0c0,0,0,0,0,0c0.1,0,0.2,0.1,0.2,0c0,0,0.1,0,0.1,0l0.2,0.1c0,0,0,0,0,0
			c0,0,0,0,0,0c0,0,0,0,0,0c0,0,0,0,0,0l0,0c0,0,0,0,0,0c0,0,0.1,0,0.1,0c0,0,0,0,0,0c0,0,0,0,0,0c0,0,0,0,0,0c0,0,0.1-0.1,0.1,0
			c0,0,0.1,0,0.1,0l0,0c0,0,0,0,0,0c0,0,0,0,0,0c0,0,0,0,0.1-0.1c0,0,0.1,0,0.1,0c0,0,0,0,0,0c0,0,0,0,0,0c0,0,0,0,0,0
			c0,0,0.1,0,0.1,0c0.2,0.1,0.3,0,0.5,0l0,0c0,0,0.1,0,0.1,0c0.1,0,0.2,0,0.3-0.1c0,0,0.1,0,0.1,0l0,0c0,0,0.1,0,0.1,0l0,0
			c0,0,0.1,0,0.1,0c0,0.1,0.1,0,0.1,0c0,0,0,0,0,0l0,0l0,0l0,0c0.1-0.1,0.2,0,0.3-0.1c0,0,0,0,0.1,0c0,0,0,0.1,0.1,0.1
			c0.1-0.1,0.1-0.1,0.1-0.1c0,0,0,0,0,0c0,0.1,0.1,0.1,0.1,0.1c0,0,0,0,0,0c0,0,0,0,0,0c0,0,0.1-0.1,0.1,0c0,0,0,0,0,0c0,0,0,0,0,0
			l0,0c0,0,0,0,0,0c0,0,0,0,0,0c0.1,0.1,0.1,0,0.1,0c0.1,0,0.1-0.1,0.2-0.1c0.1,0.1,0.2,0,0.3,0c0,0,0.1,0,0.1,0c0.1,0,0.1,0,0.2,0
			c0,0,0,0,0.1,0c0,0,0.1,0,0.1,0c0,0,0.1,0,0.1,0c0.1,0,0.3-0.1,0.4-0.1c0.1,0,0.2,0,0.2,0.1c0,0,0.1,0,0.1,0c0.1,0,0.1,0,0.2,0
			c0,0,0,0.1,0.1,0.1c0.1,0,0.1,0,0.2,0c0.1,0,0.1-0.1,0.1-0.1c0,0,0.1,0,0.2,0c0.1-0.1,0.4,0,0.8-0.1c0.4,0,1-0.2,1.1-0.4
			c0.1-0.2,0.3-0.2,0.3-0.5C39.3,27.5,39.3,27.9,39.3,27.5z M33.2,26.1C33.2,26.1,33.2,26.1,33.2,26.1
			C33.2,26.1,33.2,26.1,33.2,26.1C33.2,26.1,33.2,26.1,33.2,26.1C33.2,26.1,33.2,26.1,33.2,26.1z M22.6,28.1L22.6,28.1
			C22.6,28.1,22.6,28.1,22.6,28.1L22.6,28.1z M31.6,26.8L31.6,26.8L31.6,26.8C31.6,26.8,31.6,26.8,31.6,26.8
			C31.6,26.8,31.6,26.8,31.6,26.8z M30.4,27.5C30.4,27.5,30.4,27.6,30.4,27.5C30.4,27.6,30.4,27.6,30.4,27.5
			C30.4,27.5,30.4,27.5,30.4,27.5z M27.3,27.8C27.3,27.8,27.2,27.8,27.3,27.8C27.2,27.8,27.3,27.8,27.3,27.8z M22,31.4
			C22,31.4,22,31.4,22,31.4C22,31.3,22,31.3,22,31.4L22,31.4z M22.3,28.1L22.3,28.1c-0.4,0-0.7,0-1.1,0c0.1-0.1,0.2,0,0.3-0.1l0,0
			c0.1,0,0.1,0,0.2,0c0,0,0.1,0,0.1,0c0.1,0,0.1,0,0.2,0c0,0,0.1,0,0.1,0c0.1,0,0.1,0,0.2,0l0,0c0,0,0.1,0,0.1,0c0.1,0,0.1,0,0.2,0
			c0,0,0,0,0.1,0c0.1,0,0.2,0,0.3,0c0.1,0,0.2,0,0.3,0c0.2,0,0.3,0,0.5,0c0,0,0,0,0.1,0c0,0,0,0,0.1,0c0,0,0.1,0,0.1,0
			c0.1,0,0.1,0,0.2,0c0.1,0,0.3,0,0.4,0c0,0,0,0,0.1,0c0.1,0,0.2,0,0.4,0c0,0,0,0,0.1,0c0.1,0,0.1,0,0.2,0l0,0c0,0-0.1,0-0.1,0
			c-0.1,0.1-0.2,0-0.3,0c-0.2,0-0.3,0.1-0.5,0.1c-0.3,0-0.6,0-0.9,0.1c0,0,0,0,0,0c-0.1,0-0.2,0-0.2,0c0,0,0,0-0.1,0
			c0,0-0.1,0-0.1,0l0,0c0,0,0,0,0,0c0,0-0.1,0-0.1,0c-0.1,0-0.1,0-0.2,0c-0.1,0-0.1,0-0.2,0c0,0,0,0,0,0
			C22.5,28,22.4,28.1,22.3,28.1z M23.1,30.9C23.1,30.9,23.1,30.9,23.1,30.9L23.1,30.9C23.1,30.9,23.1,30.9,23.1,30.9z M25.6,30.3
			C25.6,30.3,25.6,30.3,25.6,30.3C25.6,30.3,25.6,30.3,25.6,30.3C25.6,30.3,25.6,30.3,25.6,30.3C25.6,30.3,25.5,30.3,25.6,30.3
			C25.5,30.3,25.6,30.3,25.6,30.3z M30.7,29.2C30.7,29.2,30.7,29.2,30.7,29.2C30.7,29.2,30.7,29.2,30.7,29.2z M35,28.7
			C35,28.7,35,28.7,35,28.7c0.1,0,0.1,0,0.1,0C35,28.7,35,28.7,35,28.7z M35.1,28.7C35.1,28.7,35.1,28.7,35.1,28.7
			C35.1,28.7,35.1,28.7,35.1,28.7C35.1,28.7,35.1,28.7,35.1,28.7z M35.3,28.6C35.4,28.6,35.4,28.6,35.3,28.6
			C35.4,28.6,35.3,28.6,35.3,28.6z M38.4,26C38.4,26,38.4,26,38.4,26c-0.1,0-0.1-0.1-0.1-0.1c0,0-0.1,0-0.1-0.1c0,0,0,0,0-0.1
			c0,0,0,0,0,0.1c0,0,0.1,0,0.1,0c0,0,0,0,0,0C38.4,25.8,38.4,25.9,38.4,26C38.4,25.9,38.4,25.9,38.4,26z"/>
	</g>
	<g>
		<path class="st1" d="M47.1,32.7c0.3-0.5,0.1-1.1-0.4-1.4c-0.5-0.3-1.1-0.1-1.4,0.4l-6.5,11.1c0,0-0.1,0-0.1,0
			C38,42.7,37.4,43,37,43.9c-0.8,2.4-3.4,2.3-3.4,2.3s3.6,2.3,6.2,0c0.5-0.5,0.8-1.2,0.6-1.8c0,0,0-0.1-0.1-0.2c0,0,0,0,0.1-0.1
			L47.1,32.7z"/>
		<g>
			<path class="st2" d="M10.3,45.3c0.5-0.9,0.8-1.9,0.8-2.9V2.6h34.1v24.5c0,0.7,0.6,1.3,1.3,1.3l0,0c0.7,0,1.3-0.6,1.3-1.3V1.8
				c0-1-0.8-1.9-1.9-1.9H10.4c-1,0-1.9,0.8-1.9,1.9v40.7c0,1.6-1.3,2.8-2.9,2.8l-0.2,0C4,45.3,2.7,44,2.7,42.5v-0.6
				c0-0.7-0.6-1.3-1.3-1.3c-0.7,0-1.3,0.6-1.3,1.3v0.6c0,3,2.5,5.5,5.6,5.5c0,0,0,0,0,0h21.8l0.3,0c0.7,0,1.3-0.6,1.3-1.3v0
				c0-0.7-0.6-1.3-1.3-1.3H10.3z"/>
		</g>
	</g>
</g>
</svg>
