<?xml version="1.0" encoding="utf-8"?>
<!-- Generator: Adobe Illustrator 25.0.0, SVG Export Plug-In . SVG Version: 6.00 Build 0)  -->
<svg version="1.1" id="图层_1" xmlns="http://www.w3.org/2000/svg" xmlns:xlink="http://www.w3.org/1999/xlink" x="0px" y="0px"
	 viewBox="0 0 48 48" style="enable-background:new 0 0 48 48;" xml:space="preserve">
<style type="text/css">
	.st0{fill:#FFC0C0;}
	.st1{fill:#DC0816;}
	.st2{fill:#FFFFFF;}
	.st3{fill:#DF111E;}
</style>
<g>
	<g>
		<rect x="7.9" y="7.9" class="st0" width="32.1" height="32.1"/>
	</g>
	<g>
		<path class="st1" d="M1.3,16.9L1.3,16.9c0.7,0,1.3-0.6,1.3-1.3V2.7h12c0.7,0,1.3-0.6,1.3-1.3l0,0C16,0.6,15.4,0,14.6,0H1.3
			C0.6,0,0,0.6,0,1.3v14.3C0,16.3,0.6,16.9,1.3,16.9z M32,1.3L32,1.3c0,0.7,0.6,1.3,1.3,1.3h12v12.9c0,0.7,0.6,1.3,1.3,1.3l0,0
			c0.7,0,1.3-0.6,1.3-1.3V1.3C48,0.6,47.4,0,46.7,0H33.4C32.6,0,32,0.6,32,1.3z M46.7,31.1L46.7,31.1c-0.7,0-1.3,0.6-1.3,1.3v12.9
			h-12c-0.7,0-1.3,0.6-1.3,1.3l0,0c0,0.7,0.6,1.3,1.3,1.3h13.3c0.7,0,1.3-0.6,1.3-1.3V32.4C48,31.7,47.4,31.1,46.7,31.1z M16,46.7
			L16,46.7c0-0.7-0.6-1.3-1.3-1.3h-12v-13c0-0.7-0.6-1.3-1.3-1.3l0,0c-0.7,0-1.3,0.6-1.3,1.3v14.3C0,47.4,0.6,48,1.3,48h13.3
			C15.4,48,16,47.4,16,46.7z"/>
	</g>
	<g>
		<g>
			<path class="st2" d="M24,18.4c-2.1,0-3.8-1.6-3.8-3.7c0-2,1.7-3.7,3.8-3.7c2.1,0,3.8,1.6,3.8,3.7C27.8,16.7,26.1,18.4,24,18.4z
				 M24,12.4c-1.3,0-2.4,1.1-2.4,2.3c0,1.3,1,2.3,2.4,2.3c1.3,0,2.4-1.1,2.4-2.3C26.4,13.4,25.3,12.4,24,12.4z"/>
		</g>
		<g>
			<path class="st2" d="M26.1,37c-0.4,0-0.7-0.3-0.7-0.7v-6c0-0.4,0.3-0.7,0.7-0.7c0.3,0,0.7,0,0.9-0.3c0.2-0.3,0.2-0.7,0.2-0.7
				c0,0,0-0.1,0-0.1v-6.4c0-0.3-0.1-0.5-0.2-0.6c-0.2-0.2-0.5-0.2-0.6-0.2l-4.8,0c-0.1,0-0.4,0-0.6,0.2c-0.1,0.1-0.2,0.3-0.2,0.6
				v6.4c0,0,0,0.1,0,0.1l0,0c0,0-0.1,0.4,0.2,0.7c0.2,0.2,0.6,0.3,0.9,0.3c0.4,0,0.7,0.3,0.7,0.7v6c0,0.4-0.3,0.7-0.7,0.7
				s-0.7-0.3-0.7-0.7V31c-0.5-0.1-1-0.4-1.3-0.7c-0.6-0.7-0.5-1.5-0.5-1.8v-6.4c0-0.9,0.4-1.4,0.6-1.7c0.7-0.6,1.5-0.6,1.6-0.6
				l4.8,0c0.1,0,0.9,0,1.6,0.6c0.3,0.3,0.6,0.8,0.6,1.7v6.4c0,0.3,0.1,1.1-0.5,1.8c-0.3,0.4-0.8,0.6-1.3,0.7v5.3
				C26.8,36.7,26.5,37,26.1,37z"/>
		</g>
	</g>
	<g>
		<path class="st3" d="M12.6,24.5L12.6,24.5c0-0.4,0.3-0.7,0.7-0.7h21.3c0.4,0,0.7,0.3,0.7,0.7l0,0c0,0.4-0.3,0.7-0.7,0.7H13.3
			C12.9,25.2,12.6,24.9,12.6,24.5z"/>
	</g>
</g>
</svg>
