<?xml version="1.0" encoding="utf-8"?>
<!-- Generator: Adobe Illustrator 25.0.0, SVG Export Plug-In . SVG Version: 6.00 Build 0)  -->
<svg version="1.1" id="图层_1" xmlns="http://www.w3.org/2000/svg" xmlns:xlink="http://www.w3.org/1999/xlink" x="0px" y="0px"
	 viewBox="0 0 40 40" style="enable-background:new 0 0 40 40;" xml:space="preserve">
<style type="text/css">
	.st0{fill:#FFC0C0;}
	.st1{fill:#DC0816;}
	.st2{fill:#FFFFFF;}
	.st3{fill:none;stroke:#FFFFFF;stroke-width:1.2;stroke-miterlimit:10;}
	.st4{fill:#DF111E;}
</style>
<g>
	<g>
		<rect x="6.6" y="6.6" class="st0" width="26.8" height="26.8"/>
	</g>
	<path class="st1" d="M1.1,14.1L1.1,14.1c0.6,0,1.1-0.5,1.1-1.1V2.2h10c0.6,0,1.1-0.5,1.1-1.1l0,0c0-0.6-0.5-1.1-1.1-1.1H1.1
		C0.5,0,0,0.5,0,1.1V13C0,13.6,0.5,14.1,1.1,14.1z M26.7,1.1L26.7,1.1c0,0.6,0.5,1.1,1.1,1.1h10V13c0,0.6,0.5,1.1,1.1,1.1l0,0
		c0.6,0,1.1-0.5,1.1-1.1V1.1C40,0.5,39.5,0,38.9,0H27.8C27.2,0,26.7,0.5,26.7,1.1z M38.9,25.9L38.9,25.9c-0.6,0-1.1,0.5-1.1,1.1
		v10.8h-10c-0.6,0-1.1,0.5-1.1,1.1l0,0c0,0.6,0.5,1.1,1.1,1.1h11.1c0.6,0,1.1-0.5,1.1-1.1V27C40,26.4,39.5,25.9,38.9,25.9z
		 M13.3,38.9L13.3,38.9c0-0.6-0.5-1.1-1.1-1.1h-10V27c0-0.6-0.5-1.1-1.1-1.1l0,0C0.5,25.9,0,26.4,0,27v11.9C0,39.5,0.5,40,1.1,40
		h11.1C12.8,40,13.3,39.5,13.3,38.9z"/>
	<g>
		<g>
			<path class="st2" d="M15.7,17.5L15.7,17.5c0.4,0,0.7,0.2,0.7,0.7v0.7c0,0.4-0.2,0.7-0.7,0.7l0,0c-0.4,0-0.7-0.2-0.7-0.7v-0.7
				C15.1,17.7,15.3,17.5,15.7,17.5z"/>
			<path class="st2" d="M24.8,17.5L24.8,17.5c0.4,0,0.7,0.2,0.7,0.7v0.7c0,0.4-0.2,0.7-0.7,0.7l0,0c-0.4,0-0.7-0.2-0.7-0.7v-0.7
				C24.1,17.7,24.3,17.5,24.8,17.5z"/>
		</g>
		<path class="st2" d="M20.3,17.7c-0.3,0-0.5,0.2-0.5,0.4l0,0v2.3c0,1.2,0.3,1.8,1.3,1.8c0.3,0,0.5-0.2,0.5-0.5
			c0-0.3-0.2-0.5-0.4-0.5l0,0c-0.2,0-0.3-0.1-0.3-0.7l0-0.1v-2.3C20.8,17.9,20.6,17.7,20.3,17.7z M22.2,24.7
			c0.2-0.2,0.5-0.2,0.7-0.1c0.2,0.2,0.2,0.5,0.1,0.7c0,0,0,0,0,0c-0.6,0.7-1.5,1.2-2.5,1.2c-0.9,0-1.8-0.4-2.5-1.1
			c-0.2-0.2-0.1-0.5,0.1-0.7c0.2-0.2,0.5-0.1,0.7,0c0.4,0.5,1.1,0.8,1.7,0.8C21.1,25.6,21.8,25.3,22.2,24.7L22.2,24.7z"/>
	</g>
	<path class="st3" d="M28.1,18c0,6.5-3.5,11.8-7.8,11.8c-4.3,0-7.8-5.3-7.8-11.8v-0.8c0-3.9,3.5-7.1,7.8-7.1c4.3,0,7.8,3.2,7.8,7.1
		V18z"/>
	<path class="st4" d="M10.5,20.4L10.5,20.4c0-0.3,0.3-0.6,0.6-0.6h17.8c0.3,0,0.6,0.3,0.6,0.6l0,0c0,0.3-0.3,0.6-0.6,0.6H11.1
		C10.8,21,10.5,20.7,10.5,20.4z"/>
</g>
</svg>
