<?xml version="1.0" encoding="UTF-8"?>
<svg width="40px" height="40px" viewBox="0 0 40 40" version="1.1" xmlns="http://www.w3.org/2000/svg" xmlns:xlink="http://www.w3.org/1999/xlink">
    <title>details_体验1</title>
    <defs>
        <linearGradient x1="50%" y1="-46.6966992%" x2="50%" y2="100%" id="linearGradient-1">
            <stop stop-color="#DC0816" stop-opacity="0" offset="0%"></stop>
            <stop stop-color="#F01331" offset="100%"></stop>
        </linearGradient>
        <linearGradient x1="50%" y1="-46.6966992%" x2="50%" y2="100%" id="linearGradient-2">
            <stop stop-color="#DC0816" stop-opacity="0" offset="0%"></stop>
            <stop stop-color="#F01331" offset="100%"></stop>
        </linearGradient>
    </defs>
    <g id="展示页面" stroke="none" stroke-width="1" fill="none" fill-rule="evenodd">
        <g id="能力详情-对话流" transform="translate(-179.000000, -534.000000)">
            <g id="编组-11" transform="translate(120.000000, 473.000000)">
                <g id="details_体验1" transform="translate(40.000000, 41.000000)">
                    <g id="编组-35" transform="translate(18.000000, 20.000000)">
                        <g id="编组-20" transform="translate(0.666667, 0.000000)">
                            <g id="编组-33" transform="translate(11.500000, 19.935897) rotate(-270.000000) translate(-11.500000, -19.935897) translate(-6.000000, 12.435897)">
                                <path d="M3,11.0769231 L7,11.0769231 C8.47275933,11.0769231 9.66666667,9.88301574 9.66666667,8.41025641 L9.66666667,0.41025641 L9.66666667,0.41025641" id="路径-23" stroke="url(#linearGradient-1)" stroke-width="2.66666667" opacity="0.600000024"></path>
                                <line x1="17" y1="10.6666667" x2="17" y2="0" id="路径-24" stroke="url(#linearGradient-2)" stroke-width="2.66666667" opacity="0.600000024"></line>
                                <path d="M24.3333333,11.0769231 L28.3333333,11.0769231 C29.8060927,11.0769231 31,9.88301574 31,8.41025641 L31,0.41025641 L31,0.41025641" id="路径-23备份" stroke="url(#linearGradient-1)" stroke-width="2.66666667" opacity="0.600000024" transform="translate(27.666667, 5.743590) scale(-1, 1) translate(-27.666667, -5.743590) "></path>
                                <circle id="椭圆形" stroke="#A2000B" stroke-width="2.05128205" fill="#FFFFFF" cx="3.56410256" cy="11.2307692" r="3.33333333"></circle>
                                <circle id="椭圆形备份-10" stroke="#A2000B" stroke-width="2.05128205" fill="#FFFFFF" cx="17" cy="11.2307692" r="3.33333333"></circle>
                                <circle id="椭圆形备份-11" stroke="#A2000B" stroke-width="2.05128205" fill="#FFFFFF" cx="31.5641026" cy="11.2307692" r="3.33333333"></circle>
                            </g>
                            <path d="M37.7512459,16.8755849 C37.9262994,15.1947265 37.6234996,13.4985851 36.8776525,11.9821285 C36.2561564,10.6960263 35.2365323,9.64459742 33.9701205,8.98390278 C33.0344227,8.49861103 31.9909107,8.25861245 30.9372179,8.28636184 C31.0971587,6.87271095 30.7420072,5.44879041 29.9369201,4.27583488 C28.9131236,2.80979055 27.5310793,1.63023174 25.922392,0.849481778 C24.2823068,-0.0365100186 22.3586419,-0.238799226 20.5701324,0.286647598 C19.0492403,0.704731624 17.9385238,2.01008803 17.7692639,3.57829394 L17.7692639,3.67965744 C17.767965,9.1039385 17.8053095,37.9511908 17.8053095,35.9892736 C17.8227647,37.3269498 18.5803285,38.5447016 19.7725617,39.1515481 C20.9415819,39.7679456 22.2551682,40.0577547 23.5750267,39.9904644 C24.8517711,39.9881196 26.1118108,39.7001105 27.2627909,39.1475469 C28.6309654,38.4642261 29.7443273,37.3606797 30.4397365,35.9986097 C30.8084484,35.2713074 30.9947447,34.4652441 30.9825647,33.6499106 C31.3778067,33.6337826 31.7686365,33.5605582 32.14291,33.4325126 C33.7599424,32.7764189 35.1181884,31.6097323 36.0107279,30.1101905 C36.9669161,28.7648366 37.4725582,27.151264 37.4551578,25.5008186 C37.416181,23.976711 36.802564,22.5236583 35.7373131,21.4329412 C35.6883683,21.3848889 35.6381122,21.3381907 35.5866016,21.2928996 C35.6939961,21.2019914 35.7976673,21.1067741 35.8973608,21.0074813 C36.9641007,19.8775124 37.6186574,18.4208537 37.7552471,16.8729174 L37.7512459,16.8755849 Z M32.4269946,22.7533342 L32.434997,22.7533342 L32.5857085,22.7826763 C32.7292985,22.8144038 32.8709147,22.8544838 33.0098347,22.902712 L33.0631839,22.922718 L33.196557,22.9934057 C33.3211501,23.0597822 33.441829,23.1332583 33.5579979,23.2134712 L33.5700014,23.2214735 L33.6620288,23.3014974 C33.7660472,23.395663 33.864888,23.4953943 33.958117,23.6002529 L33.9834578,23.629595 L34.0861551,23.762968 C34.1656139,23.8819177 34.2390612,24.004775 34.3062206,24.1310776 C34.3355626,24.1857605 34.4049166,24.3444744 34.4395936,24.4151622 C34.5277071,24.6668386 34.5959368,24.925041 34.6436543,25.187392 C34.6436543,25.1993956 34.6436543,25.2140666 34.650323,25.2300714 C34.650323,25.2700833 34.6569916,25.3100952 34.6609928,25.3501071 C34.6839904,25.6624073 34.6799743,25.9761103 34.6489892,26.2877195 C34.6343182,26.3810806 34.615646,26.473108 34.59564,26.5664691 C34.5325084,26.8554589 34.446889,27.1390732 34.3395638,27.4147216 C34.2879138,27.531719 34.2323097,27.6469306 34.1728475,27.7601577 C33.9687253,28.145456 33.7425031,28.5186337 33.4953125,28.8778237 C33.4406296,28.9591812 33.3819455,29.0378713 33.3245951,29.1178951 L33.2765808,29.1872491 C33.0380144,29.4844898 32.7790923,29.764803 32.5016835,30.0261655 C32.4136573,30.1088567 32.3229636,30.1875468 32.2349374,30.2649032 C32.261612,30.2368948 31.9855299,30.4449568 31.9161759,30.4903036 C31.7811962,30.5757489 31.6418547,30.6541007 31.4987183,30.7250401 L31.4440354,30.750381 L31.2653155,30.8117326 C31.1931415,30.8339428 31.1201826,30.8535171 31.0465837,30.8704167 C31.0159079,30.8704167 30.7878401,30.8970913 30.7024813,30.8970913 L30.570442,30.8970913 C30.4984206,30.8824203 30.4277329,30.8624143 30.3570452,30.8424084 C30.3087152,30.8272314 30.2610968,30.8098751 30.214336,30.7903929 C30.0869244,30.7239532 29.9635606,30.650024 29.8448928,30.5689937 L29.7835412,30.5169782 C29.6904416,30.4356194 29.6014178,30.3497114 29.5167951,30.2595683 C28.9761783,29.7308201 28.111662,29.7325309 27.5731422,30.2634147 C27.0346225,30.7942985 27.0205664,31.6587022 27.5415406,32.2068145 L27.6749136,32.3761982 C27.7131472,32.4304366 27.7504916,32.4855641 27.7869469,32.5415808 C27.8682566,32.6665217 27.9421828,32.7961152 28.0083462,32.9296963 C28.0270184,32.9723757 28.0590279,33.0457308 28.0710315,33.0804078 C28.1097086,33.1946112 28.1422097,33.3108138 28.1683938,33.4285114 C28.1763962,33.4858618 28.1937347,33.5965614 28.1964021,33.6459094 C28.2021633,33.747636 28.2021633,33.8496071 28.1964021,33.9513337 C28.1964021,33.9233253 28.1457204,34.2394194 28.1217132,34.3287793 C28.0977061,34.4181393 28.0096799,34.6382048 27.9950089,34.6848853 C27.8852341,34.9032327 27.7595233,35.1131966 27.6188969,35.3130723 C27.6575751,35.2530544 27.4321747,35.5411402 27.3734905,35.606493 C27.1757132,35.8220562 26.9626533,36.0230813 26.7359675,36.2080053 C26.7359675,36.2080053 26.495896,36.382724 26.4305432,36.4254034 C26.1931325,36.5812222 25.9448683,36.71984 25.6876555,36.8401935 L25.5369439,36.8948764 C25.3112699,36.9708439 25.0815063,37.0340734 24.8487391,37.0842661 C24.7233685,37.1122744 24.5979978,37.1349479 24.4726272,37.1576213 L24.3832672,37.1722923 L24.3165807,37.1802947 C23.748365,37.2403147 23.1755758,37.2434422 22.6067385,37.1896308 L22.5173786,37.1802947 L22.4987064,37.1802947 C22.2332661,37.1388076 21.971172,37.0781872 21.714473,36.9989074 C21.6464527,36.9789014 21.4610642,36.90688 21.3890428,36.8815391 C21.2399692,36.8077415 21.0960441,36.7239708 20.9582479,36.6307978 L20.8808915,36.5601101 C20.8382122,36.5200982 20.7982002,36.4774188 20.7581883,36.4360732 L20.744851,36.4214022 C20.7008379,36.3547156 20.6621598,36.2880291 20.6234816,36.214674 L20.5981407,36.1226466 C20.5875577,36.0869707 20.578216,36.0509383 20.5701324,36.0146144 L20.5701324,35.8118874 C20.5701324,35.4557814 20.4727701,35.012983 20.4727701,34.6555433 L20.4727701,19.9845102 C22.1644788,21.2573797 24.2032206,21.9858008 26.3185099,22.0731318 C26.4145385,22.0798004 26.5092333,22.0851353 26.6052619,22.0891365 C27.3702199,22.0891365 27.9903408,21.4690156 27.9903408,20.7040576 C27.9903408,19.9390997 27.3702199,19.3189787 26.6052619,19.3189787 C26.4158722,19.3100872 26.2273717,19.2976391 26.0397603,19.2816343 C25.9490666,19.2736319 25.8583729,19.2629621 25.7730142,19.253626 C25.4489703,19.2048907 25.1275805,19.1399005 24.8100609,19.0589013 C24.5137202,18.983013 24.2216591,18.8912987 23.9351339,18.7841529 L23.7950922,18.72947 C23.6726342,18.6744687 23.5516663,18.6162084 23.4323176,18.5547513 C23.2031822,18.4355685 22.9805767,18.3042312 22.7654524,18.1613009 C22.6720627,18.0992627 22.5800142,18.0352289 22.4893702,17.9692437 L22.4186825,17.9118933 C22.0854726,17.6345561 21.7791388,17.3264361 21.5037436,16.9916194 L21.4957412,16.9809496 C21.4450594,16.9115956 21.3952668,16.841797 21.3463634,16.7715539 C21.1607476,16.4969262 20.9940888,16.2099521 20.8475483,15.9126316 C20.8168725,15.85128 20.7888641,15.7899284 20.7608558,15.7285768 C20.6834994,15.5338522 20.5341217,14.8549835 20.4941097,14.6509227 L20.4941097,3.98108048 C20.4941097,3.9424023 20.5607963,3.71433443 20.5607963,3.6823249 L20.5607963,3.64097926 C20.5607963,3.62764196 20.576801,3.5809614 20.5861371,3.55161933 L20.6061431,3.48493282 C20.6394863,3.45025583 20.7755268,3.28353954 20.8408796,3.21818676 L20.8555506,3.20484946 L20.9302395,3.15550144 C21.0406527,3.0868495 21.155118,3.02494025 21.2730082,2.97011293 L21.4503944,2.90876134 C21.6273839,2.85270359 21.8078142,2.80815291 21.9905551,2.77538831 L22.2066194,2.762051 C22.3843331,2.75292548 22.5623979,2.75292548 22.7401115,2.762051 C22.8308052,2.762051 22.9214989,2.77405458 23.0068576,2.78339069 L23.0255298,2.78339069 C23.25776,2.82317959 23.4875341,2.87617012 23.7137346,2.94210459 C23.8884533,2.99011888 24.0471672,3.04613555 24.2072149,3.10215223 C24.2152172,3.10215223 24.3872684,3.17550739 24.4206117,3.19151216 C24.5259764,3.23952645 24.6300074,3.29287566 24.7340383,3.34622487 C25.1552541,3.56979765 25.5603579,3.82248621 25.9463991,4.10244994 L26.0797722,4.19981225 L26.2131452,4.30651067 C26.3598555,4.42521267 26.4998972,4.54924958 26.6399389,4.67595396 C26.9161999,4.92956045 27.1742488,5.2023168 27.4121687,5.49219689 L27.5455417,5.6775854 C27.6335679,5.81095843 27.7149255,5.94433146 27.7922819,6.07770449 C27.8696382,6.21107752 27.9256549,6.3337807 27.9936751,6.46582 C28.0203497,6.53517398 28.0456906,6.59919303 28.068364,6.67654939 C28.1289329,6.86725362 28.1779256,7.06144281 28.2150744,7.25805579 C28.2292286,7.44584542 28.2292286,7.63443406 28.2150744,7.8222237 C28.2044045,7.8929114 28.1843986,8.038288 28.1697275,8.10097333 C28.1392452,8.22814425 28.1022973,8.35367793 28.0590279,8.47708527 L28.0350208,8.54110432 L28.0203497,8.57444758 C27.950827,8.7173815 27.8733491,8.85630724 27.7882807,8.99057143 C27.7602723,9.03591826 27.7309303,9.07993136 27.7002545,9.12394446 C27.6695787,9.16795755 27.5668814,9.29066074 27.5322044,9.33467384 C27.3455227,9.54282388 27.1435688,9.73675321 26.9280246,9.91484651 C26.3888054,10.4561076 26.3888054,11.3315015 26.9280246,11.8727626 C27.4765862,12.39916 28.342714,12.39916 28.8912756,11.8727626 L28.9886379,11.791405 L29.0193137,11.7687316 C29.136682,11.6847066 29.2607189,11.6073502 29.3847558,11.5339951 C29.5087927,11.4606399 29.6341634,11.400622 29.7622015,11.3352693 L29.7902098,11.321932 L29.94759,11.2645816 C30.1850138,11.1838462 30.4285346,11.122297 30.6758067,11.0805268 L30.8451905,11.0671895 C31.0025706,11.0578534 31.1599508,11.0591871 31.3159973,11.0671895 C31.3760151,11.0671895 31.5227255,11.084528 31.6000818,11.0925304 C31.6774382,11.1005327 31.7414572,11.1205387 31.8121449,11.1365435 C32.0106788,11.1795149 32.2055518,11.2379322 32.3949851,11.3112621 L32.4283283,11.3152633 C32.665007,11.4246403 32.8928661,11.55217 33.1098645,11.6967102 C33.1552113,11.7260522 33.1978907,11.7580618 33.2432375,11.7887376 C33.3672744,11.8901011 33.4859764,11.9994669 33.6006772,12.112834 C33.715378,12.2262011 33.8100729,12.3222297 33.8994328,12.434263 L33.9541158,12.4996158 L34.0047975,12.5716372 C34.2007918,12.8519461 34.3721491,13.1486977 34.5169499,13.4585679 L34.546292,13.5252544 L34.5996412,13.6586274 C34.7246092,14.004785 34.8222703,14.3601998 34.8917281,14.7216105 C34.9277281,14.8879819 34.9570934,15.0557201 34.9797543,15.2244268 C35.0136151,15.5442397 35.0278682,15.8658255 35.0224337,16.18738 C35.0224337,16.3580975 35.0077627,16.528815 34.9930917,16.6995325 C34.9930917,16.7182047 34.9930917,16.7435456 34.9850893,16.7702202 C34.9730857,16.8409079 34.9610821,16.9115956 34.9464111,16.9822833 C34.8853649,17.2900677 34.7997317,17.5924602 34.6903349,17.8865524 L34.6703289,17.9385679 L34.6223146,18.0399314 C34.5468187,18.1938675 34.4635762,18.3438819 34.3729071,18.4893985 C34.3328952,18.5547513 34.1835174,18.7561446 34.1461729,18.8121612 C34.0768189,18.8921851 34.0047975,18.9695414 33.9301086,19.045564 C33.8275183,19.1487306 33.7197941,19.2466617 33.6073459,19.3389847 L33.5713352,19.3643256 C33.4953125,19.4176748 33.4166225,19.4656891 33.3379324,19.5137034 C33.2084241,19.5910519 33.0748591,19.6613962 32.9378133,19.7244327 C32.8631244,19.7524411 32.7884355,19.777782 32.7124129,19.8031228 C32.5534108,19.8532544 32.3917886,19.8946618 32.2282688,19.9271597 L32.0948957,19.9498332 L31.9428505,19.960503 C31.1778925,19.960503 30.5577716,20.580624 30.5577716,21.3455819 C30.5577716,22.1105399 31.1778925,22.7306608 31.9428505,22.7306608 C32.1028981,22.7306608 32.261612,22.7306608 32.4203259,22.7439981 L32.4269946,22.7533342 Z" id="形状备份" fill="#DC0816" fill-rule="nonzero"></path>
                        </g>
                    </g>
                </g>
            </g>
        </g>
    </g>
</svg>