<?xml version="1.0" encoding="utf-8"?>
<!-- Generator: Adobe Illustrator 25.0.0, SVG Export Plug-In . SVG Version: 6.00 Build 0)  -->
<svg version="1.1" id="图层_1" xmlns="http://www.w3.org/2000/svg" xmlns:xlink="http://www.w3.org/1999/xlink" x="0px" y="0px"
	 viewBox="0 0 100 100" style="enable-background:new 0 0 100 100;" xml:space="preserve">
<style type="text/css">
	.st0{fill:#DC0816;}
	.st1{fill:#FFC0C0;}
	.st2{fill:#FFFFFF;}
</style>
<g>
	<g>
		<path class="st0" d="M50.1,100c-19.9,0-38.7-12-46.5-31.6c-8.3-21-1.4-45,16.7-58.4C20.7,9.7,33.3,0,50,0c1.6,0,2.9,1.3,2.9,2.9
			S51.6,5.7,50,5.7c-14.7,0-26.1,8.8-26.2,8.8C7.7,26.5,1.6,47.8,8.9,66.3c8.9,22.6,34.6,33.8,57.3,24.8
			c22.6-8.9,33.8-34.6,24.8-57.3c-3-7.7-8.1-14.3-14.8-19.2c-1.3-0.9-1.5-2.7-0.6-4c0.9-1.3,2.7-1.5,4-0.6
			c7.5,5.5,13.2,13.1,16.7,21.7c10.1,25.6-2.5,54.6-28.1,64.7C62.3,98.9,56.1,100,50.1,100z"/>
	</g>
	<g>
		<g>
			<g>
				<g>
					<path class="st0" d="M19.2,26.7c-0.5,0-1-0.1-1.4-0.4l-5-2.9c-1.4-0.8-1.8-2.5-1.1-3.9c0.8-1.4,2.5-1.8,3.9-1.1l5,2.9
						c1.4,0.8,1.8,2.5,1.1,3.9C21.1,26.2,20.2,26.7,19.2,26.7z"/>
				</g>
			</g>
		</g>
		<g>
			<g>
				<g>
					<path class="st0" d="M85.9,82.4c-0.5,0-1-0.1-1.4-0.4l-5-2.9c-1.4-0.8-1.8-2.5-1-3.9c0.8-1.4,2.5-1.8,3.9-1l5,2.9
						c1.4,0.8,1.8,2.5,1,3.9C87.8,81.9,86.9,82.4,85.9,82.4z"/>
				</g>
			</g>
			<g>
				<g>
					<path class="st0" d="M14.1,82.4c-1,0-2-0.5-2.5-1.4c-0.8-1.4-0.3-3.1,1.1-3.9l5-2.9c1.4-0.8,3.1-0.3,3.9,1
						c0.8,1.4,0.3,3.1-1.1,3.9l-5,2.9C15.1,82.3,14.6,82.4,14.1,82.4z"/>
				</g>
			</g>
		</g>
		<g>
			<g>
				<g>
					<path class="st0" d="M96.2,53.2h-5.8c-1.6,0-2.9-1.3-2.9-2.9s1.3-2.9,2.9-2.9h5.8c1.6,0,2.9,1.3,2.9,2.9S97.8,53.2,96.2,53.2z"
						/>
				</g>
			</g>
			<g>
				<g>
					<path class="st0" d="M9.6,53.2H3.8c-1.6,0-2.9-1.3-2.9-2.9s1.3-2.9,2.9-2.9h5.8c1.6,0,2.9,1.3,2.9,2.9S11.2,53.2,9.6,53.2z"/>
				</g>
			</g>
		</g>
		<g>
			<g>
				<g>
					<path class="st0" d="M50,99.3c-1.6,0-2.9-1.3-2.9-2.9v-5.8c0-1.6,1.3-2.9,2.9-2.9s2.9,1.3,2.9,2.9v5.8
						C52.9,98.1,51.6,99.3,50,99.3z"/>
				</g>
			</g>
		</g>
		<g>
			<g>
				<g>
					<path class="st0" d="M50,11.5c-1.6,0-2.9-1.3-2.9-2.9V2.9C47.1,1.3,48.4,0,50,0s2.9,1.3,2.9,2.9v5.8
						C52.9,10.3,51.6,11.5,50,11.5z"/>
				</g>
			</g>
		</g>
	</g>
	<g>
		<g>
			<path class="st0" d="M75.1,23.8c-1.4,0-2.6-1-2.8-2.5L70.6,9.4c-0.2-1.6,0.9-3,2.5-3.2c1.6-0.2,3,0.9,3.2,2.5l1.6,11.9
				c0.2,1.6-0.9,3-2.5,3.2C75.3,23.8,75.2,23.8,75.1,23.8z"/>
		</g>
		<g>
			<path class="st0" d="M73.4,11.9c-1.4,0-2.6-1-2.8-2.5c-0.2-1.6,0.9-3,2.5-3.2l11.9-1.6c1.6-0.2,3,0.9,3.2,2.5
				c0.2,1.6-0.9,3-2.5,3.2l-11.9,1.6C73.7,11.9,73.6,11.9,73.4,11.9z"/>
		</g>
	</g>
	<g>
		<circle class="st1" cx="50" cy="50" r="32.4"/>
	</g>
	<g>
		<g>
			<path class="st2" d="M50,59.4c-12.9,0-26-3.2-26-9.2c0-6,13.1-9.2,26-9.2s26,3.2,26,9.2C76,56.3,62.9,59.4,50,59.4z M50,44.1
				c-14,0-22.9,3.6-22.9,6.2S36,56.4,50,56.4s22.9-3.7,22.9-6.2S64,44.1,50,44.1z"/>
		</g>
		<g>
			<path class="st2" d="M50,76c-6,0-9.2-13.1-9.2-26S44,24,50,24c6,0,9.2,13.1,9.2,26S56,76,50,76z M50,27.1
				c-2.5,0-6.2,8.9-6.2,22.9s3.7,22.9,6.2,22.9c2.5,0,6.2-8.9,6.2-22.9S52.5,27.1,50,27.1z"/>
		</g>
		<g>
			<path class="st2" d="M64.9,69.6c-5.4,0-14.1-5.9-21.4-13.1c-9.1-9.1-16.1-20.6-11.8-24.9c4.3-4.3,15.7,2.7,24.9,11.8
				c9.1,9.1,16.1,20.6,11.8,24.9h0C67.5,69.2,66.3,69.6,64.9,69.6z M35.2,33.4c-0.6,0-1.1,0.1-1.4,0.4c-1.8,1.8,2,10.7,11.8,20.6
				c9.9,9.9,18.8,13.6,20.6,11.8c1.8-1.8-2-10.7-11.8-20.6C46,37.3,38.4,33.4,35.2,33.4z"/>
		</g>
		<g>
			<path class="st2" d="M35.1,69.6c-1.4,0-2.6-0.4-3.5-1.3l0,0c-4.3-4.3,2.7-15.7,11.8-24.9c9.1-9.1,20.6-16.1,24.9-11.8
				c4.3,4.3-2.7,15.7-11.8,24.9C49.3,63.8,40.6,69.6,35.1,69.6z M33.8,66.2c1.8,1.8,10.7-2,20.6-11.8c9.9-9.9,13.6-18.8,11.8-20.6
				c-1.8-1.8-10.7,2-20.6,11.8C35.8,55.5,32,64.4,33.8,66.2L33.8,66.2z"/>
		</g>
	</g>
	<g>
		<path class="st0" d="M53.4,50c0,1.9-1.5,3.4-3.4,3.4c-1.9,0-3.4-1.5-3.4-3.4s1.5-3.4,3.4-3.4C51.9,46.6,53.4,48.1,53.4,50z"/>
	</g>
</g>
</svg>
