<?xml version="1.0" encoding="utf-8"?>
<!-- Generator: Adobe Illustrator 25.0.0, SVG Export Plug-In . SVG Version: 6.00 Build 0)  -->
<svg version="1.1" id="图层_1" xmlns="http://www.w3.org/2000/svg" xmlns:xlink="http://www.w3.org/1999/xlink" x="0px" y="0px"
	 viewBox="0 0 32 32" style="enable-background:new 0 0 32 32;" xml:space="preserve">
<style type="text/css">
	.st0{fill:#D11A21;}
	.st1{fill:#FFC0C0;}
</style>
<g>
	<g>
		<path class="st0" d="M31.1,32H0.9C0.4,32,0,31.6,0,31.1V3.2c0-0.5,0.4-0.9,0.9-0.9h30.2c0.5,0,0.9,0.4,0.9,0.9v27.9
			C32,31.6,31.6,32,31.1,32z M1.8,30.2h28.5V4.1H1.8V30.2z"/>
	</g>
	<g>
		<polygon class="st1" points="19.9,0.9 27.7,0.9 27.7,11.5 23.8,8.8 19.9,11.5 		"/>
		<path class="st0" d="M27.7,12.3c-0.2,0-0.3-0.1-0.5-0.2l-3.4-2.3l-3.4,2.3c-0.3,0.2-0.6,0.2-0.9,0.1c-0.3-0.2-0.5-0.5-0.5-0.8V0.9
			C19,0.4,19.4,0,19.9,0h7.8c0.5,0,0.9,0.4,0.9,0.9v10.6c0,0.3-0.2,0.6-0.5,0.8C28,12.3,27.8,12.3,27.7,12.3z M23.8,7.9
			c0.2,0,0.3,0.1,0.5,0.2l2.5,1.7v-8h-6.1v8l2.5-1.7C23.4,8,23.6,7.9,23.8,7.9z"/>
	</g>
	<g>
		<g>
			<path class="st1" d="M26.2,20.3H5.8c-0.3,0-0.5-0.2-0.5-0.5s0.2-0.5,0.5-0.5h20.3c0.3,0,0.5,0.2,0.5,0.5S26.4,20.3,26.2,20.3z"/>
		</g>
		<g>
			<path class="st1" d="M26.2,25.7H5.8c-0.3,0-0.5-0.2-0.5-0.5s0.2-0.5,0.5-0.5h20.3c0.3,0,0.5,0.2,0.5,0.5S26.4,25.7,26.2,25.7z"/>
		</g>
		<g>
			<path class="st1" d="M14.6,14.9H5.8c-0.3,0-0.5-0.2-0.5-0.5S5.6,14,5.8,14h8.8c0.3,0,0.5,0.2,0.5,0.5S14.9,14.9,14.6,14.9z"/>
		</g>
		<g>
			<path class="st1" d="M14.6,9.5H5.8C5.6,9.5,5.4,9.3,5.4,9s0.2-0.5,0.5-0.5h8.8c0.3,0,0.5,0.2,0.5,0.5S14.9,9.5,14.6,9.5z"/>
		</g>
	</g>
</g>
</svg>
