<?xml version="1.0" encoding="utf-8"?>
<!-- Generator: Adobe Illustrator 25.0.0, SVG Export Plug-In . SVG Version: 6.00 Build 0)  -->
<svg version="1.1" id="图层_1" xmlns="http://www.w3.org/2000/svg" xmlns:xlink="http://www.w3.org/1999/xlink" x="0px" y="0px"
	 viewBox="0 0 40 40" style="enable-background:new 0 0 40 40;" xml:space="preserve">
<style type="text/css">
	.st0{fill:#FFC0C0;}
	.st1{fill:#DC0816;}
	.st2{fill:#FFFFFF;}
</style>
<g>
	<g>
		<rect x="6.6" y="6.6" class="st0" width="26.8" height="26.8"/>
	</g>
	<g>
		<path class="st1" d="M1.1,14.1L1.1,14.1c0.6,0,1.1-0.5,1.1-1.1V2.2h10c0.6,0,1.1-0.5,1.1-1.1l0,0c0-0.6-0.5-1.1-1.1-1.1H1.1
			C0.5,0,0,0.5,0,1.1V13C0,13.6,0.5,14.1,1.1,14.1z M26.7,1.1L26.7,1.1c0,0.6,0.5,1.1,1.1,1.1h10V13c0,0.6,0.5,1.1,1.1,1.1l0,0
			c0.6,0,1.1-0.5,1.1-1.1V1.1C40,0.5,39.5,0,38.9,0H27.8C27.2,0,26.7,0.5,26.7,1.1z M38.9,25.9L38.9,25.9c-0.6,0-1.1,0.5-1.1,1.1
			v10.8h-10c-0.6,0-1.1,0.5-1.1,1.1l0,0c0,0.6,0.5,1.1,1.1,1.1h11.1c0.6,0,1.1-0.5,1.1-1.1V27C40,26.4,39.5,25.9,38.9,25.9z
			 M13.3,38.9L13.3,38.9c0-0.6-0.5-1.1-1.1-1.1h-10V27c0-0.6-0.5-1.1-1.1-1.1l0,0C0.5,25.9,0,26.4,0,27v11.9C0,39.5,0.5,40,1.1,40
			h11.1C12.8,40,13.3,39.5,13.3,38.9z"/>
	</g>
	<g>
		<path class="st2" d="M20,30.4c-4.6,0-8.4-5.6-8.4-12.4v-0.8c0-4.2,3.8-7.7,8.4-7.7s8.4,3.4,8.4,7.7V18
			C28.4,24.8,24.6,30.4,20,30.4z M20,10.8c-4,0-7.2,2.9-7.2,6.5V18c0,6.2,3.2,11.2,7.2,11.2s7.2-5,7.2-11.2v-0.8
			C27.2,13.7,24,10.8,20,10.8z"/>
	</g>
	<g>
		<path class="st2" d="M20,22.5c-4.1,0-8.3-1.1-8.3-3.3S15.9,16,20,16c4.1,0,8.3,1.1,8.3,3.3S24.1,22.5,20,22.5z M20,17.2
			c-4.3,0-7.1,1.2-7.1,2c0,0.8,2.7,2,7.1,2s7.1-1.2,7.1-2C27.1,18.4,24.3,17.2,20,17.2z"/>
	</g>
	<g>
		<rect x="19.4" y="10.2" class="st2" width="1.2" height="19.6"/>
	</g>
	<g>
		<path class="st1" d="M13.3,19.6c0,0.6-0.5,1.1-1.1,1.1c-0.6,0-1.1-0.5-1.1-1.1c0-0.6,0.5-1.1,1.1-1.1
			C12.8,18.4,13.3,18.9,13.3,19.6z"/>
	</g>
	<g>
		<path class="st1" d="M28.9,19.6c0,0.6-0.5,1.1-1.1,1.1c-0.6,0-1.1-0.5-1.1-1.1c0-0.6,0.5-1.1,1.1-1.1
			C28.4,18.4,28.9,18.9,28.9,19.6z"/>
	</g>
	<g>
		<circle class="st1" cx="20" cy="10.2" r="1.1"/>
	</g>
	<g>
		<circle class="st1" cx="20" cy="30" r="1.1"/>
	</g>
</g>
</svg>
