<?xml version="1.0" encoding="utf-8"?>
<!-- Generator: Adobe Illustrator 25.0.0, SVG Export Plug-In . SVG Version: 6.00 Build 0)  -->
<svg version="1.1" id="图层_1" xmlns="http://www.w3.org/2000/svg" xmlns:xlink="http://www.w3.org/1999/xlink" x="0px" y="0px"
	 viewBox="0 0 80 80" style="enable-background:new 0 0 80 80;" xml:space="preserve">
<style type="text/css">
	.st0{fill:#FFC0C0;}
	.st1{fill:#D11A21;}
	.st2{fill:#FFFFFF;}
</style>
<circle class="st0" cx="40" cy="40" r="40"/>
<g>
	<g>
		<path class="st1" d="M40,60c-2.6,0-11.3-2.8-14.8-6c-3.5-3.2-3.4-9.5-3.4-9.8l0-17.8c0-0.5,0.4-1,1-1c7.8-0.6,16.6-5.2,16.7-5.3
			c0.3-0.2,0.7-0.2,1,0c0.1,0,8.9,4.7,16.7,5.3c0.5,0,1,0.5,1,1v17.8c0,0.4,0.1,6.6-3.4,9.8C51.3,57.2,42.6,60,40,60z M23.9,27.4
			v16.8c0,0.1-0.1,5.6,2.7,8.2c3,2.7,11,5.5,13.4,5.5c2.3,0,10.4-2.7,13.4-5.5c2.8-2.6,2.7-8.2,2.7-8.2c0,0,0,0,0,0V27.4
			c-6.9-0.8-14.1-4.2-16.1-5.2C38.1,23.2,30.9,26.6,23.9,27.4z"/>
	</g>
	<g>
		<path class="st2" d="M52.6,43V30.2C46.8,29.8,40,26.4,40,26.4s-6.8,3.4-12.6,3.9V43c0,0-0.1,4.3,2.2,6.5c2.3,2.1,8.6,4.1,10.4,4.1
			s8.1-2,10.4-4.1C52.7,47.4,52.6,43,52.6,43z"/>
	</g>
	<g>
		<g>
			<path class="st0" d="M43.4,47.5l-3.3-5.9h-2.3v5.9h-2.3V33h4.7c3,0,5.2,1.1,5.2,4.2c0,2.2-1.2,3.6-3,4.2l3.5,6.1H43.4z
				 M37.7,39.8h2.2c2.1,0,3.3-0.9,3.3-2.6s-1.1-2.4-3.3-2.4h-2.2V39.8z"/>
		</g>
	</g>
</g>
</svg>
