<?xml version="1.0" encoding="utf-8"?>
<!-- Generator: Adobe Illustrator 25.0.0, SVG Export Plug-In . SVG Version: 6.00 Build 0)  -->
<svg version="1.1" id="图层_1" xmlns="http://www.w3.org/2000/svg" xmlns:xlink="http://www.w3.org/1999/xlink" x="0px" y="0px"
	 viewBox="0 0 40 40" style="enable-background:new 0 0 40 40;" xml:space="preserve">
<style type="text/css">
	.st0{fill:#FFC0C0;}
	.st1{fill:#DC0816;}
	.st2{fill:#FFFFFF;}
</style>
<g>
	<g>
		<rect x="6.6" y="6.6" class="st0" width="26.8" height="26.8"/>
	</g>
	<g>
		<path class="st1" d="M1.1,14.1L1.1,14.1c0.6,0,1.1-0.5,1.1-1.1V2.2h10c0.6,0,1.1-0.5,1.1-1.1l0,0c0-0.6-0.5-1.1-1.1-1.1H1.1
			C0.5,0,0,0.5,0,1.1V13C0,13.6,0.5,14.1,1.1,14.1z M26.7,1.1L26.7,1.1c0,0.6,0.5,1.1,1.1,1.1h10V13c0,0.6,0.5,1.1,1.1,1.1l0,0
			c0.6,0,1.1-0.5,1.1-1.1V1.1C40,0.5,39.5,0,38.9,0H27.8C27.2,0,26.7,0.5,26.7,1.1z M38.9,25.9L38.9,25.9c-0.6,0-1.1,0.5-1.1,1.1
			v10.8h-10c-0.6,0-1.1,0.5-1.1,1.1l0,0c0,0.6,0.5,1.1,1.1,1.1h11.1c0.6,0,1.1-0.5,1.1-1.1V27C40,26.4,39.5,25.9,38.9,25.9z
			 M13.3,38.9L13.3,38.9c0-0.6-0.5-1.1-1.1-1.1h-10V27c0-0.6-0.5-1.1-1.1-1.1l0,0C0.5,25.9,0,26.4,0,27v11.9C0,39.5,0.5,40,1.1,40
			h11.1C12.8,40,13.3,39.5,13.3,38.9z"/>
	</g>
	<g>
		<g>
			<g>
				<path class="st2" d="M20,15.3c-1.8,0-3.2-1.4-3.2-3.1s1.4-3.1,3.2-3.1s3.2,1.4,3.2,3.1S21.8,15.3,20,15.3z M20,10.4
					c-1.1,0-2,0.8-2,1.9s0.9,1.9,2,1.9s2-0.8,2-1.9S21.1,10.4,20,10.4z"/>
			</g>
			<g>
				<path class="st2" d="M18.3,30.8C18.3,30.8,18.3,30.8,18.3,30.8c-0.3,0-0.6-0.3-0.6-0.6l0-4.4c-0.5-0.1-0.8-0.3-1.1-0.6
					c-0.5-0.6-0.5-1.3-0.4-1.5v-5.3c0-0.7,0.3-1.1,0.5-1.4c0.5-0.5,1.2-0.5,1.3-0.4l4,0c0,0,0.7,0,1.3,0.4c0.2,0.2,0.5,0.6,0.5,1.4
					v5.3c0,0.2,0.1,0.9-0.4,1.5c-0.3,0.3-0.6,0.5-1.1,0.6l0,4.4c0,0.3-0.3,0.6-0.6,0.6c0,0,0,0,0,0c-0.3,0-0.6-0.3-0.6-0.6l0-5
					c0-0.2,0.1-0.3,0.2-0.4c0.1-0.1,0.3-0.2,0.4-0.2c0.4,0,0.6-0.1,0.8-0.2c0.2-0.2,0.2-0.6,0.2-0.6c0,0,0-0.1,0-0.1v-5.4
					c0-0.2,0-0.4-0.1-0.5c-0.2-0.1-0.4-0.1-0.4-0.1l-4,0c0,0-0.3,0-0.5,0.1c-0.1,0.1-0.1,0.3-0.1,0.5v5.4c0,0,0,0.1,0,0.1l0,0
					c0,0,0,0.4,0.2,0.6c0.1,0.2,0.4,0.2,0.8,0.2c0.2,0,0.3,0.1,0.4,0.2c0.1,0.1,0.2,0.3,0.2,0.4l0,5C18.9,30.6,18.6,30.8,18.3,30.8z
					"/>
			</g>
		</g>
		<g>
			<g>
				<g>
					<path class="st2" d="M13.5,17.4c-1.4,0-2.5-1.1-2.5-2.4s1.1-2.4,2.5-2.4S16,13.7,16,15S14.9,17.4,13.5,17.4z M13.5,13.8
						c-0.7,0-1.3,0.6-1.3,1.2c0,0.7,0.6,1.2,1.3,1.2c0.7,0,1.3-0.6,1.3-1.2C14.8,14.3,14.2,13.8,13.5,13.8z"/>
				</g>
				<g>
					<path class="st2" d="M12.8,30.8C12.8,30.8,12.8,30.8,12.8,30.8c-0.3,0-0.6-0.3-0.6-0.6l0-3.7c-0.5-0.1-0.8-0.3-1.1-0.6
						c-0.5-0.6-0.5-1.3-0.4-1.5v-4c0-0.7,0.3-1.1,0.5-1.4c0.5-0.5,1.2-0.5,1.3-0.4l2,0c0.3,0,0.6,0.3,0.6,0.6s-0.3,0.6-0.6,0.6h-2.1
						c0,0-0.3,0-0.5,0.1c-0.1,0.1-0.1,0.3-0.1,0.5v4c0,0,0,0.1,0,0.1l0,0c0,0,0,0.4,0.2,0.6c0.1,0.2,0.4,0.2,0.8,0.2
						c0.2,0,0.3,0.1,0.4,0.2c0.1,0.1,0.2,0.3,0.2,0.4l0,4.2C13.4,30.5,13.1,30.8,12.8,30.8z"/>
				</g>
			</g>
			<g>
				<g>
					<path class="st2" d="M26.5,17.4c-1.4,0-2.5-1.1-2.5-2.4s1.1-2.4,2.5-2.4S29,13.7,29,15S27.9,17.4,26.5,17.4z M26.5,13.8
						c-0.7,0-1.3,0.6-1.3,1.2c0,0.7,0.6,1.2,1.3,1.2s1.3-0.6,1.3-1.2C27.8,14.3,27.2,13.8,26.5,13.8z"/>
				</g>
				<g>
					<path class="st2" d="M27.2,30.8c-0.3,0-0.6-0.3-0.6-0.6l0-4.2c0-0.2,0.1-0.3,0.2-0.4c0.1-0.1,0.3-0.2,0.4-0.2
						c0.4,0,0.6-0.1,0.8-0.2c0.2-0.2,0.2-0.6,0.2-0.6c0,0,0-0.1,0-0.1v-4c0-0.2,0-0.4-0.1-0.5c-0.2-0.1-0.4-0.1-0.4-0.1l-2.1,0
						c-0.3,0-0.6-0.3-0.6-0.6s0.3-0.6,0.6-0.6h2.1c0,0,0.7,0,1.3,0.4c0.2,0.2,0.5,0.6,0.5,1.4v4c0,0.2,0.1,0.9-0.4,1.5
						c-0.3,0.3-0.6,0.5-1.1,0.6l0,3.7C27.8,30.5,27.6,30.8,27.2,30.8C27.2,30.8,27.2,30.8,27.2,30.8z"/>
				</g>
			</g>
		</g>
	</g>
</g>
</svg>
