<?xml version="1.0" encoding="utf-8"?>
<!-- Generator: Adobe Illustrator 25.0.0, SVG Export Plug-In . SVG Version: 6.00 Build 0)  -->
<svg version="1.1" id="图层_1" xmlns="http://www.w3.org/2000/svg" xmlns:xlink="http://www.w3.org/1999/xlink" x="0px" y="0px"
	 viewBox="0 0 100 100" style="enable-background:new 0 0 100 100;" xml:space="preserve">
<style type="text/css">
	.st0{fill:#FFC0C0;}
	.st1{fill:#DC0816;}
</style>
<g>
	<g>
		<g>
			
				<ellipse transform="matrix(0.1602 -0.9871 0.9871 0.1602 0.5939 60.0225)" class="st0" cx="35.6" cy="29.7" rx="14.5" ry="14.5"/>
		</g>
		<g>
			<path class="st1" d="M47.2,79.2H23.9c-1.6,0-2.8-1.3-2.8-2.8V53.1c0-1.5,1.3-2.8,2.8-2.8h23.3c1.6,0,2.8,1.3,2.8,2.8v23.3
				C50,78,48.8,79.2,47.2,79.2z M26.7,73.6h17.7V55.9H26.7V73.6z"/>
		</g>
		<g>
			<path class="st1" d="M70.3,45.1c-0.7,0-1.5-0.3-2-0.8L55.7,31.6c-1.1-1.1-1.1-2.9,0-4L68.4,15c1.1-1.1,2.9-1.1,4,0L85,27.7
				c1.1,1.1,1.1,2.9,0,4L72.3,44.3C71.8,44.9,71.1,45.1,70.3,45.1z M61.6,29.7l8.7,8.7l8.7-8.7L70.3,21L61.6,29.7z"/>
		</g>
		<g>
			<path class="st1" d="M70.3,79.3c-8,0-14.5-6.5-14.5-14.5s6.5-14.5,14.5-14.5c8,0,14.5,6.5,14.5,14.5S78.4,79.3,70.3,79.3z
				 M70.3,55.8c-4.9,0-8.9,4-8.9,8.9c0,4.9,4,8.9,8.9,8.9c4.9,0,8.9-4,8.9-8.9C79.3,59.8,75.3,55.8,70.3,55.8z"/>
		</g>
	</g>
	<g>
		<path class="st1" d="M50,100c-6.5,0-13-1.3-19.1-3.8C18.6,91.1,9,81.5,3.8,69.1s-5.1-25.9,0-38.3C9,18.5,18.6,8.9,30.9,3.8
			c11.5-4.8,24.3-5.1,36-0.9c1.5,0.5,2.2,2.1,1.7,3.6C68.1,8,66.5,8.8,65,8.2C54.6,4.5,43.3,4.8,33,9C22.1,13.5,13.6,22.1,9,33
			C4.5,44,4.5,56,9,67c4.5,10.9,13.1,19.5,24,24s23,4.5,34,0c21.2-8.8,32.3-32.7,25.3-54.5c-0.5-1.5,0.3-3.1,1.8-3.5
			c1.5-0.5,3.1,0.3,3.5,1.8c7.9,24.6-4.6,51.6-28.5,61.5C63,98.7,56.5,100,50,100z"/>
	</g>
</g>
</svg>
