<?xml version="1.0" encoding="utf-8"?>
<!-- Generator: Adobe Illustrator 25.0.0, SVG Export Plug-In . SVG Version: 6.00 Build 0)  -->
<svg version="1.1" id="图层_1" xmlns="http://www.w3.org/2000/svg" xmlns:xlink="http://www.w3.org/1999/xlink" x="0px" y="0px"
	 viewBox="0 0 48 48" style="enable-background:new 0 0 48 48;" xml:space="preserve">
<style type="text/css">
	.st0{fill:#FFC0C0;}
	.st1{fill:#FFFFFF;}
	.st2{fill:#DC0816;}
</style>
<g>
	<g>
		<rect x="7.9" y="7.9" class="st0" width="32.1" height="32.1"/>
		<g>
			<path class="st1" d="M36.6,34.9c-0.1,0-0.3,0-0.4-0.1l-0.1,0.1c-1.6-0.5-3.8-0.8-6.1-0.8c-1.9,0-3.8,0.2-5.6,0.7
				c-0.2,0.1-0.4,0.2-0.7,0.1l0,0c-1.6-0.5-3.8-0.8-6.1-0.8c-2,0-4,0.2-6,0.8l0,0c-0.4,0.2-0.9,0-1.1-0.5c0-0.1-0.1-0.2-0.1-0.3
				V14.7c0-0.4,0.3-0.8,0.7-0.8c2.1-0.6,4.2-0.9,6.4-0.9c2.1,0,4.2,0.3,6.2,0.8c2-0.5,4.1-0.8,6.2-0.8c2.2,0,4.3,0.3,6.4,0.8l0,0
				c0.4-0.1,0.9,0.2,1,0.7c0,0.1,0,0.1,0,0.2v19.3C37.4,34.5,37.1,34.9,36.6,34.9z M23.2,15.4c-1.8-0.4-3.6-0.7-5.5-0.7
				c-1.8,0-3.7,0.2-5.5,0.7V33c1.8-0.4,3.6-0.6,5.5-0.6c1.8,0,3.7,0.2,5.5,0.6V15.4z M24.8,15.3v17.6c1.7-0.4,3.5-0.6,5.3-0.6
				c1.9,0,3.8,0.2,5.7,0.6V15.5c-1.9-0.5-3.8-0.7-5.7-0.7C28.3,14.7,26.6,14.9,24.8,15.3L24.8,15.3z"/>
			<path class="st1" d="M33.9,24.4c-0.1,0-0.2,0-0.3-0.1c-0.9-0.1-1.9-0.1-2.8-0.1c-1.2,0-2.5,0.1-3.7,0.3l0-0.1c-0.1,0-0.2,0-0.3,0
				c-0.5,0-0.8-0.3-0.8-0.8c0-0.5,0.3-0.8,0.8-0.8c0,0,0,0,0,0c0.1,0,0.1,0,0.2,0c1.3-0.2,2.5-0.2,3.8-0.2c1.1,0,2.2,0.1,3.3,0.2
				l0,0c0.4,0,0.8,0.5,0.7,0.9C34.7,24.1,34.3,24.4,33.9,24.4L33.9,24.4z M33.9,19.7c-0.1,0-0.2,0-0.3-0.1c-0.9-0.1-1.9-0.1-2.8-0.1
				c-1.2,0-2.5,0.1-3.7,0.3l0-0.1c-0.1,0-0.2,0-0.3,0c-0.5,0-0.8-0.3-0.8-0.8c0-0.5,0.3-0.8,0.8-0.8c0,0,0,0,0,0c0.1,0,0.1,0,0.2,0
				c1.3-0.2,2.5-0.2,3.8-0.2c1.1,0,2.2,0.1,3.3,0.2l0,0c0.4,0,0.8,0.5,0.7,0.9C34.7,19.4,34.3,19.8,33.9,19.7L33.9,19.7z M21.3,29
				c-0.1,0-0.2,0-0.3,0l0,0.1c-1.2-0.2-2.5-0.3-3.7-0.3c-0.9,0-1.9,0-2.8,0.1c-0.1,0-0.2,0.1-0.3,0.1c-0.5,0-0.8-0.4-0.8-0.8
				c0-0.4,0.3-0.8,0.7-0.8l0,0c1.1-0.1,2.2-0.2,3.3-0.2c1.3,0,2.5,0.1,3.8,0.2c0.1,0,0.1,0,0.2,0c0.5,0,0.8,0.4,0.8,0.8
				C22.1,28.6,21.7,29,21.3,29C21.3,29,21.3,29,21.3,29L21.3,29z M21.3,24.4c-0.1,0-0.2,0-0.3,0l0,0.1c-1.2-0.2-2.5-0.3-3.7-0.3
				c-0.9,0-1.9,0-2.8,0.1c-0.1,0-0.2,0.1-0.3,0.1c-0.5,0-0.8-0.4-0.8-0.8c0-0.4,0.3-0.8,0.7-0.8l0,0c1.1-0.1,2.2-0.2,3.3-0.2
				c1.3,0,2.5,0.1,3.8,0.2c0.1,0,0.1,0,0.2,0c0.5,0,0.8,0.4,0.8,0.8C22.1,24,21.7,24.4,21.3,24.4z M21.3,19.7c-0.1,0-0.2,0-0.3,0
				l0,0.1c-1.2-0.2-2.5-0.3-3.7-0.3c-0.9,0-1.9,0-2.8,0.1c-0.1,0-0.2,0.1-0.3,0.1c-0.5,0-0.8-0.4-0.8-0.8c0-0.4,0.3-0.8,0.7-0.8l0,0
				c1.1-0.1,2.2-0.2,3.3-0.2c1.3,0,2.5,0.1,3.8,0.2c0.1,0,0.1,0,0.2,0c0.5,0,0.8,0.4,0.8,0.8C22.1,19.4,21.7,19.7,21.3,19.7z
				 M26.7,27.3c0.1,0,0.1,0,0.2,0c1.3-0.2,2.5-0.2,3.8-0.2c1.1,0,2.2,0.1,3.3,0.2l0,0c0.4,0,0.8,0.5,0.7,0.9c0,0.4-0.4,0.7-0.8,0.7
				c-0.1,0-0.2,0-0.3-0.1c-0.9-0.1-1.9-0.1-2.8-0.1c-1.2,0-2.5,0.1-3.7,0.3l0-0.1c-0.1,0-0.2,0-0.3,0c-0.5,0-0.8-0.3-0.8-0.8
				C25.9,27.7,26.2,27.4,26.7,27.3C26.7,27.3,26.7,27.3,26.7,27.3z"/>
		</g>
	</g>
	<path class="st2" d="M1.3,16.9L1.3,16.9c0.7,0,1.3-0.6,1.3-1.3V2.7h12c0.7,0,1.3-0.6,1.3-1.3l0,0c0-0.7-0.6-1.3-1.3-1.3H1.3
		C0.6,0,0,0.6,0,1.3v14.3C0,16.3,0.6,16.9,1.3,16.9z M32,1.3L32,1.3c0,0.7,0.6,1.3,1.3,1.3h12v12.9c0,0.7,0.6,1.3,1.3,1.3l0,0
		c0.7,0,1.3-0.6,1.3-1.3V1.3C48,0.6,47.4,0,46.7,0H33.4C32.6,0,32,0.6,32,1.3z M46.7,31.1L46.7,31.1c-0.7,0-1.3,0.6-1.3,1.3v12.9
		h-12c-0.7,0-1.3,0.6-1.3,1.3l0,0c0,0.7,0.6,1.3,1.3,1.3h13.3c0.7,0,1.3-0.6,1.3-1.3V32.4C48,31.7,47.4,31.1,46.7,31.1z M15.9,46.7
		L15.9,46.7c0-0.7-0.6-1.3-1.3-1.3h-12V32.4c0-0.7-0.6-1.3-1.3-1.3l0,0c-0.7,0-1.3,0.6-1.3,1.3v14.3C0,47.4,0.6,48,1.3,48h13.3
		C15.4,48,15.9,47.4,15.9,46.7z"/>
</g>
</svg>
