<?xml version="1.0" encoding="utf-8"?>
<!-- Generator: Adobe Illustrator 25.0.0, SVG Export Plug-In . SVG Version: 6.00 Build 0)  -->
<svg version="1.1" id="图层_1" xmlns="http://www.w3.org/2000/svg" xmlns:xlink="http://www.w3.org/1999/xlink" x="0px" y="0px"
	 viewBox="0 0 40 40" style="enable-background:new 0 0 40 40;" xml:space="preserve">
<style type="text/css">
	.st0{fill:#FFC0C0;}
	.st1{fill:#FFFFFF;}
	.st2{fill:#DC0816;}
</style>
<g>
	<ellipse transform="matrix(0.2796 -0.9601 0.9601 0.2796 -4.7425 33.5654)" class="st0" cx="20" cy="19.9" rx="14.3" ry="14.3"/>
</g>
<g>
	<g>
		<path class="st1" d="M20,30.6c-5.9,0-10.7-4.8-10.7-10.7S14.1,9.2,20,9.2c5.9,0,10.7,4.8,10.7,10.7S25.9,30.6,20,30.6z M20,10.6
			c-5.2,0-9.4,4.2-9.4,9.4s4.2,9.4,9.4,9.4s9.4-4.2,9.4-9.4S25.2,10.6,20,10.6z"/>
	</g>
	<g>
		<path class="st1" d="M20,30.7c-2.5,0-3.8-5.4-3.8-10.7S17.5,9.2,20,9.2s3.8,5.4,3.8,10.7S22.5,30.7,20,30.7z M20,10.7
			c-0.8,0-2.3,3.3-2.3,9.2s1.5,9.2,2.3,9.2s2.3-3.3,2.3-9.2S20.8,10.7,20,10.7z"/>
	</g>
	<g>
		<rect x="10" y="19.2" class="st1" width="20.1" height="1.5"/>
	</g>
	<g>
		<path class="st1" d="M20,17.2c-3.8,0-7.9-2.3-8.1-2.4l0.7-1.3c0,0,4,2.2,7.4,2.2s7.4-2.2,7.4-2.2l0.7,1.3
			C27.9,14.9,23.8,17.2,20,17.2z"/>
	</g>
	<g>
		<path class="st1" d="M27.4,26.3c0,0-4-2.2-7.4-2.2s-7.4,2.2-7.4,2.2L11.9,25c0.2-0.1,4.3-2.4,8.1-2.4s7.9,2.3,8.1,2.4L27.4,26.3z"
			/>
	</g>
</g>
<g>
	<path class="st2" d="M33.1,39.9c-0.2,0-0.4-0.1-0.6-0.2l-5-3.3c-0.5-0.3-0.6-1-0.3-1.4c0.3-0.5,1-0.6,1.4-0.3l4.2,2.7l5.3-8.1
		c0.3-0.5,1-0.6,1.4-0.3c0.5,0.3,0.6,1,0.3,1.4L34,39.5C33.8,39.8,33.4,39.9,33.1,39.9z"/>
</g>
<g>
	<path class="st2" d="M20.1,40C12,40,4.4,35.1,1.4,27.2C-2.6,17,2.5,5.4,12.8,1.4c10.3-4,21.9,1.1,25.9,11.4c1.8,4.6,1.8,9.8,0,14.4
		c-0.2,0.5-0.8,0.8-1.4,0.6c-0.5-0.2-0.8-0.8-0.6-1.4c1.6-4.2,1.6-8.7,0-12.9c-3.6-9.2-14-13.8-23.2-10.2C4.3,6.9-0.3,17.3,3.3,26.5
		c3.4,8.6,12.9,13.3,21.8,10.7c0.6-0.2,1.1,0.2,1.3,0.7c0.2,0.6-0.2,1.1-0.7,1.3C23.8,39.7,21.9,40,20.1,40z"/>
</g>
</svg>
