<?xml version="1.0" encoding="utf-8"?>
<!-- Generator: Adobe Illustrator 25.0.0, SVG Export Plug-In . SVG Version: 6.00 Build 0)  -->
<svg version="1.1" id="图层_1" xmlns="http://www.w3.org/2000/svg" xmlns:xlink="http://www.w3.org/1999/xlink" x="0px" y="0px"
	 viewBox="0 0 40 40" style="enable-background:new 0 0 40 40;" xml:space="preserve">
<style type="text/css">
	.st0{fill:#DC0816;}
	.st1{fill:#FFC0C0;}
	.st2{fill:#D11A21;}
</style>
<g>
	<g>
		<g>
			<path class="st0" d="M20,40c-9,0-17.2-6.2-19.4-15.2c-1.3-5.2-0.5-10.6,2.3-15.1C5.6,5.1,10,1.9,15.2,0.6
				c5.2-1.3,10.6-0.5,15.1,2.3c4.6,2.8,7.8,7.1,9.1,12.3c1.2,4.8,0.6,9.9-1.8,14.3c-0.3,0.5-0.9,0.7-1.5,0.4
				c-0.5-0.3-0.7-0.9-0.4-1.5c2.1-3.9,2.7-8.4,1.6-12.8c-1.1-4.6-4-8.5-8.1-11c-4.1-2.5-8.9-3.2-13.5-2c-4.6,1.1-8.5,4-11,8.1
				c-2.5,4.1-3.2,8.9-2,13.5c2.2,8.9,11.1,14.8,20.2,13.3l0.1,0c2.6-0.4,4.5-1.2,5.3-1.7v-25c0-0.6,0.5-1.1,1.1-1.1
				c0.6,0,1.1,0.5,1.1,1.1v25.7c0,0.4-0.2,0.7-0.5,0.9c-0.1,0.1-2.5,1.6-6.6,2.3l-0.1,0C22.1,39.9,21.1,40,20,40z"/>
		</g>
		<g>
			<path class="st1" d="M26.2,25.5c0-1.7,1.4-3.1,3.1-3.1s3.1,1.4,3.1,3.1s-1.4,3.1-3.1,3.1S26.2,27.2,26.2,25.5z"/>
			<path class="st2" d="M29.3,29.7c-2.3,0-4.2-1.9-4.2-4.2s1.9-4.2,4.2-4.2s4.2,1.9,4.2,4.2S31.6,29.7,29.3,29.7z M29.3,23.4
				c-1.1,0-2.1,0.9-2.1,2.1s0.9,2.1,2.1,2.1c1.1,0,2.1-0.9,2.1-2.1S30.5,23.4,29.3,23.4z"/>
		</g>
	</g>
	<g>
		<g>
			<path class="st0" d="M20.1,32.7c-0.6,0-1.1-0.5-1.1-1.1V8.3c0-0.6,0.5-1.1,1.1-1.1c0.6,0,1.1,0.5,1.1,1.1v23.4
				C21.2,32.2,20.7,32.7,20.1,32.7z"/>
		</g>
		<g>
			<path class="st1" d="M17,20c0-1.7,1.4-3.1,3.1-3.1s3.1,1.4,3.1,3.1s-1.4,3.1-3.1,3.1S17,21.7,17,20z"/>
			<path class="st2" d="M20.1,24.1c-2.3,0-4.2-1.9-4.2-4.2s1.9-4.2,4.2-4.2s4.2,1.9,4.2,4.2S22.4,24.1,20.1,24.1z M20.1,17.9
				C19,17.9,18,18.8,18,20S19,22,20.1,22s2.1-0.9,2.1-2.1S21.3,17.9,20.1,17.9z"/>
		</g>
	</g>
	<g>
		<g>
			<path class="st0" d="M10.9,29.7c-0.6,0-1.1-0.5-1.1-1.1V17.1c0-0.6,0.5-1.1,1.1-1.1c0.6,0,1.1,0.5,1.1,1.1v11.5
				C12,29.2,11.5,29.7,10.9,29.7z"/>
		</g>
		<g>
			<path class="st1" d="M14.1,14c0,1.7-1.4,3.1-3.1,3.1S7.8,15.7,7.8,14s1.4-3.1,3.1-3.1S14.1,12.3,14.1,14z"/>
			<path class="st2" d="M10.9,18.2c-2.3,0-4.2-1.9-4.2-4.2s1.9-4.2,4.2-4.2s4.2,1.9,4.2,4.2S13.2,18.2,10.9,18.2z M10.9,11.9
				c-1.1,0-2.1,0.9-2.1,2.1s0.9,2.1,2.1,2.1S13,15.2,13,14S12.1,11.9,10.9,11.9z"/>
		</g>
	</g>
</g>
</svg>
