<?xml version="1.0" encoding="utf-8"?>
<!-- Generator: Adobe Illustrator 25.0.0, SVG Export Plug-In . SVG Version: 6.00 Build 0)  -->
<svg version="1.1" id="图层_1" xmlns="http://www.w3.org/2000/svg" xmlns:xlink="http://www.w3.org/1999/xlink" x="0px" y="0px"
	 viewBox="0 0 40 40" style="enable-background:new 0 0 40 40;" xml:space="preserve">
<style type="text/css">
	.st0{fill:#FFC0C0;}
	.st1{fill:#DC0816;}
	.st2{fill:#FFFFFF;}
	.st3{fill:#DF111E;}
</style>
<g>
	<g>
		<g>
			<rect x="6.6" y="6.6" class="st0" width="26.8" height="26.8"/>
		</g>
		<g>
			<path class="st1" d="M1.1,14.1L1.1,14.1c0.6,0,1.1-0.5,1.1-1.1V2.2h10c0.6,0,1.1-0.5,1.1-1.1l0,0c0-0.6-0.5-1.1-1.1-1.1H1.1
				C0.5,0,0,0.5,0,1.1V13C0,13.6,0.5,14.1,1.1,14.1z M26.7,1.1L26.7,1.1c0,0.6,0.5,1.1,1.1,1.1h10V13c0,0.6,0.5,1.1,1.1,1.1l0,0
				c0.6,0,1.1-0.5,1.1-1.1V1.1C40,0.5,39.5,0,38.9,0H27.8C27.2,0,26.7,0.5,26.7,1.1z M38.9,25.9L38.9,25.9c-0.6,0-1.1,0.5-1.1,1.1
				v10.8h-10c-0.6,0-1.1,0.5-1.1,1.1l0,0c0,0.6,0.5,1.1,1.1,1.1h11.1c0.6,0,1.1-0.5,1.1-1.1V27C40,26.4,39.5,25.9,38.9,25.9z
				 M13.3,38.9L13.3,38.9c0-0.6-0.5-1.1-1.1-1.1h-10V27c0-0.6-0.5-1.1-1.1-1.1l0,0C0.5,25.9,0,26.4,0,27v11.9C0,39.5,0.5,40,1.1,40
				h11.1C12.8,40,13.3,39.5,13.3,38.9z"/>
		</g>
	</g>
	<g>
		<g>
			<path class="st2" d="M24.6,31.3c-0.6,0-1.1-0.4-1.3-1L21.8,26l-1.7-1.7c-1,1.8-3.4,6.3-3.4,6.3c-0.3,0.6-0.9,0.8-1.6,0.7
				c-0.4-0.1-0.7-0.4-0.9-0.7c-0.2-0.3-0.2-0.7,0-1.1l3.2-8.3L17.3,17l-0.5,0.5l-1.2,3.6c-0.1,0.7-0.6,1.2-1.3,1.2
				c-0.4,0-0.7-0.1-0.9-0.4c-0.3-0.3-0.4-0.6-0.4-1c0-0.1,0-0.1,0-0.2l1.3-4.4c0-0.2,0.1-0.4,0.3-0.6l2.6-2.8
				c0.6-0.6,1.5-0.8,2.2-0.4l2.1,1.1c0.7,0.4,1.1,1.1,1,1.9l-0.2,2l2.9,2c0.6,0.4,0.7,1.2,0.3,1.8c-0.2,0.3-0.5,0.5-0.9,0.5
				c-0.3,0.1-0.7,0-1-0.2L22,20.4c0,0.1,0.1,0.3,0.1,0.4l2.4,3.5c0.2,0.3,0.3,0.6,0.4,0.9l1,4.5c0.1,0.4,0,0.8-0.3,1.1
				C25.4,31.1,25,31.3,24.6,31.3z M20,22.7C20,22.7,20,22.7,20,22.7c0.2,0,0.3,0.1,0.4,0.2l2.4,2.4c0.1,0.1,0.1,0.1,0.1,0.2l1.5,4.5
				c0,0.2,0.2,0.1,0.2,0.1c0,0,0-0.1,0-0.1l-1-4.5c0-0.2-0.1-0.4-0.2-0.5l-2.4-3.5l0,0c-0.3-0.4-0.4-0.9-0.3-1.3l0.1-0.9
				c0-0.2,0.2-0.4,0.4-0.5c0.2-0.1,0.4-0.1,0.6,0.1l2.6,1.8c0,0,0.1,0,0.1,0c0,0,0.1,0,0.1,0c0-0.1,0-0.1,0-0.2l-2.9-2
				c-0.4-0.3-0.6-0.7-0.5-1.1l0.2-2c0-0.3-0.1-0.6-0.4-0.7l-2.1-1.1c-0.3-0.1-0.6-0.1-0.8,0.1l-2.6,2.8c0,0,0,0.1,0,0.1l0,0.1
				L14.2,21c0,0,0,0,0,0c0,0,0.2,0,0.2-0.1c0-0.1,0-0.1,0-0.2l1.3-3.8c0-0.1,0.1-0.2,0.1-0.2l1.6-1.6c0.2-0.2,0.4-0.2,0.7-0.1
				c0.2,0.1,0.4,0.3,0.4,0.5l0.1,5.7c0,0.1,0,0.2,0,0.2l-3.2,8.4c0,0,0,0.1,0,0.1s0.1,0.1,0.2,0.1c0.2,0,0.2,0,0.2-0.1
				C19.5,22.9,19.6,22.7,20,22.7z M21.6,13.1c-0.2,0-0.4,0-0.6-0.1l0,0c-0.8-0.2-1.5-0.9-1.7-1.7c-0.2-0.8,0-1.7,0.6-2.3
				c0.6-0.6,1.4-0.8,2.3-0.6c0.8,0.2,1.5,0.9,1.7,1.7c0.2,0.8,0,1.7-0.6,2.3C22.8,12.8,22.2,13.1,21.6,13.1z M21.6,9.5
				c-0.3,0-0.6,0.1-0.8,0.3c-0.3,0.3-0.4,0.7-0.3,1.1c0.1,0.4,0.4,0.7,0.8,0.8v0c0.4,0.1,0.9,0,1.2-0.3c0.3-0.3,0.4-0.7,0.3-1.1
				c-0.1-0.4-0.4-0.7-0.9-0.8C21.8,9.5,21.7,9.5,21.6,9.5z"/>
		</g>
	</g>
	<g>
		<path class="st3" d="M10.5,20L10.5,20c0-0.3,0.3-0.6,0.6-0.6h17.8c0.3,0,0.6,0.3,0.6,0.6l0,0c0,0.3-0.3,0.6-0.6,0.6H11.1
			C10.8,20.6,10.5,20.3,10.5,20z"/>
	</g>
</g>
</svg>
