<?xml version="1.0" encoding="utf-8"?>
<!-- Generator: Adobe Illustrator 25.0.0, SVG Export Plug-In . SVG Version: 6.00 Build 0)  -->
<svg version="1.1" id="图层_1" xmlns="http://www.w3.org/2000/svg" xmlns:xlink="http://www.w3.org/1999/xlink" x="0px" y="0px"
	 viewBox="0 0 40 40" style="enable-background:new 0 0 40 40;" xml:space="preserve">
<style type="text/css">
	.st0{fill:#FFC0C0;}
	.st1{fill:#FFFFFF;}
	.st2{fill:#DC0816;}
</style>
<g>
	<g>
		<g>
			<rect x="6.6" y="6.6" class="st0" width="26.8" height="26.8"/>
		</g>
		<g>
			<path class="st1" d="M29.7,30.3H10.3c-0.3,0-0.6-0.3-0.6-0.6V10.3c0-0.3,0.3-0.6,0.6-0.6h19.3c0.3,0,0.6,0.3,0.6,0.6v19.3
				C30.3,30,30,30.3,29.7,30.3z M10.9,29.1h18.1V10.9H10.9V29.1z"/>
		</g>
		<g>
			<g>
				<path class="st1" d="M15.8,19.6c-0.3,0-0.6-0.3-0.6-0.6v-6.3c0-0.3,0.3-0.6,0.6-0.6s0.6,0.3,0.6,0.6V19
					C16.4,19.3,16.2,19.6,15.8,19.6z"/>
			</g>
			<g>
				<path class="st1" d="M13.8,27c-0.2,0-0.3-0.1-0.4-0.2c-0.2-0.2-0.2-0.6,0-0.9l4.4-4.4c0.2-0.2,0.6-0.2,0.9,0
					c0.2,0.2,0.2,0.6,0,0.9l-4.4,4.4C14.1,26.9,14,27,13.8,27z"/>
			</g>
			<g>
				<path class="st1" d="M18.2,27c-0.2,0-0.3-0.1-0.4-0.2l-4.4-4.4c-0.2-0.2-0.2-0.6,0-0.9c0.2-0.2,0.6-0.2,0.9,0l4.4,4.4
					c0.2,0.2,0.2,0.6,0,0.9C18.6,26.9,18.4,27,18.2,27z"/>
			</g>
			<g>
				<path class="st1" d="M19,16.4h-6.3c-0.3,0-0.6-0.3-0.6-0.6c0-0.3,0.3-0.6,0.6-0.6H19c0.3,0,0.6,0.3,0.6,0.6
					C19.6,16.2,19.3,16.4,19,16.4z"/>
			</g>
			<g>
				<path class="st1" d="M27.3,16.4h-5.5c-0.3,0-0.6-0.3-0.6-0.6c0-0.3,0.3-0.6,0.6-0.6h5.5c0.3,0,0.6,0.3,0.6,0.6
					C27.9,16.2,27.6,16.4,27.3,16.4z"/>
			</g>
			<g>
				<g>
					<path class="st1" d="M27.3,23.2h-5.5c-0.3,0-0.6-0.3-0.6-0.6s0.3-0.6,0.6-0.6h5.5c0.3,0,0.6,0.3,0.6,0.6S27.6,23.2,27.3,23.2z"
						/>
				</g>
				<g>
					<path class="st1" d="M27.3,26.3h-5.5c-0.3,0-0.6-0.3-0.6-0.6s0.3-0.6,0.6-0.6h5.5c0.3,0,0.6,0.3,0.6,0.6S27.6,26.3,27.3,26.3z"
						/>
				</g>
			</g>
		</g>
	</g>
	<g>
		<path class="st2" d="M1.1,14.1L1.1,14.1c0.6,0,1.1-0.5,1.1-1.1V2.2h10c0.6,0,1.1-0.5,1.1-1.1l0,0c0-0.6-0.5-1.1-1.1-1.1H1.1
			C0.5,0,0,0.5,0,1.1V13C0,13.6,0.5,14.1,1.1,14.1z M26.7,1.1L26.7,1.1c0,0.6,0.5,1.1,1.1,1.1h10V13c0,0.6,0.5,1.1,1.1,1.1l0,0
			c0.6,0,1.1-0.5,1.1-1.1V1.1C40,0.5,39.5,0,38.9,0H27.8C27.2,0,26.7,0.5,26.7,1.1z M38.9,25.9L38.9,25.9c-0.6,0-1.1,0.5-1.1,1.1
			v10.8h-10c-0.6,0-1.1,0.5-1.1,1.1l0,0c0,0.6,0.5,1.1,1.1,1.1h11.1c0.6,0,1.1-0.5,1.1-1.1V27C40,26.4,39.5,25.9,38.9,25.9z
			 M13.3,38.9L13.3,38.9c0-0.6-0.5-1.1-1.1-1.1h-10V27c0-0.6-0.5-1.1-1.1-1.1l0,0C0.5,25.9,0,26.4,0,27v11.9C0,39.5,0.5,40,1.1,40
			h11.1C12.8,40,13.3,39.5,13.3,38.9z"/>
	</g>
</g>
</svg>
