<?xml version="1.0" encoding="utf-8"?>
<!-- Generator: Adobe Illustrator 25.0.0, SVG Export Plug-In . SVG Version: 6.00 Build 0)  -->
<svg version="1.1" id="图层_1" xmlns="http://www.w3.org/2000/svg" xmlns:xlink="http://www.w3.org/1999/xlink" x="0px" y="0px"
	 viewBox="0 0 40 40" style="enable-background:new 0 0 40 40;" xml:space="preserve">
<style type="text/css">
	.st0{fill:#FFC0C0;}
	.st1{fill:#FFFFFF;}
	.st2{fill:#DC0816;}
</style>
<g>
	<g>
		<g>
			<rect x="6.6" y="6.6" class="st0" width="26.8" height="26.8"/>
		</g>
		<g>
			<path class="st1" d="M30,30H10c-0.3,0-0.6-0.3-0.6-0.6V10.6c0-0.3,0.3-0.6,0.6-0.6H30c0.3,0,0.6,0.3,0.6,0.6v18.8
				C30.6,29.7,30.4,30,30,30z M10.6,28.8h18.8V11.2H10.6V28.8z"/>
		</g>
		<g>
			<g>
				<path class="st1" d="M26.9,26.5H13.1c-0.3,0-0.6-0.3-0.6-0.6s0.3-0.6,0.6-0.6h13.9c0.3,0,0.6,0.3,0.6,0.6S27.3,26.5,26.9,26.5z"
					/>
			</g>
			<g>
				<path class="st1" d="M26.9,18.5h-6.3c-0.3,0-0.6-0.3-0.6-0.6s0.3-0.6,0.6-0.6h6.3c0.3,0,0.6,0.3,0.6,0.6S27.3,18.5,26.9,18.5z"
					/>
			</g>
			<g>
				<path class="st1" d="M26.9,14.5h-6.3c-0.3,0-0.6-0.3-0.6-0.6c0-0.3,0.3-0.6,0.6-0.6h6.3c0.3,0,0.6,0.3,0.6,0.6
					C27.5,14.2,27.3,14.5,26.9,14.5z"/>
			</g>
			<g>
				<g>
					<path class="st1" d="M15.3,19.2c-0.3,0-0.6-0.3-0.6-0.6v-5.1c0-0.3,0.3-0.6,0.6-0.6c0.3,0,0.6,0.3,0.6,0.6v5.1
						C15.9,18.9,15.6,19.2,15.3,19.2z"/>
				</g>
				<g>
					<path class="st1" d="M17.5,14h-4.5c-0.3,0-0.6-0.3-0.6-0.6s0.3-0.6,0.6-0.6h4.5c0.3,0,0.6,0.3,0.6,0.6S17.9,14,17.5,14z"/>
				</g>
			</g>
			<g>
				<path class="st1" d="M26.9,22.5H13.1c-0.3,0-0.6-0.3-0.6-0.6c0-0.3,0.3-0.6,0.6-0.6h13.9c0.3,0,0.6,0.3,0.6,0.6
					C27.5,22.2,27.3,22.5,26.9,22.5z"/>
			</g>
		</g>
	</g>
	<g>
		<path class="st2" d="M1.1,14.1L1.1,14.1c0.6,0,1.1-0.5,1.1-1.1V2.2h10c0.6,0,1.1-0.5,1.1-1.1l0,0c0-0.6-0.5-1.1-1.1-1.1H1.1
			C0.5,0,0,0.5,0,1.1V13C0,13.6,0.5,14.1,1.1,14.1z M26.7,1.1L26.7,1.1c0,0.6,0.5,1.1,1.1,1.1h10V13c0,0.6,0.5,1.1,1.1,1.1l0,0
			c0.6,0,1.1-0.5,1.1-1.1V1.1C40,0.5,39.5,0,38.9,0H27.8C27.2,0,26.7,0.5,26.7,1.1z M38.9,25.9L38.9,25.9c-0.6,0-1.1,0.5-1.1,1.1
			v10.8h-10c-0.6,0-1.1,0.5-1.1,1.1l0,0c0,0.6,0.5,1.1,1.1,1.1h11.1c0.6,0,1.1-0.5,1.1-1.1V27C40,26.4,39.5,25.9,38.9,25.9z
			 M13.3,38.9L13.3,38.9c0-0.6-0.5-1.1-1.1-1.1h-10V27c0-0.6-0.5-1.1-1.1-1.1l0,0C0.5,25.9,0,26.4,0,27v11.9C0,39.5,0.5,40,1.1,40
			h11.1C12.8,40,13.3,39.5,13.3,38.9z"/>
	</g>
</g>
</svg>
