<?xml version="1.0" encoding="utf-8"?>
<!-- Generator: Adobe Illustrator 25.0.0, SVG Export Plug-In . SVG Version: 6.00 Build 0)  -->
<svg version="1.1" id="图层_1" xmlns="http://www.w3.org/2000/svg" xmlns:xlink="http://www.w3.org/1999/xlink" x="0px" y="0px"
	 viewBox="0 0 100 100" style="enable-background:new 0 0 100 100;" xml:space="preserve">
<style type="text/css">
	.st0{fill:#D11A21;}
	.st1{fill:#FFC0C0;}
	.st2{fill:#FFFFFF;}
</style>
<g>
	<g>
		<g>
			<g>
				<path class="st0" d="M51.4,100c-6.6,0-28.3-7.1-36.9-15C5.7,76.9,6,61.1,6.1,60.5l0-44.4c0-1.4,1-2.5,2.4-2.6
					C27.9,11.9,50,0.4,50.2,0.3c0.8-0.4,1.7-0.4,2.4,0C52.9,0.4,75,11.9,94.4,13.5c1.4,0.1,2.4,1.2,2.4,2.6v44.4
					c0,1.1,0.2,16.5-8.5,24.5C79.7,92.9,58,100,51.4,100z M11.3,18.4v42.1c0,0.2-0.3,14.1,6.8,20.6c7.4,6.8,27.6,13.7,33.4,13.7
					c5.8,0,26-6.9,33.4-13.7c7.1-6.5,6.8-20.4,6.8-20.5c0,0,0-0.1,0-0.1V18.4c-17.3-2-35.3-10.5-40.1-12.9
					C46.6,7.9,28.6,16.5,11.3,18.4z"/>
			</g>
		</g>
		<g>
			<g>
				<path class="st1" d="M82.9,57.6v-32c-14.5-1.1-31.5-9.7-31.5-9.7s-17,8.5-31.5,9.7v32c0,0-0.3,10.9,5.5,16.2s21.6,10.3,26,10.3
					s20.2-5,26-10.3C83.2,68.4,82.9,57.6,82.9,57.6z"/>
			</g>
		</g>
	</g>
	<g>
		<g>
			<path class="st2" d="M51.4,42.9c-4,0-7.3-3.3-7.3-7.3c0-4,3.3-7.3,7.3-7.3c4,0,7.3,3.3,7.3,7.3C58.7,39.7,55.4,42.9,51.4,42.9z
				 M51.4,31.4c-2.3,0-4.2,1.9-4.2,4.2c0,2.3,1.9,4.2,4.2,4.2c2.3,0,4.2-1.9,4.2-4.2C55.7,33.3,53.8,31.4,51.4,31.4z"/>
		</g>
		<g>
			<path class="st2" d="M34.8,71.6c-4,0-7.3-3.3-7.3-7.3s3.3-7.3,7.3-7.3s7.3,3.3,7.3,7.3S38.9,71.6,34.8,71.6z M34.8,60.1
				c-2.3,0-4.2,1.9-4.2,4.2c0,2.3,1.9,4.2,4.2,4.2s4.2-1.9,4.2-4.2C39.1,62,37.2,60.1,34.8,60.1z"/>
		</g>
		<g>
			<path class="st2" d="M68,71.6c-4,0-7.3-3.3-7.3-7.3s3.3-7.3,7.3-7.3c4,0,7.3,3.3,7.3,7.3S72,71.6,68,71.6z M68,60.1
				c-2.3,0-4.2,1.9-4.2,4.2c0,2.3,1.9,4.2,4.2,4.2c2.3,0,4.2-1.9,4.2-4.2C72.2,62,70.3,60.1,68,60.1z"/>
		</g>
		<g>
			<rect x="58.2" y="39.2" transform="matrix(0.866 -0.5 0.5 0.866 -16.9992 36.5554)" class="st2" width="3" height="21.7"/>
		</g>
		<g>
			<rect x="40.6" y="62.8" class="st2" width="21.6" height="3"/>
		</g>
		<g>
			
				<rect x="32.3" y="48.5" transform="matrix(0.4996 -0.8663 0.8663 0.4996 -21.7285 62.3898)" class="st2" width="21.7" height="3"/>
		</g>
	</g>
</g>
</svg>
