<?xml version="1.0" encoding="utf-8"?>
<!-- Generator: Adobe Illustrator 25.0.0, SVG Export Plug-In . SVG Version: 6.00 Build 0)  -->
<svg version="1.1" id="图层_1" xmlns="http://www.w3.org/2000/svg" xmlns:xlink="http://www.w3.org/1999/xlink" x="0px" y="0px"
	 viewBox="0 0 100 100" style="enable-background:new 0 0 100 100;" xml:space="preserve">
<style type="text/css">
	.st0{fill:#DC0816;}
	.st1{fill:#FFC0C0;}
	.st2{fill:#D11A21;}
</style>
<g>
	<g>
		<g>
			<g>
				<path class="st0" d="M55,97.8c-1.6,0-2.9-1.2-3-2.8c-0.1-1.6,1.2-3,2.8-3.1c8-0.4,15.6-3.2,22.1-7.9
					C95.5,70.5,99.5,44.5,86.1,26c-4.6-6.3-10.8-11.1-17.9-14c-1.5-0.6-2.3-2.4-1.6-3.9c0.6-1.5,2.3-2.3,3.9-1.6
					c8.2,3.3,15.3,8.9,20.5,16c7.5,10.2,10.5,22.8,8.5,35.3s-8.7,23.5-18.9,30.9c-7.4,5.4-16.2,8.5-25.3,9
					C55.1,97.8,55.1,97.8,55,97.8z"/>
			</g>
			<g>
				<g>
					<path class="st0" d="M68.6,20.8c-1.2,0-2.3-0.7-2.8-1.8L61.6,8.5c-0.6-1.5,0.1-3.3,1.6-3.9c1.5-0.6,3.3,0.1,3.9,1.6l4.3,10.5
						c0.6,1.5-0.1,3.3-1.6,3.9C69.4,20.7,69,20.8,68.6,20.8z"/>
				</g>
				<g>
					<path class="st0" d="M64.3,10.3c-1.2,0-2.3-0.7-2.8-1.8c-0.6-1.5,0.1-3.3,1.6-3.9l10.5-4.3c1.5-0.6,3.3,0.1,3.9,1.6
						c0.6,1.5-0.1,3.3-1.6,3.9l-10.5,4.3C65.1,10.2,64.7,10.3,64.3,10.3z"/>
				</g>
			</g>
		</g>
		<g>
			<g>
				<path class="st0" d="M30.7,93.7c-0.4,0-0.7-0.1-1.1-0.2c-8.2-3.3-15.3-8.9-20.5-16C1.6,67.3-1.4,54.7,0.6,42.2
					c2-12.5,8.7-23.5,18.9-30.9c7.8-5.7,17-8.8,26.6-9.1c1.7,0,3,1.3,3.1,2.9c0,1.6-1.3,3-2.9,3.1c-8.4,0.2-16.4,3-23.3,7.9
					C14.1,22.6,8.2,32.2,6.5,43.2C4.7,54.1,7.4,65,13.9,74c4.6,6.3,10.8,11.1,17.9,14c1.5,0.6,2.3,2.4,1.6,3.9
					C33,93,31.9,93.7,30.7,93.7z"/>
			</g>
			<g>
				<g>
					<path class="st0" d="M35.7,95.7c-1.2,0-2.3-0.7-2.8-1.8l-4.3-10.5c-0.6-1.5,0.1-3.3,1.6-3.9c1.5-0.6,3.3,0.1,3.9,1.6l4.3,10.5
						c0.6,1.5-0.1,3.3-1.6,3.9C36.4,95.6,36.1,95.7,35.7,95.7z"/>
				</g>
				<g>
					<path class="st0" d="M25.2,100c-1.2,0-2.3-0.7-2.8-1.8c-0.6-1.5,0.1-3.3,1.6-3.9l10.5-4.3c1.5-0.6,3.3,0.1,3.9,1.6
						c0.6,1.5-0.1,3.3-1.6,3.9l-10.5,4.3C25.9,99.9,25.6,100,25.2,100z"/>
				</g>
			</g>
		</g>
	</g>
	<g>
		<g>
			<polygon class="st1" points="50.3,27.2 29.2,64.9 71.3,64.9 			"/>
			<path class="st2" d="M71.3,67.9H29.2c-1.1,0-2-0.6-2.6-1.5c-0.5-0.9-0.5-2,0-3l21.1-37.6c0.5-0.9,1.5-1.5,2.6-1.5c0,0,0,0,0,0
				c1.1,0,2.1,0.6,2.6,1.5l21,37.6c0.5,0.9,0.5,2,0,3C73.4,67.3,72.4,67.9,71.3,67.9z M34.3,61.9h31.9l-16-28.6L34.3,61.9z"/>
		</g>
		<g>
			<path class="st1" d="M57.9,27.2c0,4.2-3.4,7.6-7.6,7.6s-7.6-3.4-7.6-7.6c0-4.2,3.4-7.6,7.6-7.6S57.9,23,57.9,27.2z"/>
			<path class="st2" d="M50.3,37.8c-5.8,0-10.6-4.8-10.6-10.6c0-5.8,4.8-10.6,10.6-10.6c5.8,0,10.6,4.8,10.6,10.6
				C60.9,33.1,56.1,37.8,50.3,37.8z M50.3,22.6c-2.6,0-4.6,2.1-4.6,4.6c0,2.6,2.1,4.6,4.6,4.6c2.6,0,4.6-2.1,4.6-4.6
				C54.9,24.7,52.9,22.6,50.3,22.6z"/>
		</g>
		<g>
			<path class="st1" d="M36.8,64.9c0,4.2-3.4,7.6-7.6,7.6c-4.2,0-7.6-3.4-7.6-7.6c0-4.2,3.4-7.6,7.6-7.6
				C33.4,57.3,36.8,60.7,36.8,64.9z"/>
			<path class="st2" d="M29.2,75.5c-5.8,0-10.6-4.8-10.6-10.6c0-5.8,4.8-10.6,10.6-10.6c5.8,0,10.6,4.8,10.6,10.6
				C39.8,70.7,35.1,75.5,29.2,75.5z M29.2,60.2c-2.6,0-4.6,2.1-4.6,4.6c0,2.6,2.1,4.6,4.6,4.6c2.6,0,4.6-2.1,4.6-4.6
				C33.9,62.3,31.8,60.2,29.2,60.2z"/>
		</g>
		<g>
			<circle class="st1" cx="71.3" cy="64.9" r="7.6"/>
			<path class="st2" d="M71.3,75.5c-5.8,0-10.6-4.8-10.6-10.6c0-5.8,4.8-10.6,10.6-10.6c5.8,0,10.6,4.8,10.6,10.6
				C81.9,70.7,77.2,75.5,71.3,75.5z M71.3,60.2c-2.6,0-4.6,2.1-4.6,4.6c0,2.6,2.1,4.6,4.6,4.6c2.6,0,4.6-2.1,4.6-4.6
				C76,62.3,73.9,60.2,71.3,60.2z"/>
		</g>
	</g>
</g>
</svg>
