<?xml version="1.0" encoding="utf-8"?>
<!-- Generator: Adobe Illustrator 25.0.0, SVG Export Plug-In . SVG Version: 6.00 Build 0)  -->
<svg version="1.1" id="图层_1" xmlns="http://www.w3.org/2000/svg" xmlns:xlink="http://www.w3.org/1999/xlink" x="0px" y="0px"
	 viewBox="0 0 32 32" style="enable-background:new 0 0 32 32;" xml:space="preserve">
<style type="text/css">
	.st0{fill:#DC0816;}
	.st1{fill:#FFC0C0;}
</style>
<g>
	<g>
		<path class="st0" d="M15.3,32C15.3,32,15.3,32,15.3,32c-4-0.2-7.8-1.9-10.6-4.7c-3-3-4.7-7-4.7-11.3S1.7,7.7,4.7,4.7
			c6.2-6.2,16.4-6.2,22.6,0c5.9,5.9,6.2,15.4,0.9,21.7c-0.3,0.4-0.9,0.4-1.2,0.1c-0.4-0.3-0.4-0.9-0.1-1.2
			c4.8-5.6,4.4-14.1-0.8-19.3c-5.6-5.6-14.6-5.6-20.2,0C3.2,8.6,1.7,12.2,1.7,16s1.5,7.4,4.2,10.1c2.5,2.5,5.9,4,9.4,4.2
			c0.5,0,0.8,0.4,0.8,0.9C16.1,31.6,15.7,32,15.3,32z"/>
	</g>
	<g>
		<g>
			<path class="st0" d="M20.7,30.9c-1.3,0-2.7-0.4-4-1.5c-3.1-2.8-8-11.5-8.7-15.5C7.3,10.3,9.8,8,11.2,7.3c0.3-0.2,1.2-0.7,2.1-0.5
				c0.5,0.1,0.9,0.4,1.2,0.9l1.6,2.9c0.5,1,0.5,2.4-0.7,3l-0.1,0.1c-1,0.6-1.1,0.7-1.1,1.2l0,0c0,0,0.3,1.7,1.8,4.5
				c1.6,2.8,2.9,3.9,2.9,3.9c0.4,0.4,0.6,0.3,1.7-0.3c1.2-0.7,2.3,0,2.9,0.9l1.7,2.9c0.3,0.5,0.3,1,0.2,1.5
				c-0.3,0.9-1.2,1.4-1.5,1.6C23.3,30.4,22,30.9,20.7,30.9z M12.9,8.5c-0.2,0-0.5,0.1-0.8,0.3l-0.1,0c-0.1,0.1-2.9,1.6-2.4,4.7
				c0.7,3.7,5.4,12.1,8.2,14.6c2.4,2.1,5.1,0.5,5.2,0.4l0.1,0c0.3-0.1,0.6-0.4,0.7-0.6c0,0,0,0,0-0.1l-1.6-2.9
				c-0.1-0.1-0.4-0.5-0.6-0.4c-1,0.6-2.3,1.3-3.7,0.1c0,0-1.5-1.3-3.3-4.4c-1.7-3-2-4.9-2-5.1c-0.3-1.8,1-2.5,1.9-3l0.1-0.1
				c0.2-0.1,0-0.6,0-0.7L13,8.6C13,8.5,13,8.5,12.9,8.5C12.9,8.5,12.9,8.5,12.9,8.5z"/>
		</g>
		<g>
			<path class="st1" d="M18.7,14.9c-0.1,0-0.2,0-0.2-0.1c-0.2-0.1-0.3-0.4-0.1-0.6c0,0,1-1.7,0.5-4.1c-0.5-2.3-2-3-2.1-3.1
				c-0.2-0.1-0.3-0.4-0.2-0.6c0.1-0.2,0.4-0.3,0.6-0.2c0.1,0,1.9,0.9,2.6,3.7c0.6,2.7-0.6,4.7-0.6,4.8C19,14.8,18.8,14.9,18.7,14.9z
				"/>
		</g>
		<g>
			<path class="st1" d="M22.2,13.8c-0.1,0-0.1,0-0.2,0c-0.2-0.1-0.3-0.4-0.2-0.6l0,0c0,0,0.6-1.4,0.3-3.5c-0.3-2-1.3-2.8-1.3-2.8
				c-0.2-0.2-0.2-0.4-0.1-0.6C20.9,6,21.2,6,21.4,6.1c0,0,1.2,1,1.6,3.4c0.4,2.4-0.3,3.9-0.4,4C22.6,13.7,22.4,13.8,22.2,13.8z"/>
		</g>
	</g>
</g>
</svg>
