<?xml version="1.0" encoding="utf-8"?>
<!-- Generator: Adobe Illustrator 25.0.0, SVG Export Plug-In . SVG Version: 6.00 Build 0)  -->
<svg version="1.1" id="图层_1" xmlns="http://www.w3.org/2000/svg" xmlns:xlink="http://www.w3.org/1999/xlink" x="0px" y="0px"
	 viewBox="0 0 40 40" style="enable-background:new 0 0 40 40;" xml:space="preserve">
<style type="text/css">
	.st0{fill:#FFC0C0;}
	.st1{fill:#DC0816;}
	.st2{fill:#FFFFFF;}
</style>
<g>
	<g>
		<g>
			<path class="st0" d="M20,6c-2.6,0-5.1,0.7-7.2,2L8.6,19.8L8,26.6c2.4,4.2,6.8,7,12,7c7.6,0,13.8-6.2,13.8-13.8
				C33.8,12.2,27.6,6,20,6z"/>
		</g>
	</g>
	<g>
		<path class="st1" d="M20,39.9c-1.8,0-3.6-0.2-5.4-0.7c-5.1-1.4-9.4-4.8-12-9.4C0,25-0.7,19.6,0.7,14.5C2.1,9.7,5.2,5.6,9.4,3
			c0.5-0.3,1.1-0.2,1.4,0.3c0.3,0.5,0.2,1.1-0.3,1.4c-3.8,2.4-6.5,6-7.7,10.3c-1.3,4.6-0.7,9.4,1.6,13.6c2.3,4.2,6.2,7.2,10.8,8.5
			c4.6,1.3,9.4,0.7,13.6-1.6c4.2-2.3,7.2-6.2,8.5-10.8c2.5-8.9-2.3-18.4-11-21.6c-0.5-0.2-0.8-0.8-0.6-1.3c0.2-0.5,0.8-0.8,1.3-0.6
			c9.7,3.6,15.1,14.2,12.3,24.1c-1.4,5.1-4.8,9.4-9.5,12C26.8,39,23.4,39.9,20,39.9z"/>
	</g>
	<g>
		<g>
			<polygon class="st2" points="16.5,1.4 17.7,1.2 21.5,2.7 22,4.3 14.3,22.5 8.3,28 8.1,19.9 			"/>
		</g>
		<g>
			<path class="st1" d="M14.1,24.2c-0.1,0-0.3,0-0.4-0.1l-6.2-2.6c-0.5-0.2-0.8-0.8-0.6-1.4L14.7,2c0.3-0.7,0.9-1.3,1.7-1.6
				c0.8-0.3,1.6-0.3,2.3,0l2.5,1.1c0.7,0.3,1.3,0.9,1.6,1.7c0.3,0.8,0.3,1.6,0,2.3L15,23.6c-0.1,0.3-0.3,0.5-0.6,0.6
				C14.3,24.2,14.2,24.2,14.1,24.2z M9.3,20l4.2,1.8l7.3-17.2c0.1-0.2,0.1-0.5,0-0.7c-0.1-0.2-0.3-0.4-0.5-0.5l-2.5-1.1
				c-0.2-0.1-0.5-0.1-0.7,0c-0.2,0.1-0.4,0.3-0.5,0.5L9.3,20z"/>
		</g>
		<g>
			<path class="st1" d="M20,9.5c-0.1,0-0.3,0-0.4-0.1L14,7.1c-0.5-0.2-0.8-0.8-0.6-1.4c0.2-0.5,0.8-0.8,1.4-0.6l5.5,2.4
				c0.5,0.2,0.8,0.8,0.6,1.4C20.8,9.3,20.4,9.5,20,9.5z"/>
		</g>
		<g>
			<path class="st1" d="M8.3,29.1c-0.1,0-0.3,0-0.4-0.1c-0.4-0.2-0.6-0.5-0.6-0.9l-0.4-7.5c0-0.6,0.4-1.1,1-1.1c0.6,0,1.1,0.4,1.1,1
				l0.3,5.4l4.1-3.5c0.4-0.4,1.1-0.3,1.5,0.1c0.4,0.4,0.3,1.1-0.1,1.5L9,28.8C8.8,29,8.6,29.1,8.3,29.1z"/>
		</g>
	</g>
	<g>
		<path class="st2" d="M30.2,18h-8.9c-0.6,0-1-0.5-1-1s0.5-1,1-1h8.9c0.6,0,1,0.5,1,1S30.8,18,30.2,18z"/>
	</g>
	<g>
		<path class="st2" d="M29.6,23.3H19.4c-0.6,0-1-0.5-1-1s0.5-1,1-1h10.2c0.6,0,1,0.5,1,1S30.2,23.3,29.6,23.3z"/>
	</g>
	<g>
		<path class="st2" d="M27.4,28.6H14.9c-0.6,0-1-0.5-1-1c0-0.6,0.5-1,1-1h12.4c0.6,0,1,0.5,1,1C28.4,28.1,28,28.6,27.4,28.6z"/>
	</g>
</g>
</svg>
