<?xml version="1.0" encoding="utf-8"?>
<!-- Generator: Adobe Illustrator 25.0.0, SVG Export Plug-In . SVG Version: 6.00 Build 0)  -->
<svg version="1.1" id="图层_1" xmlns="http://www.w3.org/2000/svg" xmlns:xlink="http://www.w3.org/1999/xlink" x="0px" y="0px"
	 viewBox="0 0 48 48" style="enable-background:new 0 0 48 48;" xml:space="preserve">
<style type="text/css">
	.st0{fill:#DC0816;}
	.st1{fill:#FFC0C0;}
</style>
<g>
	<path class="st0" d="M43.4,35.5c2.4-3.7,3.6-8,3.6-12.4c0-2.5-0.4-4.9-1.2-7.2c-0.1-0.3-0.3-0.6-0.7-0.8c-0.3-0.2-0.7-0.2-1,0
		c-0.7,0.2-1,1-0.8,1.7c0.7,2.1,1,4.2,1,6.4c0,4.1-1.2,8-3.5,11.4l-0.3,0.4l1.8,9.8l-9.2-3.4l-0.5,0.2c-4.5,2.1-9.5,2.5-14.6,1.2
		c-5.8-1.5-10.6-5.7-12.8-11.1C2.5,24.8,3.1,17.5,7,11.7C10.8,6,17.2,2.6,24,2.6c3.5,0,7,0.9,10.1,2.6c0.6,0.4,1.4,0.2,1.8-0.4
		c0.2-0.3,0.2-0.7,0.2-1c-0.1-0.3-0.3-0.6-0.6-0.8C31.9,1,28,0,24,0C17.5,0,11.3,2.8,6.9,7.6c-4.4,4.9-6.5,11.2-5.8,17.9
		C2.3,37.8,13.8,47.2,26.2,46c2.5-0.2,4.9-0.9,7.1-1.9l10.2,3.8C43.7,48,43.9,48,44,48c0.3,0,0.7-0.1,0.9-0.3
		c0.4-0.3,0.6-0.9,0.5-1.4L43.4,35.5z"/>
	<g>
		<g>
			<g>
				<path class="st1" d="M34.1,17.2l0.2,0.8v5.6c1.4-0.1,3.3-1.2,3.3-2.5v-9.5H22.5c-1.4,0-2.6,1.2-2.6,2.6v2.6h13.9L34.1,17.2z"/>
			</g>
			<path class="st0" d="M38.4,9.8H22.5c-2.4,0-4.3,1.9-4.3,4.3v2.6c0,0.3,0.2,0.5,0.5,0.5h1.3c0.3,0,0.5-0.2,0.5-0.5v-2.6
				c0-1.1,0.9-2.1,2.1-2.1h14.7v9.1c0,1.1-0.9,2-2,2.1h-0.9c-0.3,0-0.5,0.2-0.5,0.5l0,1.3c0,0.1,0,0.3,0.1,0.3
				c0.1,0.1,0.2,0.1,0.3,0.1h0.9c2.3-0.1,4.2-2,4.2-4.3V10.7C39.4,10.2,38.9,9.8,38.4,9.8z"/>
		</g>
		<g>
			<path class="st0" d="M17.7,23.2c-0.4,0-0.7,0.3-0.7,0.7v2c0,0.4,0.3,0.7,0.7,0.7c0.4,0,0.7-0.3,0.7-0.7v-2
				C18.4,23.5,18.1,23.2,17.7,23.2z"/>
			<path class="st0" d="M22.9,23.2c-0.4,0-0.7,0.3-0.7,0.7v2c0,0.4,0.3,0.7,0.7,0.7c0.4,0,0.7-0.3,0.7-0.7v-2
				C23.6,23.5,23.3,23.2,22.9,23.2z"/>
			<path class="st0" d="M28.1,23.2c-0.4,0-0.7,0.3-0.7,0.7v2c0,0.4,0.3,0.7,0.7,0.7c0.4,0,0.7-0.3,0.7-0.7v-2
				C28.7,23.5,28.4,23.2,28.1,23.2z"/>
			<path class="st0" d="M33.3,16.2H16.1c-2.5,0-4.6,2.1-4.6,4.6v11c0,0.6,0.5,1.1,1.1,1.1l0.8,0c0,0,0,0,0.1,0h4l0.8,3
				c0.1,0.4,0.4,0.7,0.9,0.8c0.1,0,0.2,0,0.3,0c0.3,0,0.6-0.1,0.9-0.4l3.3-3.5h6.2c2.5,0,4.6-2.1,4.6-4.6v-11
				C34.3,16.7,33.9,16.2,33.3,16.2z M29.7,30.6h-7c-0.1,0-0.3,0.1-0.3,0.1l-2.5,2.6l-0.7-2.4c-0.1-0.2-0.2-0.3-0.5-0.3h-4.9v-9.8
				c0-1.3,1-2.3,2.3-2.3H32v9.8C32,29.6,31,30.6,29.7,30.6z"/>
		</g>
	</g>
</g>
</svg>
