<?xml version="1.0" encoding="utf-8"?>
<!-- Generator: Adobe Illustrator 25.0.0, SVG Export Plug-In . SVG Version: 6.00 Build 0)  -->
<svg version="1.1" id="图层_1" xmlns="http://www.w3.org/2000/svg" xmlns:xlink="http://www.w3.org/1999/xlink" x="0px" y="0px"
	 viewBox="0 0 80 80" style="enable-background:new 0 0 80 80;" xml:space="preserve">
<style type="text/css">
	.st0{fill:#FFC0C0;}
	.st1{fill:none;}
	.st2{fill:#D11A21;}
	.st3{fill:#FFFFFF;}
</style>
<circle class="st0" cx="40" cy="40" r="40"/>
<g>
	<g>
		<polygon class="st1" points="22.7,40 22.7,40.1 22.7,40.1 		"/>
		<g>
			<path class="st2" d="M40.7,20c-13.5,0-15.8,13.4-16.2,16.1c0,0.1-0.1,0.2-0.1,0.2c-0.9,0.8-2.6,2.4-3.7,4.7
				c-0.4,0.8-0.3,1.7,0.1,2.4c0.9,1.5,3.5,2,5,2.2c0.2,0,0.3,0.2,0.3,0.4v9c0,0.3,0.1,0.6,0.3,0.8c0.2,0.2,0.4,0.3,0.7,0.3h8.8
				c0.6,0,1.1-0.5,1.1-1.1c0-0.6-0.5-1.1-1.1-1.1h-7.2c-0.2,0-0.4-0.2-0.4-0.4v-8.9c0-0.6-0.5-1-1-1.1c-1.6-0.1-4.2-0.6-4.5-1.4
				c0-0.1,0-0.2,0-0.3c1.1-2.4,3.2-4.1,3.4-4.3c0.3-0.2,0.4-0.5,0.4-0.8c0-0.6,1.1-14.7,14.1-14.7c6.5,0,13.3,2.9,15.6,7.6
				c2.5,5.3,0.8,12-4.5,18.3c-0.2,0.2-0.3,0.4-0.3,0.7v6c0,0.6,0.5,1.1,1.1,1.1s1.1-0.5,1.1-1.1v-5.5c0-0.1,0-0.2,0.1-0.2
				c5.6-6.9,7.3-14.3,4.5-20.2C55.6,23.3,48,20,40.7,20L40.7,20z"/>
		</g>
		<path class="st2" d="M50.9,57.8H29.1c-0.6,0-1.1,0.5-1.1,1.1c0,0.6,0.5,1.1,1.1,1.1h21.7c0.6,0,1.1-0.5,1.1-1.1
			C52,58.3,51.5,57.8,50.9,57.8z"/>
	</g>
	<g>
		<polygon class="st3" points="39.9,29.2 39,30 37.4,30 36.8,31.4 37.6,32.6 37.9,33.8 37,34.9 37.5,36.8 39.1,36.8 40.2,37.8 
			40.2,39.6 41.8,39.9 42.9,38.9 44.2,38.8 45.2,39.9 47.1,39.6 47.1,37.7 47.8,36.8 49.5,36.8 50.2,35.4 49.2,34.1 49.2,32.7 
			50,31.6 49.5,29.8 48.1,29.8 47,29 46.9,27.4 45.3,26.6 44.2,27.8 43,27.9 41.7,26.6 40.1,27.2 		"/>
		<g>
			<g>
				<path class="st0" d="M49.8,33.4c0-0.1,0-0.3,0-0.4l1-0.9c0.1-0.1,0.2-0.3,0.2-0.5l0,0c-0.2-0.7-0.5-1.4-0.8-2l0,0
					c-0.1-0.2-0.3-0.3-0.5-0.3l-1.4,0.1c-0.2-0.2-0.4-0.4-0.6-0.6l0.1-1.4c0-0.2-0.1-0.4-0.3-0.5l0,0c-0.6-0.4-1.3-0.7-2-0.8l0,0
					c-0.2,0-0.4,0-0.5,0.2l-0.9,1c-0.3,0-0.5,0-0.8,0l-0.9-1c-0.1-0.1-0.3-0.2-0.5-0.2l0,0c-0.7,0.2-1.4,0.5-2,0.8l0,0
					c-0.2,0.1-0.3,0.3-0.3,0.5l0.1,1.4c-0.2,0.2-0.4,0.4-0.6,0.6l-1.4-0.1c-0.2,0-0.4,0.1-0.5,0.3l0,0c-0.4,0.6-0.7,1.3-0.8,2l0,0
					c0,0.2,0,0.4,0.2,0.5l1,0.9c0,0.1,0,0.3,0,0.4c0,0.1,0,0.3,0,0.4l-1,0.9c-0.1,0.1-0.2,0.3-0.2,0.5l0,0c0.2,0.7,0.5,1.4,0.8,2.1
					l0,0c0.1,0.2,0.3,0.3,0.5,0.3l1.4-0.1c0.2,0.2,0.4,0.4,0.6,0.6l-0.1,1.4c0,0.2,0.1,0.4,0.3,0.5l0,0c0.6,0.4,1.3,0.7,2,0.8l0,0
					c0.2,0,0.4,0,0.5-0.2l0.9-1c0.3,0,0.5,0,0.8,0l0.9,1c0.1,0.1,0.3,0.2,0.5,0.2l0,0c0.7-0.2,1.4-0.5,2-0.8l0.1,0
					c0.2-0.1,0.3-0.3,0.3-0.5l-0.1-1.4c0.2-0.2,0.4-0.4,0.6-0.6l1.4,0.1c0.2,0,0.4-0.1,0.5-0.3l0,0c0.4-0.6,0.7-1.3,0.8-2l0,0
					c0-0.2,0-0.4-0.2-0.5l-1-0.9C49.8,33.7,49.8,33.5,49.8,33.4L49.8,33.4z M48.6,32.8c0,0.4,0,0.8,0,1.1l0,0.3l1.2,1.1
					c-0.1,0.4-0.3,0.7-0.4,1.1l-1.6-0.1l-0.2,0.2c-0.2,0.3-0.5,0.6-0.8,0.8l-0.2,0.2l0.1,1.6c-0.3,0.2-0.7,0.3-1.1,0.4l-1.1-1.2
					l-0.3,0c-0.4,0-0.8,0-1.1,0l-0.3,0l-1.1,1.2c-0.4-0.1-0.7-0.3-1.1-0.4l0.1-1.6l-0.2-0.2c-0.3-0.2-0.6-0.5-0.8-0.8l-0.2-0.2
					l-1.6,0.1c-0.2-0.3-0.3-0.7-0.4-1.1l1.2-1.1l0-0.3c0-0.4,0-0.8,0-1.1l0-0.3l-1.2-1.1c0.1-0.4,0.3-0.7,0.4-1.1l1.6,0.1l0.2-0.2
					c0.2-0.3,0.5-0.6,0.8-0.8l0.2-0.2l-0.1-1.6c0.3-0.2,0.7-0.3,1.1-0.4l1.1,1.2l0.3,0c0.4,0,0.8,0,1.1,0l0.3,0l1.1-1.2
					c0.4,0.1,0.7,0.3,1.1,0.4l-0.1,1.6l0.2,0.2c0.3,0.2,0.6,0.5,0.8,0.8l0.2,0.2l1.6-0.1c0.2,0.3,0.3,0.7,0.4,1.1l-1.2,1.1
					L48.6,32.8z"/>
			</g>
			<g>
				<path class="st2" d="M45.3,26c-0.2,0-0.3,0.1-0.4,0.2l-0.9,1c-0.1,0-0.3,0-0.4,0s-0.3,0-0.4,0l-0.9-1C42.1,26,42,26,41.8,26
					c0,0-0.1,0-0.1,0l0,0c-0.7,0.2-1.4,0.5-2,0.8l0,0c-0.2,0.1-0.3,0.3-0.3,0.5l0.1,1.4c-0.2,0.2-0.4,0.4-0.6,0.6l-1.4-0.1
					c0,0,0,0,0,0c-0.2,0-0.4,0.1-0.5,0.3l0,0c-0.4,0.6-0.7,1.3-0.8,2l0,0c0,0.2,0,0.4,0.2,0.5l1,0.9c0,0.1,0,0.3,0,0.4
					c0,0.1,0,0.3,0,0.4l-1,0.9c-0.1,0.1-0.2,0.3-0.2,0.5c0.2,0.7,0.5,1.4,0.8,2.1l0,0c0.1,0.2,0.3,0.3,0.5,0.3c0,0,0,0,0,0l1.4-0.1
					c0.2,0.2,0.4,0.4,0.6,0.6l-0.1,1.4c0,0.2,0.1,0.4,0.3,0.5l0,0c0.6,0.4,1.3,0.7,2,0.8l0,0c0,0,0.1,0,0.1,0c0.2,0,0.3-0.1,0.4-0.2
					l0.9-1c0.1,0,0.3,0,0.4,0c0.1,0,0.3,0,0.4,0l0.9,1c0.1,0.1,0.3,0.2,0.4,0.2c0,0,0.1,0,0.1,0l0,0c0.7-0.2,1.4-0.5,2-0.8l0.1,0
					c0.2-0.1,0.3-0.3,0.3-0.5l-0.1-1.4c0.2-0.2,0.4-0.4,0.6-0.6l1.4,0.1c0,0,0,0,0,0c0.2,0,0.4-0.1,0.5-0.3l0,0
					c0.4-0.6,0.7-1.3,0.8-2l0,0c0-0.2,0-0.4-0.2-0.5l-1-0.9c0-0.1,0-0.3,0-0.4c0-0.1,0-0.3,0-0.4l1-0.9c0.1-0.1,0.2-0.3,0.2-0.5l0,0
					c-0.2-0.7-0.5-1.4-0.8-2l0,0c-0.1-0.2-0.3-0.3-0.5-0.3c0,0,0,0,0,0l-1.4,0.1c-0.2-0.2-0.4-0.4-0.6-0.6l0.1-1.4
					c0-0.2-0.1-0.4-0.3-0.5l0,0c-0.6-0.4-1.3-0.7-2-0.8l0,0C45.3,26,45.3,26,45.3,26L45.3,26z M39.4,30.5l0.2-0.2
					c0.2-0.3,0.5-0.6,0.8-0.8l0.2-0.2l-0.1-1.6c0.3-0.2,0.7-0.3,1.1-0.4l1.1,1.2l0.3,0c0.2,0,0.4,0,0.6,0s0.4,0,0.6,0l0.3,0l1.1-1.2
					c0.4,0.1,0.7,0.3,1.1,0.4l-0.1,1.6l0.2,0.2c0.3,0.2,0.6,0.5,0.8,0.8l0.2,0.2l1.6-0.1c0.2,0.3,0.3,0.7,0.4,1.1l-1.2,1.1l0,0.3
					c0,0.4,0,0.8,0,1.1l0,0.3l1.2,1.1c-0.1,0.4-0.3,0.7-0.4,1.1l-1.6-0.1l-0.2,0.2c-0.2,0.3-0.5,0.6-0.8,0.8l-0.2,0.2l0.1,1.6
					c-0.3,0.2-0.7,0.3-1.1,0.4l-1.1-1.2l-0.3,0c-0.2,0-0.4,0-0.6,0s-0.4,0-0.6,0l-0.3,0l-1.1,1.2c-0.4-0.1-0.7-0.3-1.1-0.4l0.1-1.6
					l-0.2-0.2c-0.3-0.2-0.6-0.5-0.8-0.8l-0.2-0.2l-1.6,0.1c-0.2-0.3-0.3-0.7-0.4-1.1l1.2-1.1l0-0.3c0-0.4,0-0.8,0-1.1l0-0.3
					l-1.2-1.1c0.1-0.4,0.3-0.7,0.4-1.1L39.4,30.5L39.4,30.5z"/>
			</g>
		</g>
		<path class="st0" d="M43.5,31.9L43.5,31.9c0.1,0,0.2,0,0.3,0c0.6,0.1,1.1,0.6,1.2,1.2c0.1,0.5,0,0.9-0.3,1.3
			c-0.3,0.3-0.7,0.5-1.2,0.5c-0.1,0-0.2,0-0.3,0c-0.6-0.1-1.1-0.6-1.2-1.2c-0.1-0.5,0-0.9,0.3-1.3C42.7,32.1,43.1,31.9,43.5,31.9
			 M43.5,30.7c-1.6,0-2.9,1.5-2.6,3.2c0.2,1,1.1,1.9,2.1,2.1c0.2,0,0.4,0,0.5,0c1.6,0,2.9-1.5,2.6-3.2c-0.2-1-1.1-1.9-2.1-2.1
			C43.9,30.7,43.7,30.7,43.5,30.7L43.5,30.7z"/>
	</g>
</g>
</svg>
