<?xml version="1.0" encoding="utf-8"?>
<!-- Generator: Adobe Illustrator 25.0.0, SVG Export Plug-In . SVG Version: 6.00 Build 0)  -->
<svg version="1.1" id="图层_1" xmlns="http://www.w3.org/2000/svg" xmlns:xlink="http://www.w3.org/1999/xlink" x="0px" y="0px"
	 viewBox="0 0 48 48" style="enable-background:new 0 0 48 48;" xml:space="preserve">
<style type="text/css">
	.st0{fill:#FFC0C0;}
	.st1{fill:#DC0816;}
	.st2{fill:#FFFFFF;}
</style>
<g>
	<g>
		
			<ellipse transform="matrix(1 -4.478858e-03 4.478858e-03 1 -7.081863e-02 0.1077)" class="st0" cx="24" cy="15.9" rx="12.7" ry="12.7"/>
	</g>
	<path class="st1" d="M1.3,16.9L1.3,16.9c0.7,0,1.3-0.6,1.3-1.3V2.7h12c0.7,0,1.3-0.6,1.3-1.3l0,0C16,0.6,15.4,0,14.6,0H1.3
		C0.6,0,0,0.6,0,1.3v14.3C0,16.3,0.6,16.9,1.3,16.9z M32.1,1.3L32.1,1.3c0,0.7,0.6,1.3,1.3,1.3h12v12.9c0,0.7,0.6,1.3,1.3,1.3l0,0
		c0.7,0,1.3-0.6,1.3-1.3V1.3C48,0.6,47.4,0,46.7,0H33.4C32.6,0,32.1,0.6,32.1,1.3z M37.3,45.3c-0.7,0-1.3,0.6-1.3,1.3v0
		c0,0.7,0.6,1.3,1.3,1.3h9.4c0.7,0,1.3-0.6,1.3-1.3V32.4c0-0.7-0.6-1.3-1.3-1.3l0,0c-0.7,0-1.3,0.6-1.3,1.3v12.9H37.3z M1.3,31.1
		L1.3,31.1c-0.7,0-1.3,0.6-1.3,1.3v14.3C0,47.4,0.6,48,1.3,48h9.4c0.7,0,1.3-0.6,1.3-1.3v0c0-0.7-0.6-1.3-1.3-1.3h-8V32.4
		C2.7,31.7,2.1,31.1,1.3,31.1z"/>
	<g>
		<g>
			<g>
				<path class="st1" d="M37.9,30.7L37.9,30.7c-0.5,0-0.8-0.4-0.8-0.8V18c0-0.5,0.4-0.8,0.8-0.8l0,0c0.5,0,0.8,0.4,0.8,0.8v11.8
					C38.7,30.3,38.3,30.7,37.9,30.7z"/>
			</g>
			<g>
				<path class="st1" d="M42.1,28.7L42.1,28.7c-0.5,0-0.8-0.4-0.8-0.8V20c0-0.5,0.4-0.8,0.8-0.8l0,0c0.5,0,0.8,0.4,0.8,0.8v7.8
					C42.9,28.3,42.6,28.7,42.1,28.7z"/>
			</g>
			<g>
				<path class="st1" d="M46.3,26.8L46.3,26.8c-0.5,0-0.8-0.4-0.8-0.8v-4.1c0-0.5,0.4-0.8,0.8-0.8l0,0c0.5,0,0.8,0.4,0.8,0.8V26
					C47.2,26.5,46.8,26.8,46.3,26.8z"/>
			</g>
		</g>
		<g>
			<g>
				<path class="st1" d="M10.2,30.7L10.2,30.7c0.5,0,0.8-0.4,0.8-0.8V18c0-0.5-0.4-0.8-0.8-0.8l0,0c-0.5,0-0.8,0.4-0.8,0.8v11.8
					C9.3,30.3,9.7,30.7,10.2,30.7z"/>
			</g>
			<g>
				<path class="st1" d="M5.9,28.7L5.9,28.7c0.5,0,0.8-0.4,0.8-0.8V20c0-0.5-0.4-0.8-0.8-0.8l0,0c-0.5,0-0.8,0.4-0.8,0.8v7.8
					C5.1,28.3,5.5,28.7,5.9,28.7z"/>
			</g>
			<g>
				<path class="st1" d="M1.7,26.8L1.7,26.8c0.5,0,0.8-0.4,0.8-0.8v-4.1c0-0.5-0.4-0.8-0.8-0.8l0,0c-0.5,0-0.8,0.4-0.8,0.8V26
					C0.8,26.5,1.2,26.8,1.7,26.8z"/>
			</g>
		</g>
	</g>
	<g>
		<path class="st1" d="M24,46.4L24,46.4c-0.8,0-1.5-0.7-1.5-1.5V34.6c0-0.8,0.7-1.5,1.5-1.5l0,0c0.8,0,1.5,0.7,1.5,1.5v10.3
			C25.5,45.7,24.8,46.4,24,46.4z"/>
	</g>
	<g>
		<path class="st2" d="M24,37.2L24,37.2c-3.6,0-6.5-2.9-6.5-6.5V15c0-3.6,2.9-6.5,6.5-6.5l0,0c3.6,0,6.5,2.9,6.5,6.5v15.8
			C30.5,34.3,27.6,37.2,24,37.2z"/>
	</g>
	<g>
		<path class="st1" d="M29.7,48.3H18.3c-0.8,0-1.5-0.7-1.5-1.5v-0.3c0-0.8,0.7-1.5,1.5-1.5h11.4c0.8,0,1.5,0.7,1.5,1.5v0.3
			C31.2,47.6,30.5,48.3,29.7,48.3z"/>
	</g>
	<g>
		<path class="st1" d="M24,38.7c-4.4,0-8-3.6-8-8V15c0-4.4,3.6-8,8-8c4.4,0,8,3.6,8,8v15.8C32,35.1,28.4,38.7,24,38.7z M24,9.9
			c-2.8,0-5,2.3-5,5v15.8c0,2.8,2.3,5,5,5c2.8,0,5-2.3,5-5V15C29,12.2,26.8,9.9,24,9.9z"/>
	</g>
	<g>
		<path class="st1" d="M29.6,31.5H18.4c-0.8,0-1.4-0.6-1.4-1.4c0-0.8,0.6-1.4,1.4-1.4h11.2c0.8,0,1.4,0.6,1.4,1.4
			C31,30.9,30.3,31.5,29.6,31.5z"/>
	</g>
</g>
</svg>
