<?xml version="1.0" encoding="utf-8"?>
<!-- Generator: Adobe Illustrator 25.0.0, SVG Export Plug-In . SVG Version: 6.00 Build 0)  -->
<svg version="1.1" id="图层_1" xmlns="http://www.w3.org/2000/svg" xmlns:xlink="http://www.w3.org/1999/xlink" x="0px" y="0px"
	 viewBox="0 0 48 48" style="enable-background:new 0 0 48 48;" xml:space="preserve">
<style type="text/css">
	.st0{fill:#FFC0C0;}
	.st1{fill:#DC0816;}
</style>
<g>
	<path class="st0" d="M23.9,10.6c0.7,0,1.3,0.6,1.3,1.3l0,0v22.2c0,0.7-0.6,1.3-1.3,1.3s-1.3-0.6-1.3-1.3V11.9
		C22.6,11.2,23.2,10.6,23.9,10.6z M13.4,18.5c0.7,0,1.3,0.6,1.3,1.3v6.4c0,0.7-0.6,1.3-1.3,1.3c-0.7,0-1.3-0.6-1.3-1.3v-6.4
		C12,19.1,12.6,18.5,13.4,18.5z M34.5,18.5c0.7,0,1.3,0.6,1.3,1.3l0,0v6.4c0,0.7-0.6,1.3-1.3,1.3c-0.7,0-1.3-0.6-1.3-1.3v-6.4
		C33.2,19.1,33.8,18.5,34.5,18.5z M18.7,15c0.7,0,1.3,0.6,1.3,1.3v13.4c0,0.7-0.6,1.3-1.3,1.3c-0.7,0-1.3-0.6-1.3-1.3V16.3
		C17.3,15.6,17.9,15,18.7,15z M29.2,15c0.7,0,1.3,0.6,1.3,1.3l0,0v13.4c0,0.7-0.6,1.3-1.3,1.3c-0.7,0-1.3-0.6-1.3-1.3V16.3
		C27.9,15.6,28.5,15,29.2,15z"/>
	<g>
		<path class="st1" d="M23.9,12.6c0.7,0,1.3,0.6,1.3,1.3l0,0v18.2c0,0.7-0.6,1.3-1.3,1.3s-1.3-0.6-1.3-1.3V13.9
			C22.6,13.2,23.2,12.6,23.9,12.6z"/>
		<path class="st1" d="M13.4,20.1c0.7,0,1.3,0.6,1.3,1.3v3.1c0,0.7-0.6,1.3-1.3,1.3c-0.7,0-1.3-0.6-1.3-1.3v-3.1
			C12,20.7,12.6,20.1,13.4,20.1z"/>
		<path class="st1" d="M34.5,20.5c0.7,0,1.3,0.6,1.3,1.3l0,0v2.3c0,0.7-0.6,1.3-1.3,1.3c-0.7,0-1.3-0.6-1.3-1.3v-2.3
			C33.2,21.1,33.8,20.5,34.5,20.5z"/>
		<path class="st1" d="M18.7,16.9c0.7,0,1.3,0.6,1.3,1.3v9.6c0,0.7-0.6,1.3-1.3,1.3c-0.7,0-1.3-0.6-1.3-1.3v-9.6
			C17.3,17.5,17.9,16.9,18.7,16.9z"/>
		<path class="st1" d="M29.2,16.3c0.7,0,1.3,0.6,1.3,1.3l0,0v10.9c0,0.7-0.6,1.3-1.3,1.3c-0.7,0-1.3-0.6-1.3-1.3V17.6
			C27.9,16.9,28.5,16.3,29.2,16.3z"/>
	</g>
	<path class="st1" d="M46.9,21.2C46.9,21.2,46.9,21.2,46.9,21.2c0-0.5-0.1-1-0.2-1.4c0-0.2-0.1-0.4-0.1-0.6c0-0.3-0.1-0.6-0.1-0.8
		c0-0.2-0.1-0.4-0.2-0.6c-0.1-0.2-0.1-0.5-0.2-0.7c-0.1-0.2-0.1-0.5-0.2-0.7c-0.1-0.2-0.1-0.3-0.2-0.5c0,0,0,0,0,0
		C44,10.3,40.2,5.8,35.3,3c0,0,0,0,0,0c0,0,0,0,0,0c-0.5-0.3-1.1-0.6-1.6-0.8c-0.1,0-0.2-0.1-0.2-0.1c-1.6-0.7-3.3-1.3-5-1.6
		c0,0,0,0,0,0c-0.4-0.1-0.9-0.2-1.3-0.2c-0.1,0-0.2,0-0.3,0c-0.3,0-0.7-0.1-1-0.1c-0.2,0-0.3,0-0.5,0c-0.3,0-0.6,0-0.9,0
		c-0.1,0-0.3,0-0.4,0c-1.1,0-2.2,0.1-3.2,0.2c-0.1,0-0.2,0-0.3,0c-0.2,0-0.4,0.1-0.6,0.1c-0.2,0-0.4,0.1-0.6,0.1
		c-0.1,0-0.3,0.1-0.4,0.1c-0.2,0.1-0.5,0.1-0.7,0.2c-0.1,0-0.2,0.1-0.3,0.1c-0.3,0.1-0.5,0.2-0.8,0.2c-0.1,0-0.2,0.1-0.3,0.1
		c-0.3,0.1-0.5,0.2-0.8,0.3c-0.1,0-0.2,0.1-0.3,0.1c-0.3,0.1-0.5,0.2-0.8,0.3C14.6,2,14.5,2,14.4,2.1c-0.2,0.1-0.4,0.2-0.7,0.3
		c-0.1,0.1-0.3,0.2-0.4,0.2c-0.2,0.1-0.4,0.2-0.5,0.3c-0.2,0.1-0.4,0.2-0.5,0.3c-0.1,0.1-0.3,0.2-0.4,0.2c-0.2,0.1-0.4,0.3-0.7,0.4
		C11.1,3.9,11,4,11,4C9.5,5,8.1,6.2,6.8,7.6C2.4,12.5,0.3,18.9,1,25.5c0.2,2.2,0.8,4.2,1.6,6.2c0.2,0.4,0.4,0.8,0.5,1.3
		c3.2,6.8,9.7,11.8,17.5,12.9c1.8,0.3,3.7,0.4,5.5,0.2c2.5-0.2,4.9-0.9,7.1-1.9l10.1,3.8C43.6,48,43.8,48,44,48
		c0.3,0,0.7-0.1,0.9-0.3c0.4-0.3,0.6-0.9,0.5-1.4l-2-10.8c0.1-0.1,0.1-0.2,0.2-0.3c0.2-0.2,0.3-0.5,0.4-0.7c0.1-0.2,0.2-0.4,0.4-0.6
		c0.2-0.3,0.3-0.6,0.5-1c0.1-0.2,0.1-0.3,0.2-0.5c0.1-0.3,0.3-0.7,0.4-1c0-0.1,0.1-0.2,0.1-0.3c0.2-0.5,0.3-0.9,0.5-1.4
		c0-0.1,0.1-0.2,0.1-0.3c0.1-0.4,0.2-0.8,0.3-1.3c0-0.1,0-0.1,0-0.2c0.1-0.5,0.2-1,0.3-1.5c0,0,0,0,0,0c0.1-0.5,0.1-1,0.2-1.5
		c0,0,0-0.1,0-0.1c0-0.5,0.1-1.1,0.1-1.6C47,22.4,47,21.8,46.9,21.2z M42.4,44.7l-6.1-2.2l-3.2-1.2l-0.5,0.2
		c-0.2,0.1-0.5,0.2-0.7,0.3c0,0-0.1,0-0.1,0c-0.6,0.3-1.2,0.5-1.8,0.7c0,0-0.1,0-0.1,0c-0.6,0.2-1.2,0.3-1.8,0.5c0,0,0,0-0.1,0
		c-1.3,0.3-2.7,0.4-4,0.4C12.7,43.5,3.5,34.3,3.5,23C3.5,15,8.2,8,15,4.7c0.1,0,0.1-0.1,0.2-0.1c0.2-0.1,0.4-0.2,0.7-0.3
		c0.1-0.1,0.3-0.1,0.4-0.2c0.2-0.1,0.4-0.1,0.6-0.2c0.2-0.1,0.4-0.2,0.6-0.2c0.1,0,0.3-0.1,0.4-0.1c0.4-0.1,0.7-0.2,1.1-0.3
		c0,0,0.1,0,0.1,0c0.4-0.1,0.7-0.2,1.1-0.2c0.1,0,0.1,0,0.2,0c0.3-0.1,0.7-0.1,1-0.2c0.1,0,0.1,0,0.2,0c0.4,0,0.8-0.1,1.1-0.1
		c0,0,0,0,0,0c0.4,0,0.8,0,1.3,0c3.5,0,7,0.9,10.1,2.6c0,0,0,0,0,0c4.4,2.5,7.7,6.5,9.3,11.3c0,0,0,0,0,0.1c0.7,2.1,1,4.2,1,6.4
		c0,2.5-0.5,5-1.4,7.3c0,0.1,0,0.1-0.1,0.2c-0.2,0.4-0.3,0.8-0.5,1.2c0,0,0,0.1,0,0.1c-0.2,0.4-0.4,0.8-0.6,1.1
		c-0.1,0.1-0.2,0.3-0.2,0.4c-0.2,0.3-0.3,0.5-0.5,0.8c-0.1,0.1-0.1,0.2-0.2,0.3l-0.3,0.4l0.6,3.4L42.4,44.7z"/>
</g>
</svg>
