<?xml version="1.0" encoding="utf-8"?>
<!-- Generator: Adobe Illustrator 25.0.0, SVG Export Plug-In . SVG Version: 6.00 Build 0)  -->
<svg version="1.1" id="图层_1" xmlns="http://www.w3.org/2000/svg" xmlns:xlink="http://www.w3.org/1999/xlink" x="0px" y="0px"
	 viewBox="0 0 80 80" style="enable-background:new 0 0 80 80;" xml:space="preserve">
<style type="text/css">
	.st0{fill:#FFC0C0;}
	.st1{fill:#FFFFFF;}
	.st2{fill:#D11A21;}
</style>
<circle class="st0" cx="40" cy="40" r="40"/>
<g>
	<g>
		<rect x="47.3" y="48.7" class="st1" width="11.6" height="10.2"/>
		<path class="st2" d="M58.9,60H47.3c-0.6,0-1.1-0.5-1.1-1.1V48.7c0-0.6,0.5-1.1,1.1-1.1h11.6c0.6,0,1.1,0.5,1.1,1.1v10.2
			C60,59.5,59.5,60,58.9,60z M48.4,57.8h9.4v-8h-9.4V57.8z"/>
	</g>
	<g>
		<path class="st2" d="M42.8,60H21.1c-0.6,0-1.1-0.5-1.1-1.1V21.1c0-0.6,0.5-1.1,1.1-1.1h34c0.6,0,1.1,0.5,1.1,1.1v17.2
			c0,0.6-0.5,1.1-1.1,1.1c-0.6,0-1.1-0.5-1.1-1.1v-16H22.2v35.5h20.6c0.6,0,1.1,0.5,1.1,1.1C43.9,59.5,43.4,60,42.8,60z"/>
	</g>
	<g>
		<path class="st2" d="M57.9,48.2l-2.2-0.3c0.1-0.7,0.1-2.8-0.8-3.9c-0.4-0.5-1-0.7-1.7-0.7c-0.8,0-1.3,0.2-1.7,0.7
			c-0.9,1.1-0.9,3.2-0.8,3.9l-2.2,0.3c0-0.4-0.4-3.6,1.4-5.7c0.8-0.9,2-1.4,3.4-1.4c1.4,0,2.6,0.5,3.4,1.4
			C58.3,44.5,57.9,47.8,57.9,48.2z"/>
	</g>
	<g>
		<path class="st1" d="M43,53.7H28.1c-0.3,0-0.6-0.3-0.6-0.6V34.4c0-0.3,0.3-0.6,0.6-0.6h20c0.3,0,0.6,0.3,0.6,0.6v4.3
			c0,0.3-0.3,0.6-0.6,0.6c-0.3,0-0.6-0.3-0.6-0.6V35H28.7v17.6H43c0.3,0,0.6,0.3,0.6,0.6S43.3,53.7,43,53.7z"/>
	</g>
	<g>
		<g>
			<path class="st1" d="M43.2,48.6H33.1c-0.3,0-0.6-0.3-0.6-0.6s0.3-0.6,0.6-0.6h10.1c0.3,0,0.6,0.3,0.6,0.6S43.5,48.6,43.2,48.6z"
				/>
		</g>
		<g>
			<path class="st1" d="M43.2,40.1H33.1c-0.3,0-0.6-0.3-0.6-0.6s0.3-0.6,0.6-0.6h10.1c0.3,0,0.6,0.3,0.6,0.6S43.5,40.1,43.2,40.1z"
				/>
		</g>
		<g>
			<path class="st1" d="M43.2,44H33.1c-0.3,0-0.6-0.3-0.6-0.6s0.3-0.6,0.6-0.6h10.1c0.3,0,0.6,0.3,0.6,0.6S43.5,44,43.2,44z"/>
		</g>
	</g>
	<g>
		<path class="st2" d="M55.1,29.7H21.7c-0.6,0-1.1-0.5-1.1-1.1s0.5-1.1,1.1-1.1h33.5c0.6,0,1.1,0.5,1.1,1.1S55.8,29.7,55.1,29.7z"/>
	</g>
</g>
</svg>
