<?xml version="1.0" encoding="utf-8"?>
<!-- Generator: Adobe Illustrator 25.0.0, SVG Export Plug-In . SVG Version: 6.00 Build 0)  -->
<svg version="1.1" id="图层_1" xmlns="http://www.w3.org/2000/svg" xmlns:xlink="http://www.w3.org/1999/xlink" x="0px" y="0px"
	 viewBox="0 0 100 100" style="enable-background:new 0 0 100 100;" xml:space="preserve">
<style type="text/css">
	.st0{fill:#DC0816;}
	.st1{fill:#FFC0C0;}
	.st2{fill:#FFFFFF;}
</style>
<g>
	<g>
		<path class="st0" d="M77.8,89.8c-0.9,0-1.7-0.4-2.3-1.2c-0.9-1.3-0.7-3,0.6-4C92,72.9,98,51.8,90.7,33.4
			C81.9,10.9,56.4-0.1,33.9,8.8C11.5,17.6,0.4,43.1,9.3,65.6c3,7.6,8.1,14.2,14.6,19.1c1.3,0.9,1.5,2.7,0.6,4
			c-0.9,1.3-2.7,1.5-4,0.6C13.1,83.7,7.4,76.3,4,67.7C-6,42.3,6.5,13.5,31.8,3.5C57.2-6.6,86,5.9,96,31.3
			c8.2,20.8,1.4,44.6-16.5,57.9C79,89.6,78.4,89.8,77.8,89.8z"/>
	</g>
	<g>
		<g>
			<path class="st1" d="M84.2,49.7c0-21.6-20-38.5-42.5-33.2c-11.9,2.8-21.5,12.1-24.6,24c-4.8,18.4,5.3,35.1,20.8,41.1L48,56.9
				c0.7-1.8,3.2-1.8,4,0l10.2,24.6C75,76.6,84.2,64.2,84.2,49.7z"/>
		</g>
		<g>
			<path class="st0" d="M71.1,94.3L53.8,52.5c-0.6-1.6-2.1-2.5-3.8-2.5c-1.7,0-3.2,1-3.8,2.5L28.9,94.3c-0.5,1.3-0.4,2.7,0.4,3.9
				c0.8,1.1,2,1.8,3.4,1.8h34.6c1.4,0,2.7-0.7,3.4-1.8C71.5,97,71.6,95.6,71.1,94.3z M65.4,94.6H34.3L49.9,57L65.4,94.6z"/>
		</g>
	</g>
	<g>
		<path class="st2" d="M61.1,59.8c-0.3,0-0.6-0.1-0.9-0.3c-0.7-0.5-0.8-1.5-0.3-2.1c2.7-3.5,3.3-8,1.7-12.1
			c-1.2-3.1-3.6-5.5-6.6-6.9c-3.1-1.3-6.4-1.4-9.5-0.2c-6.4,2.5-9.5,9.8-7,16.2c0.4,1.1,1,2.1,1.7,3c0.5,0.7,0.4,1.6-0.3,2.1
			c-0.7,0.5-1.6,0.4-2.1-0.3c-0.8-1.1-1.5-2.3-2.1-3.7c-3.1-7.9,0.8-17,8.7-20.1c3.8-1.5,8.1-1.5,11.9,0.2c3.8,1.6,6.7,4.7,8.2,8.5
			c2,5.1,1.2,10.7-2.1,15.1C62,59.5,61.6,59.8,61.1,59.8z"/>
	</g>
	<g>
		<path class="st2" d="M33.1,70.2c-0.4,0-0.7-0.1-1-0.4c-2.9-2.7-5.1-5.9-6.5-9.6C22.9,53.6,23,46.4,25.8,40s8-11.4,14.5-14
			c6.6-2.6,13.7-2.5,20.2,0.3s11.4,8,14,14.5c4,10.2,1.4,21.5-6.5,29c-0.6,0.6-1.6,0.5-2.1-0.1c-0.6-0.6-0.5-1.6,0.1-2.1
			c7.1-6.6,9.3-16.7,5.8-25.7c-2.3-5.8-6.7-10.4-12.4-12.8c-5.7-2.5-12.1-2.6-17.9-0.3c-5.8,2.3-10.4,6.7-12.8,12.4
			C26.1,46.9,26,53.2,28.3,59c1.3,3.3,3.2,6.1,5.8,8.5c0.6,0.6,0.6,1.5,0.1,2.1C33.9,70,33.5,70.2,33.1,70.2z"/>
	</g>
</g>
</svg>
