<?xml version="1.0" encoding="utf-8"?>
<!-- Generator: Adobe Illustrator 25.0.0, SVG Export Plug-In . SVG Version: 6.00 Build 0)  -->
<svg version="1.1" id="图层_1" xmlns="http://www.w3.org/2000/svg" xmlns:xlink="http://www.w3.org/1999/xlink" x="0px" y="0px"
	 viewBox="0 0 100 100" style="enable-background:new 0 0 100 100;" xml:space="preserve">
<style type="text/css">
	.st0{fill:#D11A21;}
	.st1{fill:#FFC0C0;}
</style>
<g>
	<g>
		<path class="st0" d="M51.8,99.9h-49c-1.5,0-2.8-1.2-2.8-2.8V2.9c0-1.5,1.2-2.8,2.8-2.8h85c1.5,0,2.8,1.2,2.8,2.8v42.9
			c0,1.5-1.2,2.8-2.8,2.8c-1.5,0-2.8-1.2-2.8-2.8V5.6H5.6v88.7h46.3c1.5,0,2.8,1.2,2.8,2.8C54.6,98.7,53.4,99.9,51.8,99.9z"/>
	</g>
	<g>
		<path class="st1" d="M56.4,84.3H20.3c-0.8,0-1.5-0.7-1.5-1.5V35.9c0-0.8,0.7-1.5,1.5-1.5h50c0.8,0,1.5,0.7,1.5,1.5v8.7
			c0,0.8-0.7,1.5-1.5,1.5c-0.8,0-1.5-0.7-1.5-1.5v-7.2h-47v43.9h34.7c0.8,0,1.5,0.7,1.5,1.5C58,83.7,57.3,84.3,56.4,84.3z"/>
	</g>
	<g>
		<g>
			<path class="st1" d="M40.5,50.4H29.7c-0.8,0-1.5-0.7-1.5-1.5s0.7-1.5,1.5-1.5h10.8c0.8,0,1.5,0.7,1.5,1.5S41.4,50.4,40.5,50.4z"
				/>
		</g>
		<g>
			<path class="st1" d="M61.2,50.4H50.4c-0.8,0-1.5-0.7-1.5-1.5s0.7-1.5,1.5-1.5h10.8c0.8,0,1.5,0.7,1.5,1.5S62,50.4,61.2,50.4z"/>
		</g>
		<g>
			<path class="st1" d="M32.6,75.8c-0.4,0-0.8-0.1-1.1-0.4c-0.6-0.6-0.6-1.5,0-2.1l10-10c0.6-0.6,1.5-0.6,2.1,0
				c0.6,0.6,0.6,1.5,0,2.1l-10,10C33.3,75.7,32.9,75.8,32.6,75.8z"/>
		</g>
		<g>
			<path class="st1" d="M35.1,55.8c-0.8,0-1.5-0.7-1.5-1.5V43.5c0-0.8,0.7-1.5,1.5-1.5c0.8,0,1.5,0.7,1.5,1.5v10.8
				C36.6,55.1,36,55.8,35.1,55.8z"/>
		</g>
	</g>
	<g>
		<path class="st0" d="M87.8,24.3H4.1c-1.5,0-2.8-1.2-2.8-2.8s1.2-2.8,2.8-2.8h83.7c1.5,0,2.8,1.2,2.8,2.8S89.3,24.3,87.8,24.3z"/>
	</g>
	<g>
		<path class="st0" d="M67,99.9c-1.5,0-2.8-1.2-2.8-2.8l0-41.2c0-1.5,1.2-2.8,2.8-2.8c1.5,0,2.8,1.2,2.8,2.8l0,41.2
			C69.8,98.7,68.5,99.9,67,99.9z"/>
	</g>
	<g>
		<path class="st0" d="M70.3,99.9h-6.6c-1.5,0-2.8-1.2-2.8-2.8c0-1.5,1.2-2.8,2.8-2.8h6.6c1.5,0,2.8,1.2,2.8,2.8
			C73.1,98.7,71.9,99.9,70.3,99.9z"/>
	</g>
	<g>
		<path class="st1" d="M97.2,57c0,0-2.9,1.3-6.9,0.5c-4-0.8-11.9-7.3-23.3-1.7V75c0,0,4.6-1.4,11.1,0c6.5,1.4,9.1,3.1,12.5,3.1
			c3.4,0,6.5-2.3,6.5-2.3V57z"/>
		<path class="st0" d="M90.6,80.8c-2.3,0-4.2-0.6-6.4-1.3c-1.8-0.6-3.8-1.2-6.6-1.8c-5.7-1.2-9.8-0.1-9.8-0.1
			c-0.8,0.2-1.7,0.1-2.4-0.4c-0.7-0.5-1.1-1.3-1.1-2.2V55.7c0-1.1,0.6-2,1.6-2.5c10-4.8,17.7-1.5,22.3,0.4c1.1,0.5,2.1,0.9,2.8,1
			c3,0.6,5.2-0.3,5.2-0.3c0.8-0.4,1.8-0.3,2.6,0.2c0.8,0.5,1.2,1.4,1.2,2.3v18.8c0,0.9-0.4,1.7-1.2,2.2c-0.4,0.3-4,2.7-8.1,2.8
			C90.7,80.8,90.7,80.8,90.6,80.8z M72.4,71.6c1.8,0,4,0.2,6.3,0.7c3.1,0.6,5.3,1.4,7.2,1.9c2,0.7,3.3,1.1,4.8,1.1
			c1.3,0,2.8-0.6,3.8-1.1V60.4c-1.3,0.1-2.9,0.1-4.7-0.2c-1.2-0.2-2.4-0.8-3.8-1.4c-4-1.7-9.3-4-16.2-1.2v14.2
			C70.6,71.6,71.4,71.6,72.4,71.6z"/>
	</g>
	<g>
		<path class="st1" d="M76.3,16.3c-2.3,0-4.2-1.9-4.2-4.2C72.1,9.9,74,8,76.3,8c2.3,0,4.2,1.9,4.2,4.2
			C80.4,14.5,78.6,16.3,76.3,16.3z M76.3,11c-0.6,0-1.1,0.5-1.1,1.1c0,0.6,0.5,1.1,1.1,1.1c0.6,0,1.1-0.5,1.1-1.1
			C77.4,11.5,76.9,11,76.3,11z"/>
	</g>
</g>
</svg>
