<?xml version="1.0" encoding="utf-8"?>
<!-- Generator: Adobe Illustrator 25.0.0, SVG Export Plug-In . SVG Version: 6.00 Build 0)  -->
<svg version="1.1" id="图层_1" xmlns="http://www.w3.org/2000/svg" xmlns:xlink="http://www.w3.org/1999/xlink" x="0px" y="0px"
	 viewBox="0 0 40 40" style="enable-background:new 0 0 40 40;" xml:space="preserve">
<style type="text/css">
	.st0{fill:#FFC0C0;}
	.st1{fill:#FFFFFF;}
	.st2{fill:#DC0816;}
</style>
<g>
	<g>
		<g>
			<rect x="6.6" y="6.6" class="st0" width="26.8" height="26.8"/>
		</g>
		<g>
			<path class="st1" d="M17.7,30H10c-0.3,0-0.6-0.3-0.6-0.6V10.6c0-0.3,0.3-0.6,0.6-0.6H30c0.3,0,0.6,0.3,0.6,0.6v12.1
				c0,0.3-0.3,0.6-0.6,0.6c-0.3,0-0.6-0.3-0.6-0.6V11.2H10.6v17.6h7.1c0.3,0,0.6,0.3,0.6,0.6C18.3,29.7,18,30,17.7,30z"/>
		</g>
		<g>
			<g>
				<path class="st1" d="M19.9,30c-0.2,0-0.3-0.1-0.4-0.2c-0.2-0.2-0.2-0.6,0-0.9l3.3-3.4c0.2-0.2,0.6-0.2,0.8-0.1l3,2.3l2.9-3.3
					c0.2-0.3,0.6-0.3,0.9-0.1c0.3,0.2,0.3,0.6,0.1,0.9l-3.3,3.7c-0.2,0.2-0.6,0.3-0.8,0.1l-3-2.3l-2.9,3C20.3,29.9,20.1,30,19.9,30z
					"/>
			</g>
			<g>
				<path class="st1" d="M30,28c-0.3,0-0.6-0.3-0.6-0.6v-2h-2.1c-0.3,0-0.6-0.3-0.6-0.6s0.3-0.6,0.6-0.6H30c0.3,0,0.6,0.3,0.6,0.6
					v2.6C30.6,27.7,30.4,28,30,28z"/>
			</g>
		</g>
		<g>
			<g>
				<path class="st1" d="M19.5,26.5h-6.4c-0.3,0-0.6-0.3-0.6-0.6s0.3-0.6,0.6-0.6h6.4c0.3,0,0.6,0.3,0.6,0.6S19.8,26.5,19.5,26.5z"
					/>
			</g>
			<g>
				<path class="st1" d="M26.9,18.5h-6.3c-0.3,0-0.6-0.3-0.6-0.6s0.3-0.6,0.6-0.6h6.3c0.3,0,0.6,0.3,0.6,0.6S27.3,18.5,26.9,18.5z"
					/>
			</g>
			<g>
				<path class="st1" d="M26.9,14.5h-6.3c-0.3,0-0.6-0.3-0.6-0.6s0.3-0.6,0.6-0.6h6.3c0.3,0,0.6,0.3,0.6,0.6S27.3,14.5,26.9,14.5z"
					/>
			</g>
			<g>
				<g>
					<path class="st1" d="M15,18.4c-0.1,0-0.3,0-0.4-0.1c-0.3-0.2-0.3-0.6-0.1-0.8l3.3-4c0.2-0.3,0.6-0.3,0.8-0.1
						c0.3,0.2,0.3,0.6,0.1,0.8l-3.3,4C15.3,18.3,15.2,18.4,15,18.4z"/>
				</g>
				<g>
					<path class="st1" d="M15,18.4c-0.2,0-0.3-0.1-0.4-0.2l-1.9-1.9c-0.2-0.2-0.2-0.6,0-0.9c0.2-0.2,0.6-0.2,0.9,0l1.9,1.9
						c0.2,0.2,0.2,0.6,0,0.9C15.3,18.4,15.1,18.4,15,18.4z"/>
				</g>
			</g>
			<g>
				<path class="st1" d="M26.9,22.5H13.1c-0.3,0-0.6-0.3-0.6-0.6s0.3-0.6,0.6-0.6h13.9c0.3,0,0.6,0.3,0.6,0.6S27.3,22.5,26.9,22.5z"
					/>
			</g>
		</g>
	</g>
	<g>
		<path class="st2" d="M1.1,14.1L1.1,14.1c0.6,0,1.1-0.5,1.1-1.1V2.2h10c0.6,0,1.1-0.5,1.1-1.1l0,0c0-0.6-0.5-1.1-1.1-1.1H1.1
			C0.5,0,0,0.5,0,1.1V13C0,13.6,0.5,14.1,1.1,14.1z M26.7,1.1L26.7,1.1c0,0.6,0.5,1.1,1.1,1.1h10V13c0,0.6,0.5,1.1,1.1,1.1l0,0
			c0.6,0,1.1-0.5,1.1-1.1V1.1C40,0.5,39.5,0,38.9,0H27.8C27.2,0,26.7,0.5,26.7,1.1z M38.9,25.9L38.9,25.9c-0.6,0-1.1,0.5-1.1,1.1
			v10.8h-10c-0.6,0-1.1,0.5-1.1,1.1l0,0c0,0.6,0.5,1.1,1.1,1.1h11.1c0.6,0,1.1-0.5,1.1-1.1V27C40,26.4,39.5,25.9,38.9,25.9z
			 M13.3,38.9L13.3,38.9c0-0.6-0.5-1.1-1.1-1.1h-10V27c0-0.6-0.5-1.1-1.1-1.1l0,0C0.5,25.9,0,26.4,0,27v11.9C0,39.5,0.5,40,1.1,40
			h11.1C12.8,40,13.3,39.5,13.3,38.9z"/>
	</g>
</g>
</svg>
