<?xml version="1.0" encoding="UTF-8"?>
<svg width="16px" height="16px" viewBox="0 0 16 16" version="1.1" xmlns="http://www.w3.org/2000/svg" xmlns:xlink="http://www.w3.org/1999/xlink">
    <title>classification</title>
    <g id="OCR-自定义模板" stroke="none" stroke-width="1" fill="none" fill-rule="evenodd">
        <g id="classification" fill="#000000">
            <rect id="矩形" fill-rule="nonzero" opacity="0" x="0" y="0" width="16" height="16"></rect>
            <path d="M7.25,2.25 L2.5,2.25 C2.3625,2.25 2.25,2.3625 2.25,2.5 L2.25,7.25 C2.25,7.3875 2.3625,7.5 2.5,7.5 L7.25,7.5 C7.3875,7.5 7.5,7.3875 7.5,7.25 L7.5,2.5 C7.5,2.3625 7.3875,2.25 7.25,2.25 Z M6.4375,6.4375 L3.3125,6.4375 L3.3125,3.3125 L6.4375,3.3125 L6.4375,6.4375 Z M13.5,2.25 L8.75,2.25 C8.6125,2.25 8.5,2.3625 8.5,2.5 L8.5,7.25 C8.5,7.3875 8.6125,7.5 8.75,7.5 L13.5,7.5 C13.6375,7.5 13.75,7.3875 13.75,7.25 L13.75,2.5 C13.75,2.3625 13.6375,2.25 13.5,2.25 Z M12.6875,6.4375 L9.5625,6.4375 L9.5625,3.3125 L12.6875,3.3125 L12.6875,6.4375 Z M7.25,8.5 L2.5,8.5 C2.3625,8.5 2.25,8.6125 2.25,8.75 L2.25,13.5 C2.25,13.6375 2.3625,13.75 2.5,13.75 L7.25,13.75 C7.3875,13.75 7.5,13.6375 7.5,13.5 L7.5,8.75 C7.5,8.6125 7.3875,8.5 7.25,8.5 Z M6.4375,12.6875 L3.3125,12.6875 L3.3125,9.5625 L6.4375,9.5625 L6.4375,12.6875 Z M13.5,8.5 L8.75,8.5 C8.6125,8.5 8.5,8.6125 8.5,8.75 L8.5,13.5 C8.5,13.6375 8.6125,13.75 8.75,13.75 L13.5,13.75 C13.6375,13.75 13.75,13.6375 13.75,13.5 L13.75,8.75 C13.75,8.6125 13.6375,8.5 13.5,8.5 Z M12.6875,12.6875 L9.5625,12.6875 L9.5625,9.5625 L12.6875,9.5625 L12.6875,12.6875 Z" id="形状" fill-opacity="0.65"></path>
        </g>
    </g>
</svg>