<?xml version="1.0" encoding="UTF-8"?>
<svg width="16px" height="16px" viewBox="0 0 16 16" version="1.1" xmlns="http://www.w3.org/2000/svg" xmlns:xlink="http://www.w3.org/1999/xlink">
    <title>field</title>
    <g id="OCR-自定义模板" stroke="none" stroke-width="1" fill="none" fill-rule="evenodd">
        <g id="field" fill="#DC0816">
            <rect id="矩形" fill-rule="nonzero" opacity="0" x="0" y="0" width="16" height="16"></rect>
            <path d="M4.625,3.90625 C4.55625,3.90625 4.5,3.9625 4.5,4.03125 L4.5,4.78125 C4.5,4.85 4.55625,4.90625 4.625,4.90625 L10.625,4.90625 C10.69375,4.90625 10.75,4.85 10.75,4.78125 L10.75,4.03125 C10.75,3.9625 10.69375,3.90625 10.625,3.90625 L4.625,3.90625 Z M7.5,6.15625 L4.625,6.15625 C4.55625,6.15625 4.5,6.2125 4.5,6.28125 L4.5,7.03125 C4.5,7.1 4.55625,7.15625 4.625,7.15625 L7.5,7.15625 C7.56875,7.15625 7.625,7.1 7.625,7.03125 L7.625,6.28125 C7.625,6.2125 7.56875,6.15625 7.5,6.15625 Z M6.75,13.3125 L3.25,13.3125 L3.25,2.3125 L12,2.3125 L12,7.3125 C12,7.38125 12.05625,7.4375 12.125,7.4375 L13,7.4375 C13.06875,7.4375 13.125,7.38125 13.125,7.3125 L13.125,1.6875 C13.125,1.4109375 12.9015625,1.1875 12.625,1.1875 L2.625,1.1875 C2.3484375,1.1875 2.125,1.4109375 2.125,1.6875 L2.125,13.9375 C2.125,14.2140625 2.3484375,14.4375 2.625,14.4375 L6.75,14.4375 C6.81875,14.4375 6.875,14.38125 6.875,14.3125 L6.875,13.4375 C6.875,13.36875 6.81875,13.3125 6.75,13.3125 Z M13,9 C13.0884055,9 13.1731901,9.03511895 13.2357023,9.09763108 C13.2982144,9.16014321 13.3333333,9.24492785 13.3333333,9.33333334 L13.3333333,10 C13.3333333,10.0884055 13.2982144,10.1731901 13.2357023,10.2357023 C13.1731901,10.2982144 13.0884055,10.3333333 13,10.3333333 L11.3333333,10.3333333 L11.3333333,14 C11.3333333,14.0884055 11.2982144,14.1731901 11.2357023,14.2357023 C11.1731901,14.2982144 11.0884055,14.3333333 11,14.3333333 L10.3333333,14.3333333 C10.2449278,14.3333333 10.1601432,14.2982144 10.0976311,14.2357023 C10.0351189,14.1731901 10,14.0884055 10,14 L10,10.3333333 L8.33333333,10.3333333 C8.24492783,10.3333333 8.16014319,10.2982144 8.09763107,10.2357023 C8.03511894,10.1731901 8,10.0884055 8,10 L8,9.33333334 C8,9.24492785 8.03511894,9.16014321 8.09763107,9.09763108 C8.16014319,9.03511895 8.24492783,9 8.33333333,9 L13,9 Z" id="形状" fill-opacity="0.65"></path>
        </g>
    </g>
</svg>