<?xml version="1.0" encoding="UTF-8"?>
<svg width="106px" height="69px" viewBox="0 0 106 69" version="1.1" xmlns="http://www.w3.org/2000/svg" xmlns:xlink="http://www.w3.org/1999/xlink">
    <title>icon_unload</title>
    <g id="OCR-自定义模板" stroke="none" stroke-width="1" fill="none" fill-rule="evenodd" opacity="0.800000012">
        <g id="模板管理-创建自定义模板" transform="translate(-389.000000, -315.000000)" fill="#DC0816" fill-rule="nonzero">
            <g id="编组" transform="translate(123.000000, 86.000000)">
                <g id="编组-2" transform="translate(186.000000, 229.000000)">
                    <g id="编组-4" transform="translate(80.000000, 0.000000)">
                        <path d="M54.1364233,37.1098551 L54.2670831,37.2315495 L65.7670831,48.7226576 C66.7437714,49.6985906 66.7443836,51.2815029 65.7684505,52.2581912 C64.8349493,53.1924147 63.3461023,53.2335933 62.3636492,52.3813162 L62.2329169,52.2595586 L54.939,44.972 L54.9390152,68.4254446 L49.9390152,68.4254446 L49.939,45.092 L42.7670831,52.2595586 C41.8328596,53.1930598 40.3439811,53.2330867 39.3621876,52.3800499 L39.2315495,52.2581912 C38.2980483,51.3239677 38.2580214,49.8350892 39.1110582,48.8532957 L39.2329169,48.7226576 L50.7329169,37.2315495 C51.6666295,36.2985588 53.1545212,36.257994 54.1364233,37.1098551 Z M61.5227273,0.5 C75.4430683,0.5 87.0860736,10.7169594 89.2359357,24.214524 L89.299,24.632 L89.4007353,24.6441934 C98.3718446,25.77257 105.332564,33.3871839 105.497024,42.6639788 L105.5,43 C105.5,52.987965 97.6153616,61.1505721 87.7090418,61.4893265 L87.3743636,61.4977735 L87.0909091,61.5 L71.1081383,61.5 C69.7274264,61.5 68.6081383,60.3807119 68.6081383,59 C68.6081383,57.6745166 69.6396743,56.5899613 70.9437626,56.5053177 L71.1081383,56.5 L87.0705405,56.500083 L87.3132351,56.4981888 C94.6211968,56.3790242 100.5,50.3757119 100.5,43 C100.5,35.6460338 94.6613566,29.6704497 87.4312097,29.5034143 L87.1205073,29.4998248 L87.0646337,29.5004863 C85.7359516,29.5162181 84.6271125,28.4898058 84.5403683,27.163865 C83.7451501,15.0084532 73.686843,5.5 61.5227273,5.5 C53.630655,5.5 46.4213151,9.51686989 42.1873532,16.0493467 C41.3955558,17.2709917 39.7315275,17.5603759 38.5737881,16.6777667 C36.8500846,15.3636916 34.7551968,14.6428571 32.5454545,14.6428571 C27.0258059,14.6428571 22.5454545,19.1488105 22.5454545,24.7142857 C22.5454545,25.3527217 22.6041265,25.9811396 22.7196435,26.5941812 C23.0257633,28.21874 21.6990065,29.6877883 20.0517628,29.5481857 C19.6735164,29.5161296 19.2924291,29.5 18.9090909,29.5 C11.5066534,29.5 5.5,35.5409771 5.5,43 C5.5,49.9922064 10.7979277,55.7921017 17.6334584,56.4398823 L17.9500225,56.4661071 C18.0049028,56.4700012 18.0592626,56.4756457 18.1130492,56.4829833 L18.215,56.5 L36.7193707,56.5 C38.0448541,56.5 39.1294094,57.5315359 39.2140531,58.8356243 L39.2193707,59 C39.2193707,60.3254834 38.1878348,61.4100387 36.8837464,61.4946823 L36.7193707,61.5 L17.7727273,61.5 C17.6245436,61.5 17.4793913,61.4871135 17.3383246,61.4624037 L17.115,61.412 L16.9294035,61.3941281 C7.75571951,60.4084997 0.670426796,52.6835938 0.503029476,43.3384721 L0.5,43 C0.5,33.3471246 7.85833843,25.4163608 17.2512135,24.5739899 L17.547,24.55 L17.5486708,24.3990808 C17.7135037,16.3287273 24.1935121,9.8118643 32.231508,9.64609173 L32.5454545,9.64285714 C34.8937651,9.64285714 37.1629329,10.187983 39.2062188,11.2068632 L39.423,11.318 L39.5848921,11.1124758 C44.7497888,4.60882131 52.5606584,0.643359538 61.0585371,0.503809773 L61.5227273,0.5 Z" id="icon_unload"></path>
                    </g>
                </g>
            </g>
        </g>
    </g>
</svg>