<?xml version="1.0" encoding="UTF-8"?>
<svg width="16px" height="16px" viewBox="0 0 16 16" version="1.1" xmlns="http://www.w3.org/2000/svg" xmlns:xlink="http://www.w3.org/1999/xlink">
    <title>template</title>
    <g id="OCR-自定义模板" stroke="none" stroke-width="1" fill="none" fill-rule="evenodd">
        <g id="template" fill="#DC0816">
            <rect id="矩形" fill-rule="nonzero" opacity="0" x="0" y="0" width="16" height="16"></rect>
            <path d="M13.75,1.75 L2.25,1.75 C1.9734375,1.75 1.75,1.9734375 1.75,2.25 L1.75,13.75 C1.75,14.0265625 1.9734375,14.25 2.25,14.25 L13.75,14.25 C14.0265625,14.25 14.25,14.0265625 14.25,13.75 L14.25,2.25 C14.25,1.9734375 14.0265625,1.75 13.75,1.75 Z M2.875,2.875 L5,2.875 L5,13.125 L2.875,13.125 L2.875,2.875 Z M13.125,13.125 L6,13.125 L6,6 L13.125,6 L13.125,13.125 Z M6,5 L6,2.875 L13.125,2.875 L13.125,5 L6,5 Z" id="形状" fill-opacity="0.65"></path>
        </g>
    </g>
</svg>